<?xml version="1.0" encoding="utf-8"?>
<!-- Generator: Adobe Illustrator 18.0.0, SVG Export Plug-In . SVG Version: 6.00 Build 0)  -->
<!DOCTYPE svg PUBLIC "-//W3C//DTD SVG 1.1//EN" "http://www.w3.org/Graphics/SVG/1.1/DTD/svg11.dtd">
<svg version="1.1" id="Layer_1" xmlns="http://www.w3.org/2000/svg" xmlns:xlink="http://www.w3.org/1999/xlink" x="0px" y="0px"
	 width="28px" height="32px" viewBox="0 0 28 32" enable-background="new 0 0 28 32" xml:space="preserve">
<g>
	<g>
		<path fill="#B2B2B2" d="M2.8,27.5c0,0.1,0,0.2,0,0.3c0,0.1-0.1,0.2-0.1,0.3c-0.1,0.1-0.1,0.2-0.2,0.2c-0.1,0-0.2,0.1-0.3,0.1l0,0
			c0.1,0,0.2,0.1,0.3,0.1c0.1,0,0.2,0.1,0.3,0.2C2.9,28.9,2.9,29,3,29.1s0.1,0.3,0.1,0.4c0,0.2,0,0.4-0.1,0.6
			c-0.1,0.2-0.2,0.3-0.4,0.4c-0.2,0.1-0.3,0.2-0.5,0.2c-0.4,0.2-0.6,0.2-0.8,0.2c-0.1,0-0.2,0-0.3,0s-0.2,0-0.3,0s-0.2,0-0.4,0
			c-0.1,0-0.2,0-0.3-0.1v-4.2c0.1,0,0.2,0,0.3,0s0.2,0,0.3,0s0.2,0,0.3,0s0.2,0,0.4,0s0.4,0,0.6,0c0.2,0,0.4,0.1,0.5,0.2
			c0.1,0.1,0.3,0.2,0.4,0.3C2.9,27.2,2.8,27.3,2.8,27.5z M1.1,28.4c0.1,0,0.1,0,0.2,0c0.1,0,0.1,0,0.2,0c0.2,0,0.3-0.1,0.4-0.2
			c0.1-0.1,0.2-0.2,0.2-0.4c0-0.1,0-0.2-0.1-0.3c0-0.1-0.1-0.1-0.2-0.2c-0.1,0-0.1-0.1-0.2-0.1c-0.1,0-0.2,0-0.3,0
			c-0.1,0-0.2,0-0.3,0s-0.2,0-0.2,0v1.1h0.3V28.4z M1.3,30.2c0.1,0,0.2,0,0.3,0c0.1,0,0.2-0.1,0.2-0.1c0.1,0,0.1-0.1,0.2-0.2
			c0-0.1,0.1-0.2,0.1-0.3c0-0.1,0-0.2-0.1-0.3c-0.1-0.1-0.1-0.1-0.2-0.2c-0.1,0-0.2-0.1-0.3-0.1s-0.2,0-0.3,0H0.8v1.1h0.1H1
			c0.1,0,0.1,0,0.2,0S1.3,30.2,1.3,30.2z"/>
		<path fill="#B2B2B2" d="M3.5,27.9c0.2-0.1,0.3-0.1,0.6-0.2c0.2,0,0.5-0.1,0.7-0.1s0.4,0,0.5,0.1c0.1,0,0.3,0.1,0.3,0.2
			c0.1,0.1,0.1,0.2,0.2,0.3c0,0.1,0.1,0.3,0.1,0.4c0,0.2,0,0.4,0,0.5c0,0.2,0,0.4,0,0.5s0,0.3,0,0.5c0,0.2,0,0.3,0.1,0.5H5.4
			l-0.1-0.4l0,0c-0.1,0.1-0.2,0.2-0.3,0.3c-0.1,0.1-0.3,0.1-0.5,0.1c-0.1,0-0.3,0-0.4-0.1c-0.1,0-0.2-0.1-0.3-0.2
			c-0.1-0.1-0.1-0.2-0.2-0.3c0-0.1-0.1-0.2-0.1-0.4s0-0.3,0.1-0.5C3.7,29.1,3.8,29,4,28.9c0.2-0.1,0.3-0.1,0.6-0.2
			c0.3-0.1,0.5,0,0.7,0c0-0.2,0-0.4,0-0.5c-0.1-0.1-0.2-0.1-0.4-0.1c-0.2,0-0.3,0-0.5,0c-0.2,0-0.3,0.1-0.4,0.1L3.5,27.9z M4.5,30.2
			c0.2,0,0.3,0,0.4-0.1C5,30,5.1,30,5.1,29.9v-0.4c-0.1,0-0.2,0-0.4,0c-0.1,0-0.2,0-0.3,0.1c-0.1,0-0.2,0.1-0.2,0.1
			c-0.1,0.1-0.1,0.1-0.1,0.2c0,0.1,0,0.2,0.1,0.3C4.3,30.3,4.4,30.2,4.5,30.2z"/>
		<path fill="#B2B2B2" d="M8.5,30.6c-0.1,0.1-0.3,0.2-0.4,0.2c-0.1,0-0.3,0.1-0.5,0.1c-0.2,0-0.4,0-0.6-0.1
			c-0.2-0.1-0.3-0.2-0.4-0.3c-0.1-0.1-0.2-0.3-0.2-0.5s-0.1-0.4-0.1-0.6c0-0.5,0.1-0.9,0.3-1.2c0.2-0.3,0.6-0.4,1-0.4
			c0.2,0,0.4,0,0.5,0.1c0.1,0,0.3,0.1,0.4,0.1l-0.2,0.6c-0.1,0-0.2-0.1-0.3-0.1c-0.1,0-0.2,0-0.3,0c-0.2,0-0.4,0.1-0.5,0.2
			C7.1,28.8,7,29.1,7,29.4c0,0.1,0,0.2,0,0.4C7,30,7.1,30,7.1,30.1c0,0.1,0.1,0.1,0.2,0.2c0.1,0,0.2,0.1,0.3,0.1
			c0.1,0,0.2,0,0.3-0.1c0.1,0,0.2-0.1,0.2-0.1L8.5,30.6z"/>
		<path fill="#B2B2B2" d="M10,29.6H9.8v1.2H9v-4.3h0.8v2.5L10,29l0.7-1.2h0.8l-0.7,1.1l-0.3,0.3l0.3,0.2l0.8,1.4h-0.9L10,29.6z"/>
		<path fill="#B2B2B2" d="M13,27.7h0.4v-0.6l0.8-0.2v0.8h0.7v0.7h-0.7v1.2c0,0.2,0,0.4,0.1,0.4s0.1,0.1,0.2,0.1c0.1,0,0.1,0,0.2,0
			c0.1,0,0.1,0,0.2-0.1l0.1,0.6c-0.1,0.1-0.2,0.1-0.4,0.1c-0.1,0.1-0.2,0.1-0.4,0.1c-0.3,0-0.5-0.1-0.6-0.2
			c-0.1-0.1-0.2-0.4-0.2-0.7v-1.5H13V27.7z"/>
		<path fill="#B2B2B2" d="M15.2,29.3c0-0.5,0.1-0.9,0.4-1.2c0.2-0.3,0.6-0.4,1-0.4c0.2,0,0.4,0,0.6,0.1c0.2,0.1,0.3,0.2,0.4,0.3
			c0.1,0.1,0.2,0.3,0.3,0.5C18,28.8,18,29,18,29.2c0,0.5-0.1,0.9-0.4,1.2c-0.2,0.3-0.6,0.4-1,0.4c-0.2,0-0.4,0-0.6-0.1
			c-0.2-0.1-0.3-0.2-0.4-0.3c-0.1-0.1-0.2-0.3-0.3-0.5C15.2,29.8,15.2,29.6,15.2,29.3z M16,29.3c0,0.1,0,0.3,0,0.4
			c0,0.1,0.1,0.2,0.1,0.3s0.1,0.1,0.2,0.2c0.1,0.1,0.2,0.1,0.3,0.1c0.2,0,0.4-0.1,0.5-0.2c0.1-0.1,0.1-0.4,0.1-0.7s0-0.5-0.1-0.7
			c-0.1-0.2-0.2-0.3-0.5-0.3c-0.2,0-0.3,0.1-0.5,0.2C16.1,28.8,16,29,16,29.3z"/>
		<path fill="#B2B2B2" d="M19.8,27.7h0.4v-0.6l0.8-0.2v0.8h0.7v0.7H21v1.2c0,0.2,0,0.4,0.1,0.4s0.1,0.1,0.2,0.1c0.1,0,0.1,0,0.2,0
			s0.1,0,0.2-0.1l0.1,0.6c-0.1,0.1-0.2,0.1-0.4,0.1c-0.1,0-0.3,0.1-0.4,0.1c-0.3,0-0.5-0.1-0.6-0.2c-0.1-0.1-0.2-0.4-0.2-0.7v-1.5
			h-0.4C19.8,28.5,19.8,27.7,19.8,27.7z"/>
		<path fill="#B2B2B2" d="M21.9,29.3c0-0.5,0.1-0.9,0.4-1.2c0.2-0.3,0.6-0.4,1-0.4c0.2,0,0.4,0,0.6,0.1c0.2,0.1,0.3,0.2,0.4,0.3
			c0.1,0.1,0.2,0.3,0.3,0.5c0.1,0.2,0.1,0.4,0.1,0.6c0,0.5-0.1,0.9-0.4,1.2c-0.2,0.3-0.6,0.4-1,0.4c-0.2,0-0.4,0-0.6-0.1
			c-0.2-0.1-0.3-0.2-0.4-0.3c-0.1-0.1-0.2-0.3-0.3-0.5C21.9,29.8,21.9,29.6,21.9,29.3z M22.7,29.3c0,0.1,0,0.3,0,0.4
			c0,0.1,0.1,0.2,0.1,0.3s0.1,0.1,0.2,0.2c0.1,0.1,0.2,0.1,0.3,0.1c0.2,0,0.4-0.1,0.5-0.2c0.1-0.1,0.1-0.4,0.1-0.7s0-0.5-0.1-0.7
			c-0.1-0.2-0.2-0.3-0.5-0.3c-0.2,0-0.3,0.1-0.5,0.2C22.8,28.8,22.7,29,22.7,29.3z"/>
		<path fill="#B2B2B2" d="M25.3,27.7h0.6l0.1,0.4l0,0c0.1-0.2,0.2-0.3,0.4-0.3c0.1-0.1,0.3-0.1,0.5-0.1c0.4,0,0.7,0.1,0.8,0.4
			c0.2,0.2,0.3,0.6,0.3,1.1c0,0.3,0,0.5-0.1,0.7s-0.1,0.4-0.3,0.5c-0.1,0.1-0.3,0.3-0.4,0.3s-0.4,0.1-0.6,0.1c-0.1,0-0.2,0-0.3,0
			s-0.2,0-0.2-0.1V32h-0.8V27.7z M26.6,28.4c-0.2,0-0.3,0-0.4,0.1c-0.1,0.1-0.2,0.2-0.2,0.3V30c0.1,0,0.1,0.1,0.2,0.1
			c0.1,0,0.2,0,0.3,0c0.2,0,0.4-0.1,0.5-0.2c0.1-0.2,0.2-0.4,0.2-0.8c0-0.3,0-0.5-0.1-0.6C27,28.5,26.8,28.4,26.6,28.4z"/>
	</g>
	<g>
		<path fill="#B2B2B2" d="M13.9,0C7.3,0,2.1,5.4,2.1,12.1s5.3,12.1,11.8,12.1s11.8-5.4,11.8-12.1S20.5,0,13.9,0z M18.2,16.1
			l-4.3-4.4l-4.3,4.4l-2.5-2.5l6.8-6.9l6.8,6.9L18.2,16.1z"/>
	</g>
</g>
</svg>
