<?xml version="1.0" encoding="utf-8"?>
<!-- Generator: Adobe Illustrator 18.0.0, SVG Export Plug-In . SVG Version: 6.00 Build 0)  -->
<!DOCTYPE svg PUBLIC "-//W3C//DTD SVG 1.1//EN" "http://www.w3.org/Graphics/SVG/1.1/DTD/svg11.dtd">
<svg version="1.1" id="Layer_1" xmlns="http://www.w3.org/2000/svg" xmlns:xlink="http://www.w3.org/1999/xlink" x="0px" y="0px"
	 width="337px" height="221px" viewBox="0 0 337 221" enable-background="new 0 0 337 221" xml:space="preserve">
<g>
	<g>
		<g>
			<g>
				<path fill="#274C6F" d="M172.7,70.1c-5.3,0.1-10,1.3-13.9,2.8V48.1l-15,2.1v71.2c7,1.1,15.3,1.7,20.7,1.7
					c21,0,24.5-9.3,24.5-21.4V88.5c0-0.2,0-0.3,0-0.5C179.9,86.9,173,79.3,172.7,70.1z M173.8,101.8c0,4.8-1.4,8.3-8.9,8.3
					c-2.1,0-4,0-6.2-0.2V86c2.8-1.5,6.4-2.8,9.6-2.8c4,0,5.4,2.1,5.4,5.4v13.2H173.8z"/>
			</g>
			<g>
				<path fill="#274C6F" d="M191.3,90.7c-11.6,0-21-9.4-21-21s9.4-21,21-21s21,9.4,21,21C212.3,81.2,202.9,90.7,191.3,90.7z
					 M191.3,52c-9.6,0-17.5,7.8-17.5,17.5c0,9.6,7.8,17.5,17.5,17.5c9.6,0,17.5-7.8,17.5-17.5C208.8,59.9,200.9,52,191.3,52z"/>
			</g>
		</g>
		<g>
			<path fill="#274C6F" d="M191.8,77c1.9,0,4.1-0.4,6.2-0.9l0.4,2.7c-1.9,0.7-4.5,1.1-7,1.1c-5.8,0-7.8-2.8-7.8-7.2v-5.9
				c0-4.1,1.9-7.4,7.7-7.4s7.4,3.4,7.4,7.4v4.1h-11.6v1.7C187.1,75.7,188,77,191.8,77z M187.1,68.1h8.5v-1.6c0-2.8-0.9-4.3-4.1-4.3
				c-3.2,0-4.3,1.5-4.3,4.3v1.6H187.1z"/>
		</g>
		<g>
			<path fill="#274C6F" d="M168.6,144.5c-33.8,0-61.3-27.5-61.3-61.3S134.8,22,168.6,22s61.3,27.5,61.3,61.3
				C229.8,117.1,202.3,144.5,168.6,144.5z M168.6,25c-32.2,0-58.3,26.1-58.3,58.3s26.1,58.3,58.3,58.3s58.3-26.1,58.3-58.3
				S200.7,25,168.6,25z"/>
		</g>
	</g>
	<g>
		<g>
			<g>
				<path fill="#274C6F" d="M24,199c-2.4,0-5.9-0.2-9-0.7v-30.9l6.5-0.9v10.7c1.8-0.7,3.9-1.2,6.3-1.2c4.9,0,6.8,3,6.8,8v5.7
					C34.6,195,33.1,199,24,199z M21.5,193.2c1,0.1,1.8,0.1,2.7,0.1c3.3,0,3.9-1.5,3.9-3.6V184c0-1.5-0.6-2.4-2.4-2.4
					c-1.4,0-2.9,0.6-4.2,1.2V193.2z"/>
			</g>
			<g>
				<path fill="#274C6F" d="M48.3,185.1v13.5h-6.5v-22.1h5.4l0.5,2.1c1.4-0.9,4.2-2.2,5.9-2.6l0.5,6.2
					C52.2,182.9,49.7,184.1,48.3,185.1z"/>
			</g>
			<g>
				<path fill="#274C6F" d="M71.5,198.5l-0.5-1.4c-2.5,1.4-4.8,1.9-6.3,1.9c-4.1,0-5.8-2.9-5.8-6.7c0-4.4,2-6.2,6.6-6.2h4.8v-1.7
					c0-2.3-0.4-3-3.9-3c-2,0-3.9,0.2-6,0.6l-0.9-4.9c2.1-0.6,5.4-1.1,7.9-1.1c7.7,0,9.3,2.3,9.3,8.4v14.1L71.5,198.5L71.5,198.5z
					 M70.3,190.6h-3.1c-1.4,0-2,0.4-2,1.6c0,1.2,0.5,1.7,1.8,1.7c1.4,0,2.3-0.3,3.3-0.8L70.3,190.6L70.3,190.6z"/>
			</g>
			<g>
				<path fill="#274C6F" d="M97.5,198.5v-14.6c0-1-0.5-1.6-1.6-1.6c-1.2,0-3.4,0.8-4.8,1.6v14.6h-6.5v-22.1h4.9l0.7,1.7
					c2.7-1.3,6.3-2.1,8.8-2.1c3.8,0,5.1,2.8,5.1,7.1v15.5h-6.6V198.5z"/>
			</g>
			<g>
				<path fill="#274C6F" d="M110.9,184.2c0-5.2,2.3-8.2,7.4-8.2c1.8,0,4.1,0.3,5.6,0.6v-9.2l6.5-0.9v32h-5.1l-0.7-1.8
					c-1.5,1-4.4,2.2-6.8,2.2c-4.5,0-7-2.8-7-8.2v-6.5H110.9z M124,182.2c-1.1-0.3-2.8-0.5-4.2-0.5c-1.7,0-2.4,1-2.4,2.5v6.7
					c0,1.5,0.6,2.5,2.4,2.5c1.5,0,3.2-0.9,4.2-1.7V182.2z"/>
			</g>
			<g>
				<path fill="#274C6F" d="M146.9,196.7c2.3,0,4.8-0.5,7-1l0.5,2.1c-2,0.7-4.9,1.2-7.6,1.2c-6.2,0-8.2-3.2-8.2-8v-6.9
					c0-4.5,2-8,8.3-8c6.2,0,8,3.5,8,8v4.3h-13.7v2.8C141.1,195,142.5,196.7,146.9,196.7z M141.1,185.9h11.1v-2
					c0-3.7-1.3-5.7-5.4-5.7s-5.6,1.9-5.6,5.7v2H141.1z"/>
			</g>
			<g>
				<path fill="#274C6F" d="M190.8,198.5v-17.9c0-1.6-0.9-2.2-2.4-2.2c-2.1,0-5.7,1.1-8.5,2.5v17.6h-2.6v-17.9
					c0-1.6-0.9-2.2-2.4-2.2c-1.8,0-5.7,1.1-8.5,2.5v17.6h-2.6v-22.1h2.3l0.2,2c2.4-1.1,6.3-2.4,9-2.4c2.4,0,3.7,0.9,4.3,2.4
					c2.5-1.2,6.6-2.4,9.3-2.4c3.5,0,4.7,2,4.7,5v17.6h-2.8V198.5z"/>
			</g>
			<g>
				<path fill="#274C6F" d="M219.4,191.2c0,4.9-2.2,7.8-8.8,7.8c-1.9,0-5.4-0.3-7.4-0.8v-30.8l2.6-0.4v10.6c1.8-1,4.3-1.7,7.3-1.7
					c4.4,0,6.4,2.5,6.4,6.4v8.9H219.4z M205.8,196.1c1.7,0.3,3.5,0.5,5.1,0.5c4.8,0,5.9-2,5.9-5.3v-8.9c0-2.6-1.2-3.9-4.1-3.9
					c-2.7,0-4.8,0.7-6.9,1.9V196.1z"/>
			</g>
			<g>
				<path fill="#274C6F" d="M238.2,178.6c-2.3,1-4.9,2.7-7,4.1v15.9h-2.6v-22.1h2.4l0.1,3.4c2.4-1.5,4.7-3,6.8-3.8L238.2,178.6z"/>
			</g>
			<g>
				<path fill="#274C6F" d="M259.4,198.5h-2.2l-0.2-1.7c-2.1,1.3-4.6,2.2-7.5,2.2c-3.9,0-5.7-2.2-5.7-6.2c0-4.7,2.1-6.1,6.5-6.1h6.5
					v-4.3c0-3-1.6-4-5.2-4c-2.2,0-4.5,0.3-6.5,0.7l-0.4-2.2c1.8-0.5,4.5-0.9,6.8-0.9c5.7,0,8,2.3,8,6.4v16.1H259.4z M256.8,189.1
					h-6.4c-3,0-3.9,0.9-3.9,3.8c0,2.6,0.5,3.8,3.6,3.8c2.2,0,4.8-0.9,6.8-2.3v-5.3H256.8z"/>
			</g>
			<g>
				<path fill="#274C6F" d="M270.2,191.5c0,3.9,1.6,5.2,5.7,5.2c1.3,0,2.9-0.1,4.7-0.5l0.3,2.2c-1.5,0.4-3.5,0.6-5,0.6
					c-6.2,0-8.3-2.9-8.3-7.6v-7.8c0-4.8,2.1-7.6,8.3-7.6c1.5,0,3.5,0.2,5,0.6l-0.3,2.2c-1.9-0.3-3.4-0.5-4.7-0.5
					c-4.1,0-5.7,1.2-5.7,5.2V191.5z"/>
			</g>
			<g>
				<path fill="#274C6F" d="M296.6,196.7c2.3,0,4.8-0.5,7-1l0.5,2.1c-2,0.7-4.9,1.2-7.6,1.2c-6.2,0-8.2-3.2-8.2-8v-6.9
					c0-4.5,2-8,8.3-8c6.2,0,8,3.5,8,8v4.3h-13.7v2.8C290.7,195,292.2,196.7,296.6,196.7z M290.7,185.9h11.1v-2
					c0-3.7-1.3-5.7-5.4-5.7c-4.1,0-5.6,1.9-5.6,5.7v2H290.7z"/>
			</g>
		</g>
	</g>
</g>
<g>
	<g>
		<path fill="#274C6F" d="M312.3,170.6c-0.3-0.1-0.8-0.3-1.4-0.3c-0.7,0-1,0.3-1,0.7c0,0.4,0.3,0.7,1.3,1.1c1.3,0.6,1.8,1.4,1.8,2.4
			c0,1.5-1.1,2.5-3,2.5c-0.8,0-1.6-0.2-2-0.4l0.3-1.5c0.4,0.2,1.1,0.4,1.7,0.4c0.8,0,1.1-0.3,1.1-0.8c0-0.5-0.4-0.8-1.2-1.1
			c-1.3-0.6-1.9-1.4-1.9-2.3c0-1.4,1-2.4,2.9-2.4c0.8,0,1.4,0.2,1.7,0.4L312.3,170.6z"/>
	</g>
	<path fill="#274C6F" d="M315.8,172.4l-0.1,4.4H314l0.3-8h1.8l1.9,5.1l1.9-5.1h1.8l0.3,8h-1.7l-0.1-4.4l-1.4,3.4h-1.6L315.8,172.4z"
		/>
</g>
</svg>
