<?xml version="1.0" encoding="utf-8"?>
<!-- Generator: Adobe Illustrator 18.0.0, SVG Export Plug-In . SVG Version: 6.00 Build 0)  -->
<!DOCTYPE svg PUBLIC "-//W3C//DTD SVG 1.1//EN" "http://www.w3.org/Graphics/SVG/1.1/DTD/svg11.dtd">
<svg version="1.1" id="Layer_1" xmlns="http://www.w3.org/2000/svg" xmlns:xlink="http://www.w3.org/1999/xlink" x="0px" y="0px"
	 width="337px" height="221px" viewBox="0 0 337 221" style="enable-background:new 0 0 337 221;" xml:space="preserve">
<style type="text/css">
	.st0{fill:#274C6F;}
</style>
<g>
	<g>
		<g>
			<g>
				<path class="st0" d="M172.6,70.1c-5.3,0.1-10,1.3-13.9,2.8V48.2l-15,2.1v71.1c7,1.1,15.3,1.7,20.7,1.7c21,0,24.5-9.3,24.5-21.4
					V88.5c0-0.2,0-0.3,0-0.5C179.8,86.9,172.9,79.3,172.6,70.1z M173.7,101.8c0,4.8-1.4,8.3-8.9,8.3c-2.1,0-4,0-6.2-0.2V86
					c2.8-1.5,6.4-2.8,9.6-2.8c4,0,5.4,2.1,5.4,5.4V101.8z"/>
			</g>
			<g>
				<path class="st0" d="M191.2,90.7c-11.6,0-21-9.4-21-21c0-11.6,9.4-21,21-21c11.6,0,21,9.4,21,21
					C212.2,81.2,202.8,90.7,191.2,90.7z M191.2,52.1c-9.6,0-17.5,7.8-17.5,17.5c0,9.6,7.8,17.5,17.5,17.5c9.6,0,17.5-7.8,17.5-17.5
					C208.7,60,200.8,52.1,191.2,52.1z"/>
			</g>
		</g>
		<g>
			<path class="st0" d="M191.7,77c1.9,0,4.1-0.4,6.2-0.9l0.4,2.7c-1.9,0.7-4.5,1.1-7,1.1c-5.8,0-7.8-2.8-7.8-7.2v-5.9
				c0-4.1,1.9-7.4,7.7-7.4c5.8,0,7.4,3.4,7.4,7.4v4.1H187v1.7C187,75.7,187.9,77,191.7,77z M187,68.1h8.5v-1.6
				c0-2.8-0.9-4.3-4.1-4.3c-3.2,0-4.3,1.5-4.3,4.3V68.1z"/>
		</g>
		<g>
			<path class="st0" d="M168.5,144.5c-33.7,0-61.2-27.5-61.2-61.2c0-33.7,27.5-61.2,61.2-61.2s61.2,27.5,61.2,61.2
				C229.7,117.1,202.2,144.5,168.5,144.5z M168.5,25.1c-32.1,0-58.2,26.1-58.2,58.2c0,32.1,26.1,58.2,58.2,58.2
				c32.1,0,58.2-26.1,58.2-58.2C226.7,51.2,200.6,25.1,168.5,25.1z"/>
		</g>
	</g>
	<g>
		<g>
			<g>
				<path class="st0" d="M309.9,170.3v6.5h-1.8v-6.5h-2.2v-1.6h6.2v1.6H309.9z"/>
			</g>
			<g>
				<path class="st0" d="M315.4,172.3l-0.1,4.5h-1.8l0.3-8.1h1.8l2,5.2l2-5.2h1.8l0.3,8.1H320l-0.1-4.5l-1.4,3.5h-1.6L315.4,172.3z"
					/>
			</g>
		</g>
		<g>
			<g>
				<path class="st0" d="M24.2,198.9c-2.4,0-5.9-0.2-9-0.7v-30.9l6.5-0.9v10.7c1.8-0.7,3.9-1.2,6.3-1.2c4.9,0,6.8,3,6.8,8v5.7
					C34.8,194.9,33.3,198.9,24.2,198.9z M21.7,193.1c1,0.1,1.8,0.1,2.7,0.1c3.3,0,3.9-1.5,3.9-3.6v-5.7c0-1.5-0.6-2.4-2.4-2.4
					c-1.4,0-2.9,0.6-4.2,1.2V193.1z"/>
			</g>
			<g>
				<path class="st0" d="M48.4,185v13.5h-6.5v-22.1h5.4l0.5,2.1c1.4-0.9,4.2-2.2,5.9-2.6l0.5,6.2C52.3,182.8,49.8,184,48.4,185z"/>
			</g>
			<g>
				<path class="st0" d="M71.6,198.4l-0.5-1.4c-2.5,1.4-4.8,1.9-6.3,1.9c-4.1,0-5.8-2.9-5.8-6.7c0-4.4,2-6.2,6.6-6.2h4.8v-1.7
					c0-2.3-0.4-3-3.9-3c-2,0-3.9,0.2-6,0.6l-0.9-4.9c2.1-0.6,5.4-1.1,7.9-1.1c7.7,0,9.3,2.3,9.3,8.4v14.1H71.6z M70.4,190.5h-3.1
					c-1.4,0-2,0.4-2,1.6c0,1.2,0.5,1.7,1.8,1.7c1.4,0,2.3-0.3,3.3-0.8V190.5z"/>
			</g>
			<g>
				<path class="st0" d="M97.6,198.4v-14.6c0-1-0.5-1.6-1.6-1.6c-1.2,0-3.4,0.8-4.8,1.6v14.6h-6.5v-22.1h4.9l0.7,1.7
					c2.7-1.3,6.3-2.1,8.8-2.1c3.8,0,5.1,2.8,5.1,7.1v15.5H97.6z"/>
			</g>
			<g>
				<path class="st0" d="M110.9,184.1c0-5.2,2.3-8.2,7.4-8.2c1.8,0,4.1,0.3,5.6,0.6v-9.2l6.5-0.9v32h-5.1l-0.7-1.8
					c-1.5,1-4.4,2.2-6.8,2.2c-4.5,0-7-2.8-7-8.2V184.1z M124,182.1c-1.1-0.3-2.8-0.5-4.2-0.5c-1.7,0-2.4,1-2.4,2.5v6.7
					c0,1.5,0.6,2.5,2.4,2.5c1.5,0,3.2-0.9,4.2-1.7V182.1z"/>
			</g>
			<g>
				<path class="st0" d="M146.9,196.6c2.3,0,4.8-0.5,7-1l0.5,2.1c-2,0.7-4.9,1.2-7.6,1.2c-6.2,0-8.2-3.2-8.2-8v-6.9c0-4.5,2-8,8.3-8
					c6.2,0,8,3.5,8,8v4.3h-13.7v2.8C141.1,194.9,142.5,196.6,146.9,196.6z M141.1,185.8h11.1v-2c0-3.7-1.3-5.7-5.4-5.7
					c-4.1,0-5.6,1.9-5.6,5.7V185.8z"/>
			</g>
			<g>
				<path class="st0" d="M190.7,198.4v-17.9c0-1.6-0.9-2.2-2.4-2.2c-2.1,0-5.7,1.1-8.5,2.5v17.6h-2.6v-17.9c0-1.6-0.9-2.2-2.4-2.2
					c-1.8,0-5.7,1.1-8.5,2.5v17.6h-2.6v-22.1h2.3l0.2,2c2.4-1.1,6.3-2.4,9-2.4c2.4,0,3.7,0.9,4.3,2.4c2.5-1.2,6.6-2.4,9.3-2.4
					c3.5,0,4.7,2,4.7,5v17.6H190.7z"/>
			</g>
			<g>
				<path class="st0" d="M219.3,191.1c0,4.9-2.2,7.8-8.8,7.8c-1.9,0-5.4-0.3-7.4-0.8v-30.8l2.6-0.4v10.6c1.8-1,4.3-1.7,7.3-1.7
					c4.4,0,6.4,2.5,6.4,6.4V191.1z M205.7,196c1.7,0.3,3.5,0.5,5.1,0.5c4.8,0,5.9-2,5.9-5.3v-8.9c0-2.6-1.2-3.9-4.1-3.9
					c-2.7,0-4.8,0.7-6.9,1.9V196z"/>
			</g>
			<g>
				<path class="st0" d="M238,178.5c-2.3,1-4.9,2.7-7,4.1v15.9h-2.6v-22.1h2.4l0.1,3.4c2.4-1.5,4.7-3,6.8-3.8L238,178.5z"/>
			</g>
			<g>
				<path class="st0" d="M259.2,198.4H257l-0.2-1.7c-2.1,1.3-4.6,2.2-7.5,2.2c-3.9,0-5.7-2.2-5.7-6.2c0-4.7,2.1-6.1,6.5-6.1h6.5
					v-4.3c0-3-1.6-4-5.2-4c-2.2,0-4.5,0.3-6.5,0.7l-0.4-2.2c1.8-0.5,4.5-0.9,6.8-0.9c5.7,0,8,2.3,8,6.4V198.4z M256.6,189h-6.4
					c-3,0-3.9,0.9-3.9,3.8c0,2.6,0.5,3.8,3.6,3.8c2.2,0,4.8-0.9,6.8-2.3V189z"/>
			</g>
			<g>
				<path class="st0" d="M270,191.4c0,3.9,1.6,5.2,5.7,5.2c1.3,0,2.9-0.1,4.7-0.5l0.3,2.2c-1.5,0.4-3.5,0.6-5,0.6
					c-6.2,0-8.3-2.9-8.3-7.6v-7.8c0-4.8,2.1-7.6,8.3-7.6c1.5,0,3.5,0.2,5,0.6l-0.3,2.2c-1.9-0.3-3.4-0.5-4.7-0.5
					c-4.1,0-5.7,1.2-5.7,5.2V191.4z"/>
			</g>
			<g>
				<path class="st0" d="M296.3,196.6c2.3,0,4.8-0.5,7-1l0.5,2.1c-2,0.7-4.9,1.2-7.6,1.2c-6.2,0-8.2-3.2-8.2-8v-6.9c0-4.5,2-8,8.3-8
					c6.2,0,8,3.5,8,8v4.3h-13.7v2.8C290.5,194.9,291.9,196.6,296.3,196.6z M290.5,185.8h11.1v-2c0-3.7-1.3-5.7-5.4-5.7
					c-4.1,0-5.6,1.9-5.6,5.7V185.8z"/>
			</g>
		</g>
	</g>
</g>
</svg>
