<?xml version="1.0" encoding="utf-8"?>
<!-- Generator: Adobe Illustrator 18.0.0, SVG Export Plug-In . SVG Version: 6.00 Build 0)  -->
<!DOCTYPE svg PUBLIC "-//W3C//DTD SVG 1.1//EN" "http://www.w3.org/Graphics/SVG/1.1/DTD/svg11.dtd">
<svg version="1.1" id="Layer_1" xmlns="http://www.w3.org/2000/svg" xmlns:xlink="http://www.w3.org/1999/xlink" x="0px" y="0px"
	 width="144.7px" height="53px" viewBox="0 0 144.7 53" enable-background="new 0 0 144.7 53" xml:space="preserve">
<g>
	<rect x="0" fill="#FBAF17" width="53.1" height="53"/>
	<g>
		<g>
			<path fill="#FFFFFF" d="M71,20.5c-0.7,0-1.8-0.1-2.8-0.2v-9.5l2-0.3v3.3c0.5-0.2,1.2-0.4,1.9-0.4c1.5,0,2.1,0.9,2.1,2.5v1.8
				C74.3,19.2,73.8,20.5,71,20.5z M70.3,18.7c0.3,0,0.5,0,0.8,0c1,0,1.2-0.5,1.2-1.1v-1.8c0-0.5-0.2-0.7-0.7-0.7
				c-0.4,0-0.9,0.2-1.3,0.4L70.3,18.7L70.3,18.7z"/>
			<path fill="#FFFFFF" d="M77.7,17.6v0.2c0,0.8,0.3,1,1.2,1c0.6,0,1.5-0.1,2.1-0.3l0.3,1.5c-0.6,0.2-1.6,0.4-2.6,0.4
				c-2.2,0-3.1-1.1-3.1-2.8v-1.6c0-1.5,0.7-2.7,2.9-2.7c2.3,0,2.8,1.3,2.8,2.8v1.4L77.7,17.6L77.7,17.6z M79.5,15.9
				c0-0.5-0.1-0.9-0.8-0.9s-0.9,0.4-0.9,0.9v0.3h1.8V15.9z"/>
			<path fill="#FFFFFF" d="M87.1,20.4v-4.5c0-0.3-0.1-0.5-0.5-0.5c-0.4,0-1,0.3-1.5,0.5v4.5h-2v-9.6l2-0.3V14
				c0.8-0.4,1.7-0.6,2.4-0.6c1.2,0,1.6,0.9,1.6,2.2v4.8L87.1,20.4L87.1,20.4z"/>
			<path fill="#FFFFFF" d="M94.8,20.4l-0.1-0.4c-0.8,0.4-1.5,0.6-1.9,0.6c-1.3,0-1.8-0.9-1.8-2.1c0-1.4,0.6-1.9,2-1.9h1.5V16
				c0-0.7-0.1-0.9-1.2-0.9c-0.6,0-1.2,0.1-1.8,0.2l-0.3-1.5c0.6-0.2,1.7-0.3,2.5-0.3c2.4,0,2.9,0.7,2.9,2.6v4.3H94.8z M94.5,17.9h-1
				c-0.4,0-0.6,0.1-0.6,0.5c0,0.4,0.2,0.5,0.5,0.5c0.4,0,0.7-0.1,1-0.2L94.5,17.9L94.5,17.9z"/>
			<path fill="#FFFFFF" d="M102.3,20.4h-2.6l-2.1-6.8h2l1.4,4.8l1.4-4.8h2L102.3,20.4z"/>
			<path fill="#FFFFFF" d="M105.7,12.7v-2.1h2v2.1H105.7z M105.7,20.4v-6.8h2v6.8H105.7z"/>
			<path fill="#FFFFFF" d="M109.5,17.7v-1.6c0-1.4,0.7-2.8,3.1-2.8c2.4,0,3.1,1.4,3.1,2.8v1.6c0,1.4-0.7,2.8-3.1,2.8
				C110.2,20.5,109.5,19.1,109.5,17.7z M113.7,17.8v-1.7c0-0.6-0.3-1-1.1-1c-0.7,0-1.1,0.4-1.1,1v1.7c0,0.6,0.3,1,1.1,1
				S113.7,18.4,113.7,17.8z"/>
			<path fill="#FFFFFF" d="M119.4,16.2v4.2h-2v-6.8h1.7l0.1,0.7c0.4-0.3,1.3-0.7,1.8-0.8l0.2,1.9C120.6,15.5,119.9,15.9,119.4,16.2z
				"/>
			<path fill="#FFFFFF" d="M126.2,20.4l-0.1-0.4c-0.8,0.4-1.5,0.6-2,0.6c-1.3,0-1.8-0.9-1.8-2.1c0-1.4,0.6-1.9,2-1.9h1.5V16
				c0-0.7-0.1-0.9-1.2-0.9c-0.6,0-1.2,0.1-1.9,0.2l-0.3-1.5c0.6-0.2,1.7-0.3,2.5-0.3c2.4,0,2.9,0.7,2.9,2.6v4.3H126.2z M125.8,17.9
				h-1c-0.4,0-0.6,0.1-0.6,0.5c0,0.4,0.2,0.5,0.5,0.5c0.4,0,0.7-0.1,1-0.2L125.8,17.9L125.8,17.9z"/>
			<path fill="#FFFFFF" d="M129.6,20.4v-9.6l2-0.3v9.9L129.6,20.4L129.6,20.4z"/>
			<path fill="#FFFFFF" d="M91.3,34.7c-0.7,0-1.8-0.2-2.5-0.4l0.3-1.5c0.6,0.2,1.3,0.3,2.1,0.3c0.6,0,0.7-0.2,0.7-0.6
				c0-0.4,0-0.5-1.1-0.7c-1.6-0.4-1.8-0.9-1.8-2.1c0-1.4,0.6-2,2.6-2c0.5,0,1.5,0.1,2.1,0.2l-0.2,1.6c-0.6-0.1-1.3-0.2-1.9-0.2
				c-0.6,0-0.7,0.2-0.7,0.5c0,0.4,0.1,0.5,0.9,0.7c1.9,0.4,2.1,0.9,2.1,2.2C93.9,33.9,93.3,34.7,91.3,34.7z"/>
			<path fill="#FFFFFF" d="M97.1,31.9c0,0.7,0.3,1,1.1,1c0.5,0,0.9-0.1,1.4-0.2l0.3,1.7c-0.7,0.2-1.2,0.2-1.7,0.2
				c-2.2,0-3.1-0.8-3.1-2.8v-1.6c0-1.9,0.9-2.8,3.1-2.8c0.5,0,1,0.1,1.7,0.2l-0.3,1.7c-0.4-0.1-1-0.2-1.4-0.2c-0.8,0-1.1,0.3-1.1,1
				V31.9z"/>
			<path fill="#FFFFFF" d="M101.5,26.9v-2.1h2v2.1H101.5z M101.5,34.6v-6.8h2v6.8H101.5z"/>
			<path fill="#FFFFFF" d="M107.3,31.9V32c0,0.8,0.3,1,1.2,1c0.6,0,1.5-0.1,2.1-0.3l0.3,1.5c-0.6,0.2-1.6,0.4-2.6,0.4
				c-2.2,0-3.1-1.1-3.1-2.8v-1.6c0-1.5,0.7-2.7,2.9-2.7c2.3,0,2.8,1.3,2.8,2.8v1.4C111,31.9,107.3,31.9,107.3,31.9z M109.1,30
				c0-0.5-0.1-0.9-0.8-0.9c-0.7,0-0.9,0.4-0.9,0.9v0.3h1.8V30z"/>
			<path fill="#FFFFFF" d="M116.7,34.6V30c0-0.3-0.1-0.5-0.5-0.5c-0.4,0-1,0.3-1.5,0.5v4.5h-2v-6.8h1.5l0.2,0.5
				c0.8-0.4,1.9-0.7,2.7-0.7c1.2,0,1.6,0.9,1.6,2.2v4.8L116.7,34.6L116.7,34.6z"/>
			<path fill="#FFFFFF" d="M122.4,31.9c0,0.7,0.3,1,1.1,1c0.5,0,0.9-0.1,1.4-0.2l0.3,1.7c-0.7,0.2-1.2,0.2-1.6,0.2
				c-2.2,0-3.1-0.8-3.1-2.8v-1.6c0-1.9,0.9-2.8,3.1-2.8c0.5,0,1,0.1,1.6,0.2l-0.3,1.7c-0.4-0.1-1-0.2-1.4-0.2c-0.8,0-1.1,0.3-1.1,1
				V31.9z"/>
			<path fill="#FFFFFF" d="M128.3,31.9V32c0,0.8,0.3,1,1.2,1c0.6,0,1.5-0.1,2.1-0.3l0.3,1.5c-0.6,0.2-1.6,0.4-2.6,0.4
				c-2.2,0-3.1-1.1-3.1-2.8v-1.6c0-1.5,0.7-2.7,2.9-2.7c2.3,0,2.8,1.3,2.8,2.8v1.4C132,31.9,128.3,31.9,128.3,31.9z M130.1,30
				c0-0.5-0.1-0.9-0.8-0.9c-0.7,0-0.9,0.4-0.9,0.9v0.3h1.8V30z"/>
			<path fill="#FFFFFF" d="M114.6,48.8v-9.6l2-0.3v9.9H114.6z"/>
			<path fill="#FFFFFF" d="M122.3,48.8l-0.1-0.4c-0.8,0.4-1.5,0.6-1.9,0.6c-1.3,0-1.8-0.9-1.8-2.1c0-1.4,0.6-1.9,2-1.9h1.5v-0.5
				c0-0.7-0.1-0.9-1.2-0.9c-0.6,0-1.2,0.1-1.8,0.2l-0.3-1.5c0.6-0.2,1.7-0.3,2.4-0.3c2.4,0,2.9,0.7,2.9,2.6v4.4L122.3,48.8
				L122.3,48.8z M122,46.3h-1c-0.4,0-0.6,0.1-0.6,0.5c0,0.4,0.2,0.5,0.5,0.5c0.4,0,0.7-0.1,1-0.2V46.3z"/>
			<path fill="#FFFFFF" d="M128.7,48.9c-0.7,0-1.8-0.1-2.8-0.2v-9.5l2-0.3v3.3c0.5-0.2,1.2-0.4,1.9-0.4c1.5,0,2.1,0.9,2.1,2.5V46
				C132,47.6,131.5,48.9,128.7,48.9z M128,47.1c0.3,0,0.5,0,0.8,0c1,0,1.2-0.5,1.2-1.1v-1.8c0-0.4-0.2-0.7-0.7-0.7
				c-0.4,0-0.9,0.2-1.3,0.4C128,43.9,128,47.1,128,47.1z"/>
		</g>
	</g>
</g>
</svg>
