<?xml version="1.0" encoding="utf-8"?>
<!-- Generator: Adobe Illustrator 18.0.0, SVG Export Plug-In . SVG Version: 6.00 Build 0)  -->
<!DOCTYPE svg PUBLIC "-//W3C//DTD SVG 1.1//EN" "http://www.w3.org/Graphics/SVG/1.1/DTD/svg11.dtd">
<svg version="1.1" id="Layer_1" xmlns="http://www.w3.org/2000/svg" xmlns:xlink="http://www.w3.org/1999/xlink" x="0px" y="0px"
	 width="689px" height="340px" viewBox="88.2 87 689 340" enable-background="new 88.2 87 689 340" xml:space="preserve">
<g id="Layer_2" display="none">
	<g id="vz5Gjy_1_" display="inline">
	</g>
</g>
<g id="Layer_1_1_">
	<g>
		<g>
			<g>
				<path fill="#234A71" d="M410.2,151.2c2,0,3.6,0,5.3,0c0.5,0,1.1,0,1.1,0.7c0,0.7-0.6,0.7-1.1,0.7c-2,0.1-2,0.1-2,2.1
					c0,0.6,0,1.1,0,1.7c0,0.5,0,1.1-0.7,1.2c-0.8,0-0.7-0.7-0.7-1.2c0-0.8,0-1.7,0-2.5c0-0.4,0.4-1.2-0.5-1.2
					c-0.8,0.1-1.9-0.6-2.4,0.6c-0.4,0.9-0.6,1.7-0.7,2.7c-0.1,0.5-0.2,1.1-0.8,1.1c-0.8-0.1-0.6-0.7-0.6-1.3
					c1.2-8.8,11.2-13.7,19.2-9.4c3.9,2.1,6.4,5.3,6.7,9.9c0.2,2.3,1.4,4.3,2.2,6.4c0.2,0.6,0.5,1.1,0.6,1.7c0.3,1-0.3,2-1.5,2.1
					c-1,0.1-1.2,0.5-1.2,1.4c0,1.9,0,1.9-1.9,1.9c-0.8,0-1.6,0-2.4,0c-1.1-0.1-1.7-0.7-1.9-1.8c-0.1-0.4,0-0.9,0.5-1
					c0.4-0.1,0.7,0.1,0.8,0.5c0.3,0.7,2.7,1.2,3.2,0.7c0.4-0.4,0.2-0.9,0.2-1.3c-0.1-1.2,0.2-2,1.7-1.8c1.1,0.2,1.1-0.4,0.7-1.2
					c-1.2-3-2.4-6-2.9-9.2c-0.7-4.4-6.1-8.5-10.5-8.5c-0.6,0-0.8,0.2-0.8,0.8c-0.1,1.3-0.1,2.2,1.7,2.4c2.4,0.4,3.9,2.4,4,4.7
					c0,0.5,0.2,1.1-0.5,1.2c-0.8,0.1-0.8-0.5-0.9-1.1c-0.3-2.1-1.3-3.1-3.3-3.6c-0.7-0.2-1-0.1-1,0.7c0,1.6,0,3.3,0,4.9
					c0,0.8-0.2,1.2-1.1,1.2c-0.9,0-1.8,0-2.6,0c-0.5,0-1-0.1-1-0.7c0-0.6,0.4-0.7,1-0.7c0.8-0.1,1.8,0.4,2.2-0.2
					c0.4-0.6,0.2-1.6,0.2-2.4c0-2,0-4.1,0-6.1c0-0.8-0.2-1-1-0.8C414.5,147,412.2,148.5,410.2,151.2z"/>
			</g>
			<g>
				<path fill="#244B71" d="M418.9,178.5c-2,0-4,0-6,0c-1,0-1.3-0.3-1.3-1.3c0-2.8,0-5.7,0-8.5c0-0.7-0.2-1.2-0.7-1.7
					c-2.1-2-3.4-4.4-3.8-7.2c-0.1-0.5-0.1-1,0.4-1.1c0.6-0.2,0.9,0.3,0.9,0.8c0.1,0.8,0.7,0.6,1.1,0.6c2.7,0,5.5,0,8.2,0
					c0.6,0,1.4-0.2,1.4,0.7c0,0.8-0.7,0.7-1.3,0.7c-1-0.1-1.2,0.4-1.1,1.2c0,0.3,0,0.7,0,1c-0.2,1.3,0.3,1.8,1.6,1.6
					c0.5-0.1,1.3-0.1,1.3,0.7c0,0.9-0.8,0.7-1.4,0.7c-3.2,0-2.9,0.5-2.9-2.8c0-2.3,0-2.3-2.3-2.3c-1.1,0-2.1,0-3.2,0
					c-0.7,0-0.9,0.2-0.6,0.9c0.7,1.4,1.5,2.7,2.7,3.7c0.9,0.7,1.2,1.4,1.1,2.5c-0.2,1.1,0.3,1.3,1.3,1.3c2-0.1,4-0.1,6,0
					c1.2,0.1,1.4-0.4,1.3-1.4c-0.1-2.3,0-4.6,0-6.8c0-0.6-0.2-1.4,0.7-1.4c0.8,0,0.7,0.7,0.7,1.3c0,2.7,0,5.5,0,8.2
					c0,1.1-0.4,1.5-1.4,1.5c-2.5,0-4.9,0-7.4,0c-1,0-1.3,0.3-1.2,1.3c0.1,1.2,0.1,2.3,0,3.5c0,0.9,0.2,1.2,1.1,1.2
					c1.8-0.1,3.5-0.1,5.3,0c0.9,0,1-0.5,0.9-1.1c0-0.6,0.2-1.4-0.9-1.3c-0.8,0.1-1.6,0-2.4,0c-0.4,0-0.8-0.1-0.8-0.6
					c0-0.5,0.3-0.8,0.8-0.8c1.3,0,2.5,0,3.8,0c0.6,0,0.9,0.4,0.9,1c0,0.4,0.1,0.8,0,1.3c-0.2,1.2,0.2,1.6,1.6,1.7
					c1.4,0,1.7-0.5,1.6-1.8c-0.1-2.1,0-2.1,2.1-2.1c1.6,0,3-0.5,4-1.8c0.3-0.4,0.7-0.7,1.2-0.4c0.5,0.4,0.3,0.8,0,1.2
					c-1.1,1.5-2.6,2.4-4.5,2.3c-1.2-0.1-1.5,0.4-1.3,1.4c0,0.3,0,0.6,0,0.8c0.2,1.2-0.3,1.7-1.6,1.6
					C422.8,178.4,420.8,178.5,418.9,178.5z"/>
			</g>
			<g>
				<path fill="#294D73" d="M430.1,159.2c0,1.3-1,2.4-2.3,2.5c-1.3,0.1-2.5-1.1-2.5-2.4c0-1.3,1.1-2.4,2.4-2.4
					C428.9,156.9,430.1,157.9,430.1,159.2z"/>
			</g>
			<g>
				<path fill="#F4F3F5" d="M428.7,159.3c-0.1,0.6-0.4,1-1,1c-0.6,0-1-0.4-1-1.1c0-0.6,0.4-0.9,1-0.9
					C428.3,158.4,428.6,158.8,428.7,159.3z"/>
			</g>
		</g>
		<g>
			<g>
				<g>
					<path fill="#1E4A72" d="M421.1,206.8c-2.6,0-4.7-2.1-4.7-4.7c0-2.6,2.1-4.7,4.7-4.7s4.7,2.1,4.7,4.7
						C425.8,204.7,423.7,206.8,421.1,206.8z M421.1,198.9c-1.8,0-3.2,1.4-3.2,3.2s1.4,3.2,3.2,3.2c1.8,0,3.2-1.4,3.2-3.2
						S422.9,198.9,421.1,198.9z"/>
				</g>
			</g>
			<g>
				<g>
					<path fill="#1E4A72" d="M421.3,226.7c-3.7,0-6.6-3-6.6-6.7v-5.2c0-3.1,0-7.4,6.6-7.4c2.5,0,4.3,0.5,5.3,1.6
						c1.4,1.4,1.3,3.3,1.3,5.2l0,5.9C428,223.7,425,226.7,421.3,226.7z M421.3,208.9c-5.1,0-5.1,2.6-5.1,5.9v5.2
						c0,2.8,2.3,5.1,5.1,5.1c2.8,0,5.1-2.3,5.1-5.1l0-5.9c0-1.6,0-3.2-0.9-4.1C424.8,209.3,423.4,208.9,421.3,208.9z"/>
				</g>
			</g>
			<g>
				<g>
					<path fill="#1E4A72" d="M433.7,204.7c-1.8,0-3.2-1.4-3.2-3.2c0-1.8,1.4-3.2,3.2-3.2c1.8,0,3.2,1.4,3.2,3.2
						C436.9,203.3,435.5,204.7,433.7,204.7z M433.7,199.7c-1,0-1.9,0.8-1.9,1.9c0,1,0.8,1.9,1.9,1.9c1,0,1.9-0.8,1.9-1.9
						C435.6,200.5,434.7,199.7,433.7,199.7z"/>
				</g>
			</g>
			<g>
				<g>
					<path fill="#1E4A72" d="M433.7,218c-2.4,0-4.4-2-4.4-4.4v-3.3c0-2.1,0-4.9,4.4-4.9c1.7,0,2.8,0.3,3.5,1.1
						c0.9,0.9,0.9,2.3,0.9,3.4l0,3.7C438.1,216,436.2,218,433.7,218z M433.7,206.7c-3.1,0-3.1,1.5-3.1,3.6v3.3
						c0,1.7,1.4,3.1,3.1,3.1c1.7,0,3.1-1.4,3.1-3.1l0-3.8c0-1,0-2-0.5-2.5C435.8,206.9,435,206.7,433.7,206.7z"/>
				</g>
			</g>
			<g>
				<g>
					<path fill="#1E4A72" d="M408.8,204.7c-1.8,0-3.2-1.4-3.2-3.2c0-1.8,1.4-3.2,3.2-3.2c1.8,0,3.2,1.4,3.2,3.2
						C412,203.3,410.6,204.7,408.8,204.7z M408.8,199.7c-1,0-1.9,0.8-1.9,1.9c0,1,0.8,1.9,1.9,1.9c1,0,1.8-0.8,1.8-1.9
						C410.7,200.5,409.9,199.7,408.8,199.7z"/>
				</g>
			</g>
			<g>
				<g>
					<path fill="#1E4A72" d="M408.8,218c-2.4,0-4.4-2-4.4-4.4v-3.3c0-2.1,0-4.9,4.4-4.9c1.7,0,2.8,0.3,3.5,1.1
						c0.9,0.9,0.9,2.3,0.9,3.4l0,3.7C413.3,216,411.3,218,408.8,218z M408.8,206.7c-3.1,0-3.1,1.5-3.1,3.6v3.3
						c0,1.7,1.4,3.1,3.1,3.1c1.7,0,3.1-1.4,3.1-3.1l0-3.8c0-1,0-2-0.5-2.5C411,206.9,410.1,206.7,408.8,206.7z"/>
				</g>
			</g>
		</g>
		<g>
			<g>
				<g>
					<path fill="#244B71" d="M408.2,138.7c1.3,0,2,0.5,2.3,1.3c0.3,0.7,0.1,1.4-0.4,1.8c-0.7,0.6-1.5,1.1-2.3,1.6
						c-8.1,5.1-11,12.6-10.2,21.9c0.9,9.5,6.2,15.3,14.8,18.5c4.8,1.8,9.9,2,14.8,3.3c12.5,3.2,19.9,11.3,21.6,23.3
						c0.1,0.9,0.2,1.9,0.2,2.8c-0.1,1.2-0.7,2.1-1.9,2.1c-1.3,0.1-1.9-0.7-2.1-1.9c-0.3-2.1-0.3-4.3-0.9-6.3
						c-3.1-10.6-11.3-14.9-21.3-16.8c-5.5-1-11-1.9-16-4.6c-9-4.8-13.1-12.6-13.3-22.5c-0.2-9.9,3.8-17.8,12.4-23.2
						C406.6,139.4,407.6,139,408.2,138.7z"/>
				</g>
			</g>
			<g>
				<g>
					<path fill="#244B71" d="M449.1,162.6c-0.3,9.6-3.8,17.4-12.3,22.4c-1.3,0.8-2.7,1.7-3.9,0c-1.2-1.8,0.3-2.7,1.6-3.4
						c9-5.4,11.4-13.6,10-23.4c-1.4-9.4-7.5-14.8-16-17.6c-3.9-1.3-8.1-1.7-12.1-2.6c-13.6-2.8-21.3-10.9-22.8-23.8
						c-0.1-0.9-0.2-1.9-0.1-2.8c0.1-1.2,0.8-2.1,2-2.1c1.3,0,1.8,0.9,2,2.1c0.3,2.1,0.3,4.3,0.8,6.3c2.5,9.8,9.8,14.1,18.9,16.2
						c4,0.9,8.2,1.4,12.1,2.6C441.8,140.4,449.1,150.2,449.1,162.6z"/>
				</g>
			</g>
			<g>
				<g>
					<path fill="#294D73" d="M449,113.3c-0.6,7.8-3.5,14.4-10,19.2c-1.1,0.8-2.4,1.5-3.5,0.1c-1.2-1.5-0.1-2.5,1-3.3
						c5.6-4.1,8-9.8,8.4-16.5c0.1-1.5,0-3.6,2.3-3.4C449.3,109.7,449.1,111.7,449,113.3z"/>
				</g>
			</g>
			<g>
				<g>
					<path fill="#2A4D73" d="M393.4,212.4c0.6-8,3.3-14,8.6-18.8c1.1-1,2.5-2,3.8-0.6c1.4,1.5,0.1,2.6-1.1,3.6
						c-4.5,4-6.7,9.1-7.2,15.1c-0.1,1.5,0.1,3.6-2.2,3.4C393.1,215,393.3,213.1,393.4,212.4z"/>
				</g>
			</g>
		</g>
		<g>
			<g>
				<path fill="#1E4A72" d="M421.2,236.7c-41.2,0-74.8-33.6-74.8-74.9c0-41.3,33.6-74.9,74.8-74.9c41.2,0,74.8,33.6,74.8,74.9
					C496,203.1,462.4,236.7,421.2,236.7z M421.2,92.1c-38.4,0-69.7,31.3-69.7,69.8s31.3,69.8,69.7,69.8c38.4,0,69.7-31.3,69.7-69.8
					C490.9,123.4,459.6,92.1,421.2,92.1z"/>
			</g>
		</g>
		<g>
			<g>
				<g>
					<path fill="#1E4A72" d="M413.2,113.4c-3,0-5.4-2.4-5.4-5.4s2.4-5.4,5.4-5.4c3,0,5.4,2.4,5.4,5.4S416.2,113.4,413.2,113.4z
						 M413.2,103.9c-2.2,0-4.1,1.8-4.1,4.1c0,2.2,1.8,4.1,4.1,4.1c2.2,0,4.1-1.8,4.1-4.1C417.3,105.7,415.5,103.9,413.2,103.9z"/>
				</g>
			</g>
			<g>
				<g>
					<path fill="#1E4A72" d="M423.5,113.4c-2.5,0-4.6-2.1-4.6-4.6c0-2.5,2.1-4.6,4.6-4.6c2.5,0,4.6,2.1,4.6,4.6
						C428.1,111.3,426.1,113.4,423.5,113.4z M423.5,105.5c-1.8,0-3.3,1.5-3.3,3.3c0,1.8,1.5,3.3,3.3,3.3c1.8,0,3.3-1.5,3.3-3.3
						C426.8,107,425.3,105.5,423.5,105.5z"/>
				</g>
			</g>
			<g>
				<g>
					<path fill="#1E4A72" d="M431.5,110.1c-1.9,0-3.5-1.5-3.5-3.5c0-1.9,1.5-3.5,3.5-3.5c1.9,0,3.5,1.6,3.5,3.5
						C434.9,108.5,433.4,110.1,431.5,110.1z M431.5,104.5c-1.2,0-2.1,0.9-2.1,2.1c0,1.2,0.9,2.1,2.1,2.1c1.2,0,2.1-0.9,2.1-2.1
						C433.6,105.4,432.6,104.5,431.5,104.5z"/>
				</g>
			</g>
			<g>
				<g>
					<path fill="#1E4A72" d="M420.1,120.1c-1.9,0-3.5-1.6-3.5-3.5c0-1.9,1.6-3.5,3.5-3.5c1.9,0,3.5,1.5,3.5,3.5
						C423.5,118.6,422,120.1,420.1,120.1z M420.1,114.6c-1.2,0-2.1,0.9-2.1,2.1c0,1.2,1,2.1,2.1,2.1c1.2,0,2.1-0.9,2.1-2.1
						C422.2,115.5,421.2,114.6,420.1,114.6z"/>
				</g>
			</g>
			<g>
				<g>
					<path fill="#1E4A72" d="M412.8,120.5c-1.9,0-3.5-1.6-3.5-3.5c0-1.9,1.5-3.5,3.5-3.5c1.9,0,3.5,1.6,3.5,3.5
						S414.7,120.5,412.8,120.5z M412.8,115c-1.2,0-2.1,0.9-2.1,2.1c0,1.2,0.9,2.1,2.1,2.1c1.2,0,2.1-1,2.1-2.1S414,115,412.8,115z"
						/>
				</g>
			</g>
			<g>
				<g>
					<path fill="#1E4A72" d="M425.8,104.1c-1.1,0-2-0.9-2-2s0.9-2,2-2c1.1,0,2,0.9,2,2C427.8,103.2,426.9,104.1,425.8,104.1z
						 M425.8,101.4c-0.4,0-0.6,0.3-0.6,0.6c0,0.4,0.3,0.6,0.6,0.6c0.4,0,0.6-0.3,0.6-0.6C426.5,101.7,426.2,101.4,425.8,101.4z"/>
				</g>
			</g>
			<g>
				<g>
					<path fill="#1E4A72" d="M423.9,123.2c-1.1,0-2-0.9-2-2c0-1.1,0.9-2,2-2c1.1,0,2,0.9,2,2C425.9,122.3,425,123.2,423.9,123.2z
						 M423.9,120.5c-0.4,0-0.6,0.3-0.6,0.6c0,0.4,0.3,0.6,0.6,0.6c0.4,0,0.6-0.3,0.6-0.6C424.5,120.8,424.2,120.5,423.9,120.5z"/>
				</g>
			</g>
			<g>
				<g>
					<path fill="#1E4A72" d="M408.8,124.5c-1.4,0-2.5-1.1-2.5-2.5s1.1-2.5,2.5-2.5c1.4,0,2.5,1.1,2.5,2.5
						C411.4,123.4,410.2,124.5,408.8,124.5z M408.8,120.8c-0.7,0-1.2,0.5-1.2,1.2c0,0.7,0.5,1.2,1.2,1.2c0.7,0,1.2-0.5,1.2-1.2
						C410,121.3,409.5,120.8,408.8,120.8z"/>
				</g>
			</g>
			<g>
				<g>
					<path fill="#1E4A72" d="M424.5,131c-1.5,0-2.8-1.3-2.8-2.8c0-1.5,1.3-2.8,2.8-2.8c1.5,0,2.8,1.3,2.8,2.8
						C427.3,129.8,426,131,424.5,131z M424.5,126.8c-0.8,0-1.5,0.7-1.5,1.5s0.7,1.5,1.5,1.5c0.8,0,1.5-0.7,1.5-1.5
						C426,127.4,425.3,126.8,424.5,126.8z"/>
				</g>
			</g>
			<g>
				<g>
					<path fill="#1E4A72" d="M429.6,128.4c-1.4,0-2.5-1.1-2.5-2.5s1.1-2.5,2.5-2.5c1.4,0,2.5,1.1,2.5,2.5
						C432.2,127.3,431,128.4,429.6,128.4z M429.6,124.7c-0.7,0-1.2,0.5-1.2,1.2c0,0.7,0.5,1.2,1.2,1.2c0.7,0,1.2-0.5,1.2-1.2
						C430.8,125.2,430.3,124.7,429.6,124.7z"/>
				</g>
			</g>
			<g>
				<g>
					<path fill="#1E4A72" d="M406.9,116.4c-1.2,0-2.1-1-2.1-2.1c0-1.2,1-2.1,2.1-2.1c1.2,0,2.1,1,2.1,2.1
						C409.1,115.5,408.1,116.4,406.9,116.4z M406.9,113.5c-0.4,0-0.8,0.4-0.8,0.8c0,0.4,0.4,0.8,0.8,0.8c0.4,0,0.8-0.4,0.8-0.8
						C407.7,113.8,407.4,113.5,406.9,113.5z"/>
				</g>
			</g>
			<g>
				<g>
					<path fill="#1E4A72" d="M418,103.7c-1.9,0-3.5-1.6-3.5-3.5c0-1.9,1.6-3.5,3.5-3.5c1.9,0,3.5,1.5,3.5,3.5
						C421.4,102.1,419.9,103.7,418,103.7z M418,98.1c-1.2,0-2.1,0.9-2.1,2.1c0,1.2,1,2.1,2.1,2.1c1.2,0,2.1-0.9,2.1-2.1
						C420.1,99,419.1,98.1,418,98.1z"/>
				</g>
			</g>
			<g>
				<g>
					<path fill="#1E4A72" d="M416.9,129.8c-2.6,0-4.7-2.1-4.7-4.7c0-2.6,2.1-4.7,4.7-4.7c2.6,0,4.7,2.1,4.7,4.7
						C421.6,127.7,419.5,129.8,416.9,129.8z M416.9,121.6c-1.9,0-3.4,1.5-3.4,3.4s1.5,3.4,3.4,3.4c1.9,0,3.4-1.5,3.4-3.4
						C420.3,123.2,418.8,121.6,416.9,121.6z"/>
				</g>
			</g>
			<g>
				<g>
					<path fill="#1E4A72" d="M431.5,123c-3.5,0-6.4-2.9-6.4-6.4c0-3.5,2.9-6.4,6.4-6.4c3.5,0,6.4,2.9,6.4,6.4
						C437.9,120.2,435,123,431.5,123z M431.5,111.6c-2.8,0-5,2.3-5,5c0,2.8,2.3,5,5,5c2.8,0,5-2.3,5-5
						C436.5,113.9,434.3,111.6,431.5,111.6z"/>
				</g>
			</g>
		</g>
	</g>
	<g>
		<g>
			<g>
				<g>
					<path fill="#1E4A72" d="M121.7,329v3c0.1,0,0.3,0,0.5,0v-3.8c0-0.1-0.1-0.2-0.2-0.2c-0.1,0-0.2,0-0.3,0.1l-1.1,1.7
						c-0.1,0.1,0,0.2,0.1,0.3c0.1,0.1,0.2,0,0.3-0.1L121.7,329z"/>
				</g>
			</g>
			<g>
				<g>
					<path fill="#1E4A72" d="M123.2,325.7h-1v-4.5c0-0.1-0.1-0.2-0.2-0.2c-0.1,0-0.2,0-0.3,0.1l-1.1,1.7c-0.1,0.1,0,0.3,0.1,0.3
						c0.1,0.1,0.2,0,0.3-0.1l0.7-1.1v3.7h-1.3c-0.1,0-0.2,0.1-0.2,0.2c0,0.1,0.1,0.2,0.2,0.2h2.8c0.1,0,0.2-0.1,0.2-0.2
						C123.4,325.8,123.3,325.7,123.2,325.7z"/>
				</g>
			</g>
			<g>
				<g>
					<path fill="#1E4A72" d="M121.9,299.7c-0.7,0-1.2,0.5-1.4,1.1c0.2,0,0.3,0,0.5,0.1c0.1-0.4,0.5-0.7,0.9-0.7c0.6,0,1,0.4,1,1v2.3
						c0,0.4-0.3,0.8-0.7,0.9c0,0,0,0.1,0.1,0.1c0.1,0.1,0.1,0.2,0.1,0.3c0.6-0.2,1-0.7,1-1.4v-2.3
						C123.4,300.4,122.7,299.7,121.9,299.7z"/>
				</g>
			</g>
			<g>
				<g>
					<path fill="#1E4A72" d="M121.9,313.9c-0.8,0-1.5,0.7-1.5,1.5v2.3c0,0.8,0.7,1.5,1.5,1.5s1.5-0.7,1.5-1.5v-2.3
						C123.4,314.5,122.7,313.9,121.9,313.9z M122.9,317.6c0,0.6-0.4,1-1,1s-1-0.4-1-1v-2.3c0-0.6,0.4-1,1-1s1,0.4,1,1V317.6z"/>
				</g>
			</g>
			<g>
				<g>
					<path fill="#1E4A72" d="M128.6,332.8h-1v-4.5c0-0.1-0.1-0.2-0.2-0.2c-0.1,0-0.2,0-0.3,0.1l-1.1,1.7c-0.1,0.1,0,0.2,0.1,0.3
						c0.1,0.1,0.2,0,0.3-0.1l0.7-1.1v3.7h-1.3c-0.1,0-0.2,0.1-0.2,0.2c0,0.1,0.1,0.2,0.2,0.2h2.8c0.1,0,0.2-0.1,0.2-0.2
						C128.8,332.9,128.7,332.8,128.6,332.8z"/>
				</g>
			</g>
			<g>
				<g>
					<path fill="#1E4A72" d="M128.6,325.7h-1v-4.5c0-0.1-0.1-0.2-0.2-0.2c-0.1,0-0.2,0-0.3,0.1l-1.1,1.7c-0.1,0.1,0,0.3,0.1,0.3
						c0.1,0.1,0.2,0,0.3-0.1l0.7-1.1v3.7h-1.3c-0.1,0-0.2,0.1-0.2,0.2c0,0.1,0.1,0.2,0.2,0.2h2.8c0.1,0,0.2-0.1,0.2-0.2
						C128.8,325.8,128.7,325.7,128.6,325.7z"/>
				</g>
			</g>
			<g>
				<g>
					<path fill="#1E4A72" d="M128.6,304.4h-1v-4.5c0-0.1-0.1-0.2-0.2-0.2c-0.1,0-0.2,0-0.3,0.1l-1.1,1.7c-0.1,0.1,0,0.2,0.1,0.3
						c0.1,0.1,0.2,0,0.3-0.1l0.7-1.1v3.7h-1.3c-0.1,0-0.2,0.1-0.2,0.2c0,0.1,0.1,0.2,0.2,0.2h2.8c0.1,0,0.2-0.1,0.2-0.2
						C128.8,304.5,128.7,304.4,128.6,304.4z"/>
				</g>
			</g>
			<g>
				<g>
					<path fill="#1E4A72" d="M128.6,311.6h-1v-2.4c-0.2,0-0.3,0-0.5,0v2.4h-1.3c-0.1,0-0.2,0.1-0.2,0.2c0,0.1,0.1,0.2,0.2,0.2h2.8
						c0.1,0,0.2-0.1,0.2-0.2C128.8,311.7,128.7,311.6,128.6,311.6z"/>
				</g>
			</g>
			<g>
				<g>
					<path fill="#1E4A72" d="M128.6,297.3h-1v-4.1c-0.3,0-0.5,0-0.8,0l-0.8,1.2c-0.1,0.1,0,0.2,0.1,0.3c0.1,0.1,0.2,0,0.3-0.1
						l0.7-1.1v3.7h-1.3c-0.1,0-0.2,0.1-0.2,0.2c0,0.1,0.1,0.2,0.2,0.2h2.8c0.1,0,0.2-0.1,0.2-0.2
						C128.8,297.4,128.7,297.3,128.6,297.3z"/>
				</g>
			</g>
			<g>
				<g>
					<path fill="#1E4A72" d="M127.3,313.9c-0.8,0-1.5,0.7-1.5,1.5v2.3c0,0.8,0.7,1.5,1.5,1.5c0.8,0,1.5-0.7,1.5-1.5v-2.3
						C128.8,314.5,128.1,313.9,127.3,313.9z M128.3,317.6c0,0.6-0.4,1-1,1s-1-0.4-1-1v-2.3c0-0.6,0.4-1,1-1s1,0.4,1,1V317.6z"/>
				</g>
			</g>
			<g>
				<g>
					<path fill="#1E4A72" d="M134.3,325.7h-1v-4.5c0-0.1-0.1-0.2-0.2-0.2c-0.1,0-0.2,0-0.3,0.1l-1.1,1.7c-0.1,0.1,0,0.3,0.1,0.3
						c0.1,0.1,0.2,0,0.3-0.1l0.7-1.1v3.7h-1.3c-0.1,0-0.2,0.1-0.2,0.2c0,0.1,0.1,0.2,0.2,0.2h2.8c0.1,0,0.2-0.1,0.2-0.2
						C134.6,325.8,134.4,325.7,134.3,325.7z"/>
				</g>
			</g>
			<g>
				<g>
					<path fill="#1E4A72" d="M132.1,301.7l0.7-1.1v3.7c0-0.1,0.1-0.2,0.2-0.2c0.1-0.1,0.2-0.2,0.3-0.3v-4c0-0.1-0.1-0.2-0.2-0.2
						c-0.1,0-0.2,0-0.3,0.1l-1.1,1.7c-0.1,0.1,0,0.2,0.1,0.3C131.9,301.9,132.1,301.9,132.1,301.7z"/>
				</g>
			</g>
			<g>
				<g>
					<path fill="#1E4A72" d="M134.3,311.6h-1v-2.2c-0.2,0-0.3,0-0.5,0v2.2h-1.3c-0.1,0-0.2,0.1-0.2,0.2c0,0.1,0.1,0.2,0.2,0.2h2.8
						c0.1,0,0.2-0.1,0.2-0.2C134.6,311.7,134.4,311.6,134.3,311.6z"/>
				</g>
			</g>
			<g>
				<g>
					<path fill="#1E4A72" d="M134.3,318.6h-1v-4.5c0-0.1-0.1-0.2-0.2-0.2c-0.1,0-0.2,0-0.3,0.1l-1.1,1.7c-0.1,0.1,0,0.2,0.1,0.3
						c0.1,0.1,0.2,0,0.3-0.1l0.7-1.1v3.7h-1.3c-0.1,0-0.2,0.1-0.2,0.2c0,0.1,0.1,0.2,0.2,0.2h2.8c0.1,0,0.2-0.1,0.2-0.2
						C134.6,318.7,134.4,318.6,134.3,318.6z"/>
				</g>
			</g>
			<g>
				<g>
					<path fill="#1E4A72" d="M132.1,332.9c0.1-0.1,0.2-0.3,0.3-0.4c-0.2-0.2-0.3-0.4-0.3-0.7v-2.3c0-0.6,0.5-1,1-1c0.6,0,1,0.4,1,1
						v2.1c0.2-0.2,0.3-0.3,0.4-0.5c0,0,0,0,0,0v-1.6c0-0.8-0.7-1.5-1.5-1.5c-0.8,0-1.5,0.7-1.5,1.5v2.3
						C131.6,332.2,131.8,332.6,132.1,332.9z"/>
				</g>
			</g>
		</g>
		<g>
			<g>
				<path fill="#1E4A72" d="M127.5,307.6c-4,0-7.2-3.2-7.2-7.2c0-4,3.2-7.2,7.2-7.2s7.2,3.2,7.2,7.2
					C134.8,304.3,131.5,307.6,127.5,307.6z M127.5,295.2c-2.8,0-5.1,2.3-5.1,5.1c0,2.8,2.3,5.1,5.1,5.1c2.8,0,5.1-2.3,5.1-5.1
					C132.7,297.5,130.4,295.2,127.5,295.2z"/>
			</g>
			<g>
				<path fill="#1E4A72" d="M127.8,334.7c-5,0-9.1-4.1-9.1-9.1v-7.1c0-4.3,0-10.1,9.1-10.1c3.4,0,5.8,0.7,7.2,2.2
					c1.9,1.9,1.8,4.5,1.8,7.1l0,8C136.9,330.6,132.8,334.7,127.8,334.7z M127.8,310.4c-7,0-7,3.5-7,8v7.1c0,3.8,3.1,7,7,7
					c3.8,0,7-3.1,7-7l0-8c0-2.2,0-4.3-1.2-5.6C132.6,310.9,130.7,310.4,127.8,310.4z"/>
			</g>
		</g>
		<g>
			<path fill="#1E4A72" d="M127.7,345c-17,0-30.8-13.8-30.8-30.9s13.8-30.9,30.8-30.9s30.8,13.8,30.8,30.9S144.7,345,127.7,345z
				 M127.7,285.4c-15.8,0-28.7,12.9-28.7,28.7s12.9,28.7,28.7,28.7s28.7-12.9,28.7-28.7C156.4,298.3,143.6,285.4,127.7,285.4z"/>
		</g>
	</g>
	<g>
		<g>
			<g>
				<path fill="#1E4A72" d="M275.4,346c-17,0-30.8-13.8-30.8-30.8c0-17,13.8-30.8,30.8-30.8s30.8,13.8,30.8,30.8
					C306.3,332.2,292.4,346,275.4,346z M275.4,286.4c-15.8,0-28.7,12.9-28.7,28.7c0,15.8,12.9,28.7,28.7,28.7
					c15.8,0,28.7-12.9,28.7-28.7C304.2,299.3,291.3,286.4,275.4,286.4z"/>
			</g>
		</g>
		<g>
			<g>
				<g>
					<path fill="#1E4A72" d="M275.4,311.2c-2.5,0-4.5-2-4.5-4.5c0-2.5,2-4.5,4.5-4.5c2.5,0,4.5,2,4.5,4.5
						C279.9,309.2,277.9,311.2,275.4,311.2z M275.4,304.3c-1.3,0-2.4,1.1-2.4,2.4c0,1.3,1.1,2.4,2.4,2.4c1.3,0,2.4-1.1,2.4-2.4
						C277.8,305.4,276.8,304.3,275.4,304.3z"/>
				</g>
			</g>
			<g>
				<g>
					<path fill="#1E4A72" d="M275.6,326.3c-3,0-5.5-2.5-5.5-5.5v-4c0-2.4,0-6.1,5.5-6.1c2,0,3.5,0.4,4.4,1.4
						c1.2,1.2,1.2,2.8,1.1,4.3l0,4.5C281.1,323.8,278.6,326.3,275.6,326.3z M275.6,312.8c-3.4,0-3.4,1.5-3.4,4v4
						c0,1.9,1.5,3.4,3.4,3.4c1.9,0,3.4-1.5,3.4-3.4l0-4.5c0-1.2,0-2.2-0.5-2.8C278,313,277,312.8,275.6,312.8z"/>
				</g>
			</g>
		</g>
		<g>
			<g>
				<path fill="#1E4A72" d="M291.2,297.9h-6.2c-0.5,0-0.9,0.4-0.9,0.9v9.1c0,0.5,0.4,0.9,0.9,0.9h6.2c0.5,0,0.9-0.4,0.9-0.9v-9.1
					C292.1,298.3,291.7,297.9,291.2,297.9z M288,308.6c-0.1,0-0.2-0.1-0.2-0.2c0-0.1,0.1-0.2,0.2-0.2c0.1,0,0.2,0.1,0.2,0.2
					C288.3,308.5,288.2,308.6,288,308.6z M291.6,307.9h-7.1v-9h7.1V307.9z"/>
			</g>
		</g>
		<g>
			<g>
				<path fill="#1E4A72" d="M280,330.9h-9.1c-0.5,0-0.9,0.4-0.9,0.9v6.2c0,0.5,0.4,0.9,0.9,0.9h9.1c0.5,0,0.9-0.4,0.9-0.9v-6.2
					C280.9,331.3,280.5,330.9,280,330.9z M279.8,332.8l-4.1,3.6c-0.1,0-0.1,0.1-0.2,0.1c-0.1,0-0.1,0-0.2-0.1l-4.3-3.6
					c-0.1-0.1-0.1-0.3,0-0.4c0.1-0.1,0.3-0.1,0.4,0l4.1,3.4l3.9-3.4c0.1-0.1,0.3-0.1,0.4,0C280,332.5,279.9,332.7,279.8,332.8z"/>
			</g>
		</g>
		<g>
			<g>
				<path fill="#1E4A72" d="M266.5,298.7h-9.1c-0.5,0-0.9,0.4-0.9,0.9v6.2c0,0.5,0.4,0.9,0.9,0.9h1l0.7,2.1l1-2.1h6.4
					c0.5,0,0.9-0.4,0.9-0.9v-6.2C267.5,299.2,267.1,298.7,266.5,298.7z"/>
			</g>
		</g>
		<g>
			<g>
				<path fill="#1E4A72" d="M268.2,334.9c-0.1,0-0.2,0-0.3-0.1c-7.8-3.1-12.9-10.6-12.9-19c0-2.1,0.3-4.2,1-6.2
					c0.1-0.4,0.6-0.6,1-0.5c0.4,0.1,0.6,0.6,0.5,1c-0.6,1.8-0.9,3.8-0.9,5.7c0,7.8,4.7,14.7,11.9,17.5c0.4,0.2,0.6,0.6,0.4,1
					C268.8,334.7,268.5,334.9,268.2,334.9z"/>
			</g>
		</g>
		<g>
			<g>
				<path fill="#1E4A72" d="M282.7,334.9c-0.3,0-0.6-0.2-0.7-0.5c-0.2-0.4,0-0.9,0.4-1c7.2-2.9,11.8-9.8,11.8-17.5
					c0-2.5-0.5-4.9-1.4-7.2c-0.2-0.4,0-0.9,0.4-1c0.4-0.2,0.9,0,1,0.4c1,2.5,1.5,5.1,1.5,7.8c0,8.4-5,15.9-12.8,19
					C282.9,334.9,282.8,334.9,282.7,334.9z"/>
			</g>
		</g>
		<g>
			<g>
				<path fill="#1E4A72" d="M267.6,297.8c-0.3,0-0.6-0.2-0.7-0.5c-0.2-0.4,0-0.9,0.4-1.1c2.7-1.3,5.7-2,8.7-2c2.6,0,5.1,0.5,7.5,1.4
					c0.4,0.2,0.6,0.6,0.4,1c-0.2,0.4-0.6,0.6-1,0.4c-2.2-0.9-4.5-1.3-6.9-1.3c-2.8,0-5.5,0.6-8,1.8
					C267.9,297.8,267.8,297.8,267.6,297.8z"/>
			</g>
		</g>
	</g>
	<g>
		<g>
			<g>
				<g>
					<path fill="#2B4D73" d="M424.2,294.4c0.2-0.1,2.9,2.3,4.2,3.6c0.5,0.5,1.1,1,1.8,0.3c0.6-0.7,0.1-1.2-0.4-1.6
						c-1.9-1.9-3.7-3.7-5.6-5.6c-0.7-0.8-1.3-0.8-2.1,0c-1.8,1.8-3.6,3.6-5.4,5.4c-0.5,0.5-1.2,1-0.5,1.8c0.8,0.8,1.4,0.1,1.9-0.4
						c1.2-1.3,3.9-3.7,4.1-3.5c0,0.7,0,1.4,0,2.1c0,13,0,26,0,39c0,0.6,0,1.2,0,1.7c0,0.6,0.3,1,0.9,1.1c0.7,0,1-0.5,1.1-1.1
						c0-0.5,0-1,0-1.5c0-12,0-24.1,0-36.1C424.2,297.7,424.2,296,424.2,294.4z"/>
				</g>
			</g>
			<g>
				<g>
					<path fill="#244B71" d="M439.7,300c-0.5-0.5-1.1-1.1-1.8-0.4c-0.7,0.7-0.1,1.3,0.4,1.8c1.3,1.3,2.6,2.6,4.3,4.2
						c-2-0.1-2.5-0.2-3.6-0.2c-7.7,0.1-12.1,4.4-12.1,12.1c0,6.1,0,12.3,0,18.4c0,0.4,0,0.9,0,1.3c0,0.5,0.3,0.8,0.8,0.9
						c0.5,0,0.9-0.3,1-0.7c0.1-0.5,0.1-1,0.1-1.5c0-6.2,0-12.4,0-18.6c0-6.8,4.5-11,13.2-9.3c-1.3,1.2-2.4,2.4-3.6,3.5
						c-0.6,0.5-1.2,1.1-0.5,1.9c0.7,0.7,1.3,0,1.8-0.5c1.8-1.7,3.5-3.5,5.3-5.2c0.8-0.8,1-1.4,0.1-2.2
						C443.3,303.6,441.5,301.8,439.7,300z"/>
				</g>
			</g>
			<g>
				<g>
					<path fill="#244B71" d="M419.4,326.1c-0.3-4.5-3.3-7.8-7.6-9c-2.3-0.6-7.2-0.6-7.8-0.6c1.4-1.4,2.8-2.7,4.1-4
						c0.5-0.5,1.1-1.1,0.5-1.8c-0.6-0.7-1.3-0.2-1.8,0.3c-1.9,1.8-3.7,3.7-5.6,5.5c-0.8,0.8-0.6,1.4,0.1,2.1
						c1.8,1.7,3.5,3.5,5.3,5.2c0.5,0.5,1.2,1.3,1.9,0.4c0.7-0.8-0.1-1.4-0.6-1.9c-1.2-1.1-2.4-2.3-3.9-3.8c2,0,3.4,0,4.7,0
						c5.6,0.2,8.8,3.5,8.9,9.1c0,2.9,0,5.9,0,8.8c0,0.8,0.2,1.5,1.1,1.5c0.9,0,0.9-0.8,0.9-1.4C419.5,333.1,419.6,329.6,419.4,326.1
						z"/>
				</g>
			</g>
		</g>
		<g>
			<g>
				<path fill="#1E4A72" d="M423.1,344.9c-17,0-30.8-13.8-30.8-30.9c0-17,13.8-30.9,30.8-30.9c17,0,30.8,13.8,30.8,30.9
					C454,331.1,440.1,344.9,423.1,344.9z M423.1,285.3c-15.8,0-28.7,12.9-28.7,28.7c0,15.8,12.9,28.7,28.7,28.7
					c15.8,0,28.7-12.9,28.7-28.7C451.9,298.2,439,285.3,423.1,285.3z"/>
			</g>
		</g>
	</g>
	<g>
		<g>
			<g>
				<path fill="#1E4A72" d="M587.4,319.2c0-0.4-0.3-0.8-0.7-1c-0.1,0-1.7-0.7-2.3-3.1c-0.1-0.3-0.1-0.8-0.2-1.3
					c-0.1-0.9-0.2-2.1-0.5-3.3c-0.1-0.5-0.7-0.9-1.2-0.8l-17.9,3l15.9-10.1c0.5-0.3,0.6-1,0.3-1.5c-2.5-4-6.9-6.4-11.7-6.4
					c-2.6,0-5.2,0.7-7.4,2.2c-3.1,2-5.3,5.1-6.1,8.7c-0.8,3.6-0.2,7.3,1.8,10.4c0.5,4.4,2.6,8.6,5,9.9c0.3,4.8,0,7,0,7
					c0,0.3,0.1,0.6,0.3,0.8c0.2,0.2,0.5,0.4,0.8,0.4h11.9c0.3,0,0.6-0.1,0.8-0.4c0.2-0.2,0.3-0.6,0.2-0.9c-0.3-1.3-0.4-2.9-0.2-3.6
					c0.1,0,0.2,0,0.5,0c0.7,0,1.6,0.1,2.5,0.3c1.8,0.3,3.6,0.5,4.6,0.1c2.2-0.8,1.7-4.6,0.8-8.3c0.1,0,0.1,0,0.2,0
					C585.6,321.1,587.4,320.8,587.4,319.2z"/>
			</g>
		</g>
		<g>
			<g>
				<path fill="#1E4A72" d="M570.8,345.7c-17,0-30.8-13.8-30.8-30.8c0-17,13.8-30.8,30.8-30.8c17,0,30.8,13.8,30.8,30.8
					C601.7,331.9,587.8,345.7,570.8,345.7z M570.8,286.1c-15.8,0-28.7,12.9-28.7,28.7c0,15.8,12.9,28.7,28.7,28.7
					s28.7-12.9,28.7-28.7C599.6,299,586.7,286.1,570.8,286.1z"/>
			</g>
		</g>
		<g>
			<g>
				<g>
					<path fill="#1E4A72" d="M578.2,309.4c-0.1,0-0.2,0-0.3-0.1c-0.4-0.2-0.6-0.6-0.4-1c2.1-4.9,7.6-7.5,12.9-6.1
						c0.4,0.1,0.7,0.5,0.6,1c-0.1,0.4-0.5,0.7-1,0.6c-4.6-1.2-9.3,1.1-11.1,5.2C578.8,309.2,578.5,309.4,578.2,309.4z"/>
				</g>
			</g>
			<g>
				<g>
					<g>
						<polygon fill="#1E4A72" points="588,299.4 589.7,302.8 586.3,304.5 588.5,305.2 591.9,303.5 590.2,300.1 						"/>
					</g>
				</g>
			</g>
		</g>
	</g>
	<g>
		<g>
			<g>
				<path fill="#1E4A72" d="M718.5,348.1c-17,0-30.8-13.8-30.8-30.8c0-17,13.8-30.8,30.8-30.8s30.8,13.8,30.8,30.8
					C749.4,334.2,735.5,348.1,718.5,348.1z M718.5,288.5c-15.8,0-28.7,12.9-28.7,28.7c0,15.8,12.9,28.7,28.7,28.7
					s28.7-12.9,28.7-28.7C747.3,301.4,734.4,288.5,718.5,288.5z"/>
			</g>
		</g>
		<g>
			<g>
				<g>
					<path fill="#1E4A72" d="M708.4,309.7h-1v-4.5c0-0.1-0.1-0.2-0.2-0.2c-0.1,0-0.2,0-0.3,0.1l-1.1,1.7c-0.1,0.1,0,0.2,0.1,0.3
						c0.1,0.1,0.2,0,0.3-0.1l0.7-1.1v3.7h-1.3c-0.1,0-0.2,0.1-0.2,0.2c0,0.1,0.1,0.2,0.2,0.2h2.8c0.1,0,0.2-0.1,0.2-0.2
						C708.7,309.8,708.6,309.7,708.4,309.7z"/>
				</g>
			</g>
		</g>
		<g>
			<g>
				<g>
					<path fill="#1E4A72" d="M707.2,312c-0.8,0-1.5,0.7-1.5,1.5v2.3c0,0.8,0.7,1.5,1.5,1.5c0.8,0,1.5-0.7,1.5-1.5v-2.3
						C708.7,312.7,708,312,707.2,312z M708.2,315.8c0,0.6-0.4,1-1,1c-0.6,0-1-0.4-1-1v-2.3c0-0.6,0.4-1,1-1c0.6,0,1,0.4,1,1V315.8z"
						/>
				</g>
			</g>
		</g>
		<g>
			<g>
				<g>
					<path fill="#1E4A72" d="M707.2,319.1c-0.8,0-1.5,0.7-1.5,1.5v2.3c0,0.8,0.7,1.5,1.5,1.5c0.8,0,1.5-0.7,1.5-1.5v-2.3
						C708.7,319.8,708,319.1,707.2,319.1z M708.2,322.9c0,0.6-0.4,1-1,1c-0.6,0-1-0.4-1-1v-2.3c0-0.6,0.4-1,1-1c0.5,0,1,0.4,1,1
						V322.9z"/>
				</g>
			</g>
		</g>
		<g>
			<g>
				<g>
					<path fill="#1E4A72" d="M707.2,326.2c-0.8,0-1.5,0.7-1.5,1.5v2.3c0,0.8,0.7,1.5,1.5,1.5c0.8,0,1.5-0.7,1.5-1.5v-2.3
						C708.7,326.8,708,326.2,707.2,326.2z M708.2,329.9c0,0.6-0.4,1-1,1c-0.5,0-1-0.4-1-1v-2.3c0-0.5,0.5-1,1-1c0.6,0,1,0.5,1,1
						V329.9z"/>
				</g>
			</g>
		</g>
		<g>
			<g>
				<g>
					<path fill="#1E4A72" d="M713.7,330.9h-1v-4.5c0-0.1-0.1-0.2-0.2-0.2c-0.1,0-0.2,0-0.3,0.1l-1.1,1.7c-0.1,0.1,0,0.3,0.1,0.3
						c0.1,0.1,0.2,0,0.3-0.1l0.7-1.1v3.7H711c-0.1,0-0.2,0.1-0.2,0.2c0,0.1,0.1,0.2,0.2,0.2h2.8c0.1,0,0.2-0.1,0.2-0.2
						C714,331,713.9,330.9,713.7,330.9z"/>
				</g>
			</g>
		</g>
		<g>
			<g>
				<g>
					<path fill="#1E4A72" d="M712.5,305c-0.8,0-1.5,0.7-1.5,1.5v2.3c0,0.8,0.7,1.5,1.5,1.5c0.8,0,1.5-0.7,1.5-1.5v-2.3
						C714,305.6,713.3,305,712.5,305z M713.5,308.7c0,0.6-0.4,1-1,1c-0.5,0-1-0.4-1-1v-2.3c0-0.6,0.5-1,1-1c0.6,0,1,0.4,1,1V308.7z"
						/>
				</g>
			</g>
		</g>
		<g>
			<g>
				<g>
					<path fill="#1E4A72" d="M729.3,305c-0.8,0-1.5,0.7-1.5,1.5v2.3c0,0.8,0.7,1.5,1.5,1.5c0.8,0,1.5-0.7,1.5-1.5v-2.3
						C730.8,305.6,730.1,305,729.3,305z M730.3,308.7c0,0.6-0.4,1-1,1c-0.6,0-1-0.4-1-1v-2.3c0-0.6,0.4-1,1-1c0.6,0,1,0.4,1,1V308.7
						z"/>
				</g>
			</g>
		</g>
		<g>
			<g>
				<g>
					<path fill="#1E4A72" d="M735.5,305c-0.8,0-1.5,0.7-1.5,1.5v2.3c0,0.8,0.7,1.5,1.5,1.5c0.8,0,1.5-0.7,1.5-1.5v-2.3
						C736.9,305.6,736.3,305,735.5,305z M736.5,308.7c0,0.6-0.4,1-1,1s-1-0.4-1-1v-2.3c0-0.6,0.4-1,1-1s1,0.4,1,1V308.7z"/>
				</g>
			</g>
		</g>
		<g>
			<g>
				<g>
					<path fill="#1E4A72" d="M701.7,305c-0.8,0-1.5,0.7-1.5,1.5v2.3c0,0.8,0.7,1.5,1.5,1.5c0.8,0,1.5-0.7,1.5-1.5v-2.3
						C703.2,305.6,702.5,305,701.7,305z M702.7,308.7c0,0.6-0.4,1-1,1c-0.5,0-1-0.4-1-1v-2.3c0-0.6,0.4-1,1-1c0.6,0,1,0.4,1,1V308.7
						z"/>
				</g>
			</g>
		</g>
		<g>
			<g>
				<g>
					<path fill="#1E4A72" d="M712.5,312c-0.8,0-1.5,0.7-1.5,1.5v2.3c0,0.8,0.7,1.5,1.5,1.5s1.5-0.7,1.5-1.5v-2.3
						C713.9,312.7,713.3,312,712.5,312z M713.5,315.8c0,0.6-0.4,1-1,1c-0.6,0-1-0.4-1-1v-2.3c0-0.6,0.4-1,1-1c0.5,0,1,0.4,1,1V315.8
						z"/>
				</g>
			</g>
		</g>
		<g>
			<g>
				<g>
					<path fill="#1E4A72" d="M712.5,319.1c-0.8,0-1.5,0.7-1.5,1.5v2.3c0,0.8,0.7,1.5,1.5,1.5c0.8,0,1.5-0.7,1.5-1.5v-2.3
						C713.9,319.8,713.3,319.1,712.5,319.1z M713.5,322.9c0,0.6-0.4,1-1,1c-0.5,0-1-0.4-1-1v-2.3c0-0.6,0.4-1,1-1c0.6,0,1,0.4,1,1
						V322.9z"/>
				</g>
			</g>
		</g>
		<g>
			<g>
				<g>
					<path fill="#1E4A72" d="M719.2,330.9h-1v-4.5c0-0.1-0.1-0.2-0.2-0.2c-0.1,0-0.2,0-0.3,0.1l-1.1,1.7c-0.1,0.1,0,0.3,0.1,0.3
						c0.1,0.1,0.2,0,0.3-0.1l0.7-1.1v3.7h-1.3c-0.1,0-0.2,0.1-0.2,0.2c0,0.1,0.1,0.2,0.2,0.2h2.8c0.1,0,0.2-0.1,0.2-0.2
						C719.4,331,719.3,330.9,719.2,330.9z"/>
				</g>
			</g>
		</g>
		<g>
			<g>
				<g>
					<path fill="#1E4A72" d="M719.2,309.6h-1v-4.5c0-0.1-0.1-0.2-0.2-0.2c-0.1,0-0.2,0-0.3,0.1l-1.1,1.7c-0.1,0.1,0,0.2,0.1,0.3
						c0.1,0.1,0.2,0,0.3-0.1l0.7-1.1v3.7h-1.3c-0.1,0-0.2,0.1-0.2,0.2c0,0.1,0.1,0.2,0.2,0.2h2.8c0.1,0,0.2-0.1,0.2-0.2
						C719.4,309.7,719.3,309.6,719.2,309.6z"/>
				</g>
			</g>
		</g>
		<g>
			<g>
				<g>
					<path fill="#1E4A72" d="M719.2,316.8h-1v-4.5c0-0.1-0.1-0.2-0.2-0.2c-0.1,0-0.2,0-0.3,0.1l-1.1,1.7c-0.1,0.1,0,0.2,0.1,0.3
						c0.1,0.1,0.2,0,0.3-0.1l0.7-1.1v3.7h-1.3c-0.1,0-0.2,0.1-0.2,0.2c0,0.1,0.1,0.2,0.2,0.2h2.8c0.1,0,0.2-0.1,0.2-0.2
						C719.4,316.9,719.3,316.8,719.2,316.8z"/>
				</g>
			</g>
		</g>
		<g>
			<g>
				<g>
					<path fill="#1E4A72" d="M717.9,319.1c-0.8,0-1.5,0.7-1.5,1.5v2.3c0,0.8,0.7,1.5,1.5,1.5c0.8,0,1.5-0.7,1.5-1.5v-2.3
						C719.4,319.8,718.7,319.1,717.9,319.1z M718.9,322.9c0,0.6-0.4,1-1,1c-0.5,0-1-0.4-1-1v-2.3c0-0.6,0.5-1,1-1c0.6,0,1,0.4,1,1
						V322.9z"/>
				</g>
			</g>
		</g>
		<g>
			<g>
				<g>
					<path fill="#1E4A72" d="M729.2,319.1c-0.8,0-1.5,0.7-1.5,1.5v2.3c0,0.8,0.7,1.5,1.5,1.5c0.8,0,1.5-0.7,1.5-1.5v-2.3
						C730.6,319.8,730,319.1,729.2,319.1z M730.2,322.9c0,0.6-0.4,1-1,1c-0.5,0-1-0.4-1-1v-2.3c0-0.6,0.5-1,1-1c0.6,0,1,0.4,1,1
						V322.9z"/>
				</g>
			</g>
		</g>
		<g>
			<g>
				<g>
					<path fill="#1E4A72" d="M729.2,326.2c-0.8,0-1.5,0.7-1.5,1.5v2.3c0,0.8,0.7,1.5,1.5,1.5c0.8,0,1.5-0.7,1.5-1.5v-2.3
						C730.6,326.8,730,326.2,729.2,326.2z M730.2,329.9c0,0.6-0.4,1-1,1c-0.5,0-1-0.4-1-1v-2.3c0-0.5,0.5-1,1-1c0.6,0,1,0.5,1,1
						V329.9z"/>
				</g>
			</g>
		</g>
		<g>
			<g>
				<g>
					<path fill="#1E4A72" d="M724.9,330.9h-1v-4.5c0-0.1-0.1-0.2-0.2-0.2c-0.1,0-0.2,0-0.3,0.1l-1.1,1.7c-0.1,0.1,0,0.3,0.1,0.3
						c0.1,0.1,0.2,0,0.3-0.1l0.7-1.1v3.7h-1.3c-0.1,0-0.2,0.1-0.2,0.2c0,0.1,0.1,0.2,0.2,0.2h2.8c0.1,0,0.2-0.1,0.2-0.2
						C725.1,331,725,330.9,724.9,330.9z"/>
				</g>
			</g>
		</g>
		<g>
			<g>
				<g>
					<path fill="#1E4A72" d="M724.9,309.6h-1v-4.5c0-0.1-0.1-0.2-0.2-0.2c-0.1,0-0.2,0-0.3,0.1l-1.1,1.7c-0.1,0.1,0,0.2,0.1,0.3
						c0.1,0.1,0.2,0,0.3-0.1l0.7-1.1v3.7h-1.3c-0.1,0-0.2,0.1-0.2,0.2c0,0.1,0.1,0.2,0.2,0.2h2.8c0.1,0,0.2-0.1,0.2-0.2
						C725.1,309.7,725,309.6,724.9,309.6z"/>
				</g>
			</g>
		</g>
		<g>
			<g>
				<g>
					<path fill="#1E4A72" d="M724.9,316.8h-1v-4.5c0-0.1-0.1-0.2-0.2-0.2c-0.1,0-0.2,0-0.3,0.1l-1.1,1.7c-0.1,0.1,0,0.2,0.1,0.3
						c0.1,0.1,0.2,0,0.3-0.1l0.7-1.1v3.7h-1.3c-0.1,0-0.2,0.1-0.2,0.2c0,0.1,0.1,0.2,0.2,0.2h2.8c0.1,0,0.2-0.1,0.2-0.2
						C725.1,316.9,725,316.8,724.9,316.8z"/>
				</g>
			</g>
		</g>
		<g>
			<g>
				<g>
					<path fill="#1E4A72" d="M724.9,323.9h-1v-4.5c0-0.1-0.1-0.2-0.2-0.2c-0.1,0-0.2,0-0.3,0.1l-1.1,1.7c-0.1,0.1,0,0.2,0.1,0.3
						c0.1,0.1,0.2,0,0.3-0.1l0.7-1.1v3.7h-1.3c-0.1,0-0.2,0.1-0.2,0.2c0,0.1,0.1,0.2,0.2,0.2h2.8c0.1,0,0.2-0.1,0.2-0.2
						C725.1,324,725,323.9,724.9,323.9z"/>
				</g>
			</g>
		</g>
		<g>
			<g>
				<g>
					<path fill="#1E4A72" d="M730.6,316.8h-1v-4.5c0-0.1-0.1-0.2-0.2-0.2c-0.1,0-0.2,0-0.3,0.1l-1.1,1.7c-0.1,0.1,0,0.2,0.1,0.3
						c0.1,0.1,0.2,0,0.3-0.1l0.7-1.1v3.7h-1.3c-0.1,0-0.2,0.1-0.2,0.2c0,0.1,0.1,0.2,0.2,0.2h2.8c0.1,0,0.2-0.1,0.2-0.2
						C730.8,316.9,730.7,316.8,730.6,316.8z"/>
				</g>
			</g>
		</g>
		<g>
			<g>
				<g>
					<path fill="#1E4A72" d="M735.4,312c-0.8,0-1.5,0.7-1.5,1.5v2.3c0,0.8,0.7,1.5,1.5,1.5c0.8,0,1.5-0.7,1.5-1.5v-2.3
						C736.8,312.7,736.2,312,735.4,312z M736.4,315.8c0,0.6-0.4,1-1,1c-0.5,0-1-0.4-1-1v-2.3c0-0.6,0.4-1,1-1c0.5,0,1,0.4,1,1V315.8
						z"/>
				</g>
			</g>
		</g>
		<g>
			<g>
				<g>
					<path fill="#1E4A72" d="M735.4,326.2c-0.8,0-1.5,0.7-1.5,1.5v2.3c0,0.8,0.7,1.5,1.5,1.5c0.8,0,1.5-0.7,1.5-1.5v-2.3
						C736.8,326.8,736.2,326.2,735.4,326.2z M736.4,329.9c0,0.6-0.4,1-1,1c-0.5,0-1-0.4-1-1v-2.3c0-0.5,0.4-1,1-1c0.5,0,1,0.5,1,1
						V329.9z"/>
				</g>
			</g>
		</g>
		<g>
			<g>
				<g>
					<path fill="#1E4A72" d="M736.8,323.9h-1v-4.5c0-0.1-0.1-0.2-0.2-0.2c-0.1,0-0.2,0-0.3,0.1l-1.1,1.7c-0.1,0.1,0,0.2,0.1,0.3
						c0.1,0.1,0.2,0,0.3-0.1l0.7-1.1v3.7H734c-0.1,0-0.2,0.1-0.2,0.2c0,0.1,0.1,0.2,0.2,0.2h2.8c0.1,0,0.2-0.1,0.2-0.2
						C737,324,736.9,323.9,736.8,323.9z"/>
				</g>
			</g>
		</g>
		<g>
			<g>
				<g>
					<path fill="#1E4A72" d="M701.3,319.1c-0.8,0-1.5,0.7-1.5,1.5v2.3c0,0.8,0.7,1.5,1.5,1.5c0.8,0,1.5-0.7,1.5-1.5v-2.3
						C702.8,319.8,702.1,319.1,701.3,319.1z M702.3,322.9c0,0.6-0.4,1-1,1c-0.5,0-1-0.4-1-1v-2.3c0-0.6,0.4-1,1-1c0.5,0,1,0.4,1,1
						V322.9z"/>
				</g>
			</g>
		</g>
		<g>
			<g>
				<g>
					<path fill="#1E4A72" d="M702.7,316.8h-1v-4.5c0-0.1-0.1-0.2-0.2-0.2c-0.1,0-0.2,0-0.3,0.1l-1.1,1.7c-0.1,0.1,0,0.2,0.1,0.3
						c0.1,0.1,0.2,0,0.3-0.1l0.7-1.1v3.7h-1.3c-0.1,0-0.2,0.1-0.2,0.2c0,0.1,0.1,0.2,0.2,0.2h2.8c0.1,0,0.2-0.1,0.2-0.2
						C702.9,316.9,702.8,316.8,702.7,316.8z"/>
				</g>
			</g>
		</g>
		<g>
			<g>
				<g>
					<path fill="#1E4A72" d="M702.7,330.9h-1v-4.5c0-0.1-0.1-0.2-0.2-0.2c-0.1,0-0.2,0-0.3,0.1l-1.1,1.7c-0.1,0.1,0,0.2,0.1,0.3
						c0.1,0.1,0.2,0,0.3-0.1l0.7-1.1v3.7h-1.3c-0.1,0-0.2,0.1-0.2,0.2c0,0.1,0.1,0.2,0.2,0.2h2.8c0.1,0,0.2-0.1,0.2-0.2
						C702.9,331,702.8,330.9,702.7,330.9z"/>
				</g>
			</g>
		</g>
	</g>
	<g>
		<polygon fill="#1E4A72" points="130.8,279.5 129.7,278.3 247.6,160.1 350.8,160.1 350.8,161.7 248.3,161.7 		"/>
	</g>
	<g>
		<path fill="#1E4A72" d="M285.8,279.5l-1.1-1.1l76.4-76.5l0,0l1.1,0c0.3,0.3,0.4,0.4-0.1,1.1l0.1,0.1l-0.1-0.1
			c-0.4,0.6-1.4,1.5-3.2,3.3L285.8,279.5z"/>
	</g>
	<g>
		<rect x="420.9" y="234.1" fill="#1E4A72" width="1.6" height="46.7"/>
	</g>
	<g>
		
			<rect x="465.9" y="241.4" transform="matrix(0.7068 0.7075 -0.7075 0.7068 323.9723 -297.2915)" fill="#1E4A72" width="109.3" height="1.6"/>
	</g>
	<g>
		<polygon fill="#1E4A72" points="714.5,282.6 595,160.1 493,160.1 493,158.5 595.6,158.5 715.6,281.5 		"/>
	</g>
</g>
<g>
	<g>
		<path fill="#FFBE02" d="M99.5,381.1h-4l-0.3-1.8h-2.6l-0.3,1.8h-4l3.5-14.4h4.8L99.5,381.1z M94.7,376.2l-0.3-1.7c0,0,0-0.1,0-0.3
			c0-0.1-0.1-0.7-0.2-1.6c0-0.1,0-0.3,0-0.4c0-0.2,0-0.4-0.1-0.7l-0.1-1.4c0,0.1,0,0.3-0.1,0.4c0,0.2,0,0.3-0.1,0.5
			c0,0.4-0.1,0.7-0.1,0.8c0,0.2,0,0.2,0,0.3l-0.3,1.7l-0.4,2.3L94.7,376.2L94.7,376.2z"/>
		<path fill="#FFBE02" d="M108.2,366.7h3.9v10c0,0.8-0.1,1.5-0.4,2c-0.3,0.5-0.7,1-1.3,1.5c-0.8,0.6-1.8,0.9-3,0.9
			c-1.3,0-2.4-0.3-3.3-1c-1.1-0.8-1.7-2.1-1.7-4v-9.5h3.9v9.2c0,0.6,0.1,1.1,0.2,1.3c0.2,0.3,0.4,0.4,0.8,0.4c0.4,0,0.6-0.1,0.8-0.4
			c0.1-0.3,0.2-0.7,0.2-1.3L108.2,366.7L108.2,366.7z"/>
		<path fill="#FFBE02" d="M116.1,381.1v-14.4h3.4c1.9,0,3.4,0.5,4.5,1.5c1.4,1.4,2.1,3.2,2.1,5.7c0,2.4-0.6,4.2-1.8,5.5
			c-1,1.1-2.5,1.7-4.5,1.7H116.1z M120,377.6c1.4-0.1,2.1-1.3,2.1-3.6c0-1.2-0.2-2.1-0.5-2.7c-0.4-0.7-0.8-1-1.4-1H120
			C120,370.3,120,377.6,120,377.6z"/>
		<path fill="#FFBE02" d="M133.6,381.1h-3.9v-14.4h3.9V381.1z"/>
		<path fill="#FFBE02" d="M137.6,381.1v-14.4h7.2v3.5h-3.3v1.8h3v3.5h-3v2.2h3.3v3.5L137.6,381.1L137.6,381.1z"/>
		<path fill="#FFBE02" d="M148.7,381.1v-14.4h3.7l1.9,5.1c0.1,0.3,0.2,0.6,0.4,1c0.1,0.4,0.3,0.8,0.4,1.3l0.4,1.3
			c-0.1-1.3-0.3-2.3-0.3-3.2c-0.1-0.9-0.1-1.6-0.1-2.2v-3.2h3.7v14.4h-3.7l-2.1-5.3c-0.2-0.6-0.4-1.1-0.6-1.6
			c-0.2-0.5-0.3-1-0.5-1.4c0.2,1,0.3,1.9,0.3,2.7c0.1,0.8,0.1,1.4,0.1,2v3.7L148.7,381.1L148.7,381.1z"/>
		<path fill="#FFBE02" d="M170.9,376.7l-0.2,3.9c-0.9,0.3-1.6,0.5-2.3,0.5c-1.6,0-3-0.6-4.1-1.7c-1.2-1.3-1.8-3.1-1.8-5.4
			c0-2.2,0.6-4,1.7-5.3c1.2-1.3,2.7-2,4.6-2c0.6,0,1.3,0.1,1.9,0.3v4c-0.6-0.6-1.2-0.9-1.8-0.9c-0.8,0-1.4,0.3-1.9,1
			c-0.4,0.7-0.7,1.6-0.7,2.8c0,0.6,0.1,1.1,0.2,1.6c0.1,0.5,0.3,0.8,0.5,1.2c0.2,0.3,0.5,0.6,0.8,0.7c0.3,0.2,0.7,0.3,1,0.3
			C169.6,377.6,170.2,377.3,170.9,376.7z"/>
		<path fill="#FFBE02" d="M174.5,381.1v-14.4h7.2v3.5h-3.3v1.8h3v3.5h-3v2.2h3.3v3.5L174.5,381.1L174.5,381.1z"/>
	</g>
	<g>
		<path fill="#FFBE02" d="M129.1,404h-4.2l-2.6-6.6l0.1,6.6h-3.9v-14.4h3.9l-0.1,6.2l2.3-6.2h4.1l-3.1,7L129.1,404z"/>
		<path fill="#FFBE02" d="M132.2,404v-14.4h7.2v3.5H136v1.8h3v3.5h-3v2.2h3.3v3.5L132.2,404L132.2,404z"/>
		<path fill="#FFBE02" d="M149.7,404h-3.9v-6.1l-3.6-8.3h4.1l0.7,2.1c0.1,0.4,0.3,0.8,0.4,1.2c0.1,0.4,0.2,0.8,0.3,1.1
			c0.1-0.5,0.3-1,0.4-1.4c0.1-0.4,0.2-0.7,0.3-0.9l0.7-2.2h4l-3.3,8.3L149.7,404L149.7,404z"/>
	</g>
</g>
<g>
	<g>
		<path fill="#FFBE02" d="M266.1,381.1h-3.9l-0.2-6.6l-0.1-2.6c0,0.5-0.1,1-0.2,1.4s-0.1,0.9-0.2,1.3l-1.3,6.4H257l-1-6.4
			c-0.1-0.4-0.1-1-0.3-1.9c0-0.1,0-0.4-0.1-0.8l-0.1,2.7l-0.3,6.5h-4.1l1.7-14.4h4.8l0.8,4.9c0.1,0.4,0.1,0.8,0.2,1.3
			c0.1,0.5,0.1,1,0.1,1.5c0.1-0.9,0.2-1.7,0.3-2.5l1-5.2h4.7L266.1,381.1z"/>
		<path fill="#FFBE02" d="M269.9,381.1v-14.4h7.2v3.5h-3.3v1.8h3v3.5h-3v2.2h3.3v3.5L269.9,381.1L269.9,381.1z"/>
		<path fill="#FFBE02" d="M280.9,381.1v-14.4h3.4c1.9,0,3.4,0.5,4.5,1.5c1.4,1.4,2.1,3.2,2.1,5.7c0,2.4-0.6,4.2-1.8,5.5
			c-1,1.1-2.5,1.7-4.5,1.7H280.9z M284.8,377.6c1.4-0.1,2.1-1.3,2.1-3.6c0-1.2-0.2-2.1-0.5-2.7c-0.4-0.7-0.8-1-1.4-1h-0.1
			L284.8,377.6L284.8,377.6z"/>
		<path fill="#FFBE02" d="M298.4,381.1h-3.9v-14.4h3.9V381.1z"/>
		<path fill="#FFBE02" d="M312.7,381.1h-4l-0.3-1.8h-2.6l-0.3,1.8h-4l3.5-14.4h4.8L312.7,381.1z M308,376.2l-0.3-1.7
			c0,0,0-0.1,0-0.3c0-0.1-0.1-0.7-0.2-1.6c0-0.1,0-0.3,0-0.4c0-0.2,0-0.4-0.1-0.7l-0.1-1.4c0,0.1,0,0.3-0.1,0.4c0,0.2,0,0.3-0.1,0.5
			c0,0.4-0.1,0.7-0.1,0.8c0,0.2,0,0.2,0,0.3l-0.3,1.7l-0.4,2.3L308,376.2L308,376.2z"/>
	</g>
	<g>
		<path fill="#FFBE02" d="M275.5,404h-4.2l-2.6-6.6l0.1,6.6h-3.9v-14.4h3.9l-0.1,6.2l2.3-6.2h4.1l-3.1,7L275.5,404z"/>
		<path fill="#FFBE02" d="M278.5,404v-14.4h7.2v3.5h-3.3v1.8h3v3.5h-3v2.2h3.3v3.5L278.5,404L278.5,404z"/>
		<path fill="#FFBE02" d="M296.1,404h-3.9v-6.1l-3.6-8.3h4.1l0.7,2.1c0.1,0.4,0.3,0.8,0.4,1.2c0.1,0.4,0.2,0.8,0.3,1.1
			c0.1-0.5,0.3-1,0.4-1.4c0.1-0.4,0.2-0.7,0.3-0.9l0.7-2.2h4l-3.3,8.3L296.1,404L296.1,404z"/>
	</g>
</g>
<g>
	<g>
		<path fill="#FFBE02" d="M382.6,380.5v-4.4c0.8,1,1.6,1.6,2.5,1.6c0.3,0,0.6-0.1,0.8-0.3c0.2-0.2,0.3-0.4,0.3-0.6
			c0-0.4-0.2-0.7-0.7-1.1l-0.6-0.5c-0.4-0.3-0.8-0.6-1.1-0.9s-0.5-0.6-0.7-0.9c-0.2-0.3-0.3-0.7-0.4-1c-0.1-0.3-0.1-0.7-0.1-1.1
			c0-0.6,0.2-1.3,0.5-2c0.2-0.3,0.3-0.6,0.5-0.9c0.2-0.3,0.4-0.5,0.7-0.7c0.7-0.6,1.6-0.9,2.7-0.9c0.9,0,1.9,0.2,2.8,0.7v4.3
			c-0.3-0.5-0.7-0.9-1.1-1.2c-0.4-0.3-0.8-0.4-1.2-0.4c-0.3,0-0.5,0.1-0.7,0.3c-0.2,0.2-0.3,0.4-0.3,0.6c0,0.4,0.3,0.7,0.8,1.1
			l0.6,0.4c0.8,0.6,1.4,1.2,1.8,1.8c0.4,0.6,0.5,1.3,0.5,2.1c0,1.4-0.4,2.5-1.3,3.4c-0.9,0.9-2,1.3-3.3,1.3
			C384.6,381.1,383.7,380.9,382.6,380.5z"/>
		<path fill="#FFBE02" d="M398.7,381.1h-3.9v-11h-2.1v-3.5h8.3v3.5h-2.2L398.7,381.1L398.7,381.1z"/>
		<path fill="#FFBE02" d="M414.2,381.1H410l-1.9-5.1c0-0.1-0.1-0.2-0.1-0.3c0-0.1-0.1-0.3-0.2-0.5l0,1v5H404v-14.4h4
			c1.8,0,3.1,0.3,3.9,1c1.1,0.9,1.7,2.1,1.7,3.8c0,1.7-0.7,2.9-2.2,3.6L414.2,381.1z M407.9,373.1h0.3c0.4,0,0.8-0.2,1.1-0.5
			c0.3-0.3,0.4-0.8,0.4-1.3c0-1.1-0.6-1.6-1.7-1.6h-0.1L407.9,373.1L407.9,373.1z"/>
		<path fill="#FFBE02" d="M428.2,381.1h-4l-0.3-1.8h-2.6l-0.3,1.8h-4l3.5-14.4h4.8L428.2,381.1z M423.4,376.2l-0.3-1.7
			c0,0,0-0.1,0-0.3c0-0.1-0.1-0.7-0.2-1.6c0-0.1,0-0.3,0-0.4c0-0.2,0-0.4-0.1-0.7l-0.1-1.4c0,0.1,0,0.3-0.1,0.4s0,0.3-0.1,0.5
			c0,0.4-0.1,0.7-0.1,0.8c0,0.2,0,0.2,0,0.3l-0.3,1.7l-0.4,2.3H423.4z"/>
		<path fill="#FFBE02" d="M435.8,381.1h-3.9v-11h-2.1v-3.5h8.3v3.5h-2.2L435.8,381.1L435.8,381.1z"/>
		<path fill="#FFBE02" d="M441,381.1v-14.4h7.2v3.5h-3.3v1.8h3v3.5h-3v2.2h3.3v3.5L441,381.1L441,381.1z"/>
		<path fill="#FFBE02" d="M456.9,372.7h5.4v0.6c0,2.7-0.4,4.6-1.2,5.8c-0.9,1.3-2.2,1.9-4,1.9c-1.7,0-3.1-0.6-4.1-1.9
			c-1-1.3-1.5-3-1.5-5.2c0-2.3,0.5-4,1.5-5.3c1-1.3,2.3-1.9,4.1-1.9c2.3,0,3.9,1.2,5,3.5l-3.8,1.4c-0.1-0.5-0.2-0.8-0.4-1.1
			c-0.2-0.3-0.5-0.4-0.8-0.4c-1.1,0-1.6,1.4-1.6,4.1c0,1.2,0.1,2,0.4,2.6c0.2,0.5,0.6,0.8,1.1,0.8c0.2,0,0.4,0,0.6-0.1
			s0.3-0.2,0.4-0.4c0.1-0.2,0.2-0.4,0.3-0.6c0.1-0.2,0.1-0.5,0.1-0.8h-1.4L456.9,372.7L456.9,372.7z"/>
		<path fill="#FFBE02" d="M471.8,381.1h-3.9V375l-3.6-8.3h4.1l0.7,2.1c0.1,0.4,0.3,0.8,0.4,1.2c0.1,0.4,0.2,0.8,0.3,1.1
			c0.1-0.5,0.3-1,0.4-1.4c0.1-0.4,0.2-0.7,0.3-0.9l0.7-2.2h4l-3.3,8.3L471.8,381.1L471.8,381.1z"/>
	</g>
	<g>
		<path fill="#FFBE02" d="M422.4,404h-4.2l-2.6-6.6l0.1,6.6h-3.9v-14.4h3.9l-0.1,6.2l2.3-6.2h4.1l-3.1,7L422.4,404z"/>
		<path fill="#FFBE02" d="M425.4,404v-14.4h7.2v3.5h-3.3v1.8h3v3.5h-3v2.2h3.3v3.5L425.4,404L425.4,404z"/>
		<path fill="#FFBE02" d="M443,404h-3.9v-6.1l-3.6-8.3h4.1l0.7,2.1c0.1,0.4,0.3,0.8,0.4,1.2c0.1,0.4,0.2,0.8,0.3,1.1
			c0.1-0.5,0.3-1,0.4-1.4c0.1-0.4,0.2-0.7,0.3-0.9l0.7-2.2h4l-3.3,8.3L443,404L443,404z"/>
	</g>
</g>
<g>
	<g>
		<path fill="#FFBE02" d="M537,381.1h-3.9v-14.4h3.8c1.9,0,3.3,0.4,4.2,1.1c1.1,0.9,1.6,2.2,1.6,3.8c0,1.7-0.6,3.1-1.7,3.9
			c-0.8,0.6-1.9,0.9-3.3,0.9H537L537,381.1L537,381.1z M537,373.3l0.2,0c0.5,0,0.8-0.1,1.1-0.4c0.3-0.3,0.4-0.7,0.4-1.2
			c0-0.5-0.1-0.9-0.4-1.2c-0.3-0.3-0.6-0.5-1-0.5H537L537,373.3L537,373.3z"/>
		<path fill="#FFBE02" d="M556.1,381.1h-4.2l-1.9-5.1c0-0.1-0.1-0.2-0.1-0.3c0-0.1-0.1-0.3-0.2-0.5l0,1v5h-3.9v-14.4h4
			c1.8,0,3.1,0.3,3.9,1c1.1,0.9,1.7,2.1,1.7,3.8c0,1.7-0.7,2.9-2.2,3.6L556.1,381.1z M549.8,373.1h0.3c0.4,0,0.8-0.2,1.1-0.5
			c0.3-0.3,0.4-0.8,0.4-1.3c0-1.1-0.6-1.6-1.7-1.6h-0.1V373.1z"/>
		<path fill="#FFBE02" d="M569.7,373.9c0,2.1-0.5,3.8-1.5,5.2c-1,1.3-2.3,2-3.9,2c-1.4,0-2.6-0.5-3.6-1.5c-1.3-1.3-1.9-3.2-1.9-5.8
			c0-2.5,0.7-4.3,2-5.7c1-1,2.2-1.5,3.5-1.5c1.7,0,3,0.7,4,2C569.2,369.9,569.7,371.7,569.7,373.9z M565.6,373.9
			c0-2.6-0.5-3.8-1.4-3.8c-0.5,0-0.8,0.3-1.1,1c-0.3,0.6-0.4,1.5-0.4,2.7c0,1.2,0.1,2.1,0.4,2.8c0.3,0.7,0.6,1,1,1
			c0.5,0,0.8-0.3,1.1-1C565.5,376,565.6,375.1,565.6,373.9z"/>
		<path fill="#FFBE02" d="M573.3,381.1v-14.4h3.4c1.9,0,3.4,0.5,4.5,1.5c1.4,1.4,2.1,3.2,2.1,5.7c0,2.4-0.6,4.2-1.8,5.5
			c-1,1.1-2.5,1.7-4.5,1.7H573.3z M577.2,377.6c1.4-0.1,2.1-1.3,2.1-3.6c0-1.2-0.2-2.1-0.5-2.7c-0.4-0.7-0.8-1-1.4-1h-0.1V377.6z"/>
		<path fill="#FFBE02" d="M592.7,366.7h3.9v10c0,0.8-0.1,1.5-0.4,2c-0.3,0.5-0.7,1-1.3,1.5c-0.8,0.6-1.8,0.9-3,0.9
			c-1.3,0-2.4-0.3-3.3-1c-1.1-0.8-1.7-2.1-1.7-4v-9.5h3.9v9.2c0,0.6,0.1,1.1,0.2,1.3c0.2,0.3,0.4,0.4,0.8,0.4c0.4,0,0.6-0.1,0.8-0.4
			c0.1-0.3,0.2-0.7,0.2-1.3L592.7,366.7L592.7,366.7z"/>
		<path fill="#FFBE02" d="M608.5,376.7l-0.2,3.9c-0.9,0.3-1.6,0.5-2.3,0.5c-1.6,0-3-0.6-4.1-1.7c-1.2-1.3-1.8-3.1-1.8-5.4
			c0-2.2,0.6-4,1.7-5.3c1.2-1.3,2.7-2,4.6-2c0.6,0,1.3,0.1,1.9,0.3v4c-0.6-0.6-1.2-0.9-1.8-0.9c-0.8,0-1.4,0.3-1.9,1
			c-0.4,0.7-0.7,1.6-0.7,2.8c0,0.6,0.1,1.1,0.2,1.6c0.1,0.5,0.3,0.8,0.5,1.2c0.2,0.3,0.5,0.6,0.8,0.7c0.3,0.2,0.7,0.3,1,0.3
			C607.2,377.6,607.8,377.3,608.5,376.7z"/>
		<path fill="#FFBE02" d="M617.2,381.1h-3.9v-11h-2.1v-3.5h8.3v3.5h-2.2L617.2,381.1L617.2,381.1z"/>
	</g>
	<g>
		<path fill="#FFBE02" d="M540.2,399.6l-0.2,3.9c-0.9,0.3-1.6,0.5-2.3,0.5c-1.6,0-3-0.6-4.1-1.7c-1.2-1.3-1.8-3.1-1.8-5.4
			c0-2.2,0.6-4,1.7-5.3c1.2-1.3,2.7-2,4.6-2c0.6,0,1.3,0.1,1.9,0.3v4c-0.6-0.6-1.2-0.9-1.8-0.9c-0.8,0-1.4,0.3-1.9,1
			c-0.4,0.7-0.7,1.6-0.7,2.8c0,0.6,0.1,1.1,0.2,1.6c0.1,0.5,0.3,0.8,0.5,1.2c0.2,0.3,0.5,0.6,0.8,0.7c0.3,0.2,0.7,0.3,1,0.3
			C538.9,400.6,539.5,400.3,540.2,399.6z"/>
		<path fill="#FFBE02" d="M554.1,404h-4.2l-1.9-5.1c0-0.1-0.1-0.2-0.1-0.3c0-0.1-0.1-0.3-0.2-0.5l0,1v5h-3.9v-14.4h4
			c1.8,0,3.1,0.3,3.9,1c1.1,0.9,1.7,2.1,1.7,3.8c0,1.7-0.7,2.9-2.2,3.6L554.1,404z M547.7,396.1h0.3c0.4,0,0.8-0.2,1.1-0.5
			c0.3-0.3,0.4-0.8,0.4-1.3c0-1.1-0.6-1.6-1.7-1.6h-0.1V396.1z"/>
		<path fill="#FFBE02" d="M557.2,404v-14.4h7.2v3.5h-3.3v1.8h3v3.5h-3v2.2h3.3v3.5L557.2,404L557.2,404z"/>
		<path fill="#FFBE02" d="M578.6,404h-4l-0.3-1.8h-2.6l-0.3,1.8h-4l3.5-14.4h4.8L578.6,404z M573.8,399.2l-0.3-1.7c0,0,0-0.1,0-0.3
			c0-0.1-0.1-0.7-0.2-1.6c0-0.1,0-0.3,0-0.4c0-0.2,0-0.4-0.1-0.7l-0.1-1.4c0,0.1,0,0.3-0.1,0.4c0,0.2,0,0.3-0.1,0.5
			c0,0.4-0.1,0.7-0.1,0.8c0,0.2,0,0.2,0,0.3l-0.3,1.7l-0.4,2.3H573.8z"/>
		<path fill="#FFBE02" d="M586.2,404h-3.9v-11h-2.1v-3.5h8.3v3.5h-2.2L586.2,404L586.2,404z"/>
		<path fill="#FFBE02" d="M595.4,404h-3.9v-14.4h3.9V404z"/>
		<path fill="#FFBE02" d="M605.6,404h-4l-3.3-14.4h4.1l0.7,4.1c0.3,1.6,0.5,3.3,0.6,5.3c0.1-0.9,0.2-1.7,0.3-2.4
			c0.1-0.8,0.2-1.5,0.4-2.2l0.9-4.8h4.2L605.6,404z"/>
		<path fill="#FFBE02" d="M612.6,404v-14.4h7.2v3.5h-3.3v1.8h3v3.5h-3v2.2h3.3v3.5L612.6,404L612.6,404z"/>
	</g>
	<g>
		<path fill="#FFBE02" d="M569.6,427h-4.2l-2.6-6.6l0.1,6.6H559v-14.4h3.9l-0.1,6.2l2.3-6.2h4.1l-3.1,7L569.6,427z"/>
		<path fill="#FFBE02" d="M572.7,427v-14.4h7.2v3.5h-3.3v1.8h3v3.5h-3v2.2h3.3v3.5L572.7,427L572.7,427z"/>
		<path fill="#FFBE02" d="M590.2,427h-3.9v-6.1l-3.6-8.3h4.1l0.7,2.1c0.1,0.4,0.3,0.8,0.4,1.2c0.1,0.4,0.2,0.8,0.3,1.1
			c0.1-0.5,0.3-1,0.4-1.4c0.1-0.4,0.2-0.7,0.3-0.9l0.7-2.2h4l-3.3,8.3L590.2,427L590.2,427z"/>
	</g>
</g>
<g>
	<g>
		<path fill="#FFBE02" d="M672.1,381.1h-3.9v-14.4h3.8c1.9,0,3.3,0.4,4.2,1.1c1.1,0.9,1.6,2.2,1.6,3.8c0,1.7-0.6,3.1-1.7,3.9
			c-0.8,0.6-1.9,0.9-3.3,0.9h-0.6L672.1,381.1L672.1,381.1z M672.1,373.3l0.2,0c0.5,0,0.8-0.1,1.1-0.4c0.3-0.3,0.4-0.7,0.4-1.2
			c0-0.5-0.1-0.9-0.4-1.2c-0.3-0.3-0.6-0.5-1-0.5h-0.3V373.3z"/>
		<path fill="#FFBE02" d="M691.2,381.1H687l-1.9-5.1c0-0.1-0.1-0.2-0.1-0.3c0-0.1-0.1-0.3-0.2-0.5l0,1v5h-3.9v-14.4h4
			c1.8,0,3.1,0.3,3.9,1c1.1,0.9,1.7,2.1,1.7,3.8c0,1.7-0.7,2.9-2.2,3.6L691.2,381.1z M684.8,373.1h0.3c0.4,0,0.8-0.2,1.1-0.5
			s0.4-0.8,0.4-1.3c0-1.1-0.6-1.6-1.7-1.6h-0.1L684.8,373.1L684.8,373.1z"/>
		<path fill="#FFBE02" d="M694.3,381.1v-14.4h7.2v3.5h-3.3v1.8h3v3.5h-3v2.2h3.3v3.5L694.3,381.1L694.3,381.1z"/>
		<path fill="#FFBE02" d="M705.4,381.1v-14.4h3.4c1.9,0,3.4,0.5,4.5,1.5c1.4,1.4,2.1,3.2,2.1,5.7c0,2.4-0.6,4.2-1.8,5.5
			c-1,1.1-2.5,1.7-4.5,1.7H705.4z M709.3,377.6c1.4-0.1,2.1-1.3,2.1-3.6c0-1.2-0.2-2.1-0.5-2.7c-0.4-0.7-0.8-1-1.4-1h-0.1
			L709.3,377.6L709.3,377.6z"/>
		<path fill="#FFBE02" d="M722.9,381.1H719v-14.4h3.9V381.1z"/>
		<path fill="#FFBE02" d="M734.9,376.7l-0.2,3.9c-0.9,0.3-1.6,0.5-2.3,0.5c-1.6,0-3-0.6-4.1-1.7c-1.2-1.3-1.8-3.1-1.8-5.4
			c0-2.2,0.6-4,1.7-5.3c1.2-1.3,2.7-2,4.6-2c0.6,0,1.3,0.1,1.9,0.3v4c-0.6-0.6-1.2-0.9-1.8-0.9c-0.8,0-1.4,0.3-1.9,1
			c-0.4,0.7-0.7,1.6-0.7,2.8c0,0.6,0.1,1.1,0.2,1.6c0.1,0.5,0.3,0.8,0.5,1.2c0.2,0.3,0.5,0.6,0.8,0.7c0.3,0.2,0.7,0.3,1,0.3
			C733.6,377.6,734.3,377.3,734.9,376.7z"/>
		<path fill="#FFBE02" d="M743.6,381.1h-3.9v-11h-2.1v-3.5h8.3v3.5h-2.2L743.6,381.1L743.6,381.1z"/>
		<path fill="#FFBE02" d="M752.8,381.1h-3.9v-14.4h3.9V381.1z"/>
		<path fill="#FFBE02" d="M763,381.1h-4l-3.3-14.4h4.1l0.7,4.1c0.3,1.6,0.5,3.3,0.6,5.3c0.1-0.9,0.2-1.7,0.3-2.4
			c0.1-0.8,0.2-1.5,0.4-2.2l0.9-4.8h4.2L763,381.1z"/>
		<path fill="#FFBE02" d="M770,381.1v-14.4h7.2v3.5h-3.3v1.8h3v3.5h-3v2.2h3.3v3.5L770,381.1L770,381.1z"/>
	</g>
	<g>
		<path fill="#FFBE02" d="M716.4,404h-4.2l-2.6-6.6l0.1,6.6h-3.9v-14.4h3.9l-0.1,6.2l2.3-6.2h4.1l-3.1,7L716.4,404z"/>
		<path fill="#FFBE02" d="M719.4,404v-14.4h7.2v3.5h-3.3v1.8h3v3.5h-3v2.2h3.3v3.5L719.4,404L719.4,404z"/>
		<path fill="#FFBE02" d="M737,404h-3.9v-6.1l-3.6-8.3h4.1l0.7,2.1c0.1,0.4,0.3,0.8,0.4,1.2c0.1,0.4,0.2,0.8,0.3,1.1
			c0.1-0.5,0.3-1,0.4-1.4c0.1-0.4,0.2-0.7,0.3-0.9l0.7-2.2h4l-3.3,8.3L737,404L737,404z"/>
	</g>
</g>
</svg>
