<?xml version="1.0" encoding="utf-8"?>
<!-- Generator: Adobe Illustrator 18.0.0, SVG Export Plug-In . SVG Version: 6.00 Build 0)  -->
<!DOCTYPE svg PUBLIC "-//W3C//DTD SVG 1.1//EN" "http://www.w3.org/Graphics/SVG/1.1/DTD/svg11.dtd">
<svg version="1.1" id="Layer_1" xmlns="http://www.w3.org/2000/svg" xmlns:xlink="http://www.w3.org/1999/xlink" x="0px" y="0px"
	 width="60px" height="17px" viewBox="-532.4 10.8 60 17" enable-background="new -532.4 10.8 60 17" xml:space="preserve">
<g>
	<g>
		<path id="linkedin-circle-icon_8_" fill="#284C6F" d="M-480.9,10.8c-4.7,0-8.5,3.8-8.5,8.5c0,4.7,3.8,8.5,8.5,8.5
			c4.7,0,8.5-3.8,8.5-8.5C-472.4,14.6-476.2,10.8-480.9,10.8z M-483.2,23.4h-1.9v-6h1.9V23.4z M-484.1,16.5c-0.6,0-1.1-0.5-1.1-1.1
			c0-0.6,0.5-1.1,1.1-1.1c0.6,0,1.1,0.5,1.1,1.1C-483,16-483.5,16.5-484.1,16.5z M-476.2,23.4h-1.9c0,0,0-2.3,0-3.2
			c0-0.9-0.3-1.4-1-1.4c-0.7,0-1.1,0.5-1.1,1.4c0,0.9,0,3.2,0,3.2h-1.8v-6h1.8v0.8c0,0,0.5-1,1.8-1c1.3,0,2.2,0.8,2.2,2.4
			C-476.2,21.2-476.2,23.4-476.2,23.4z"/>
		<path id="facebook-circle-icon_8_" fill="#284C6F" d="M-523.9,10.8c-4.7,0-8.5,3.8-8.5,8.5c0,4.7,3.8,8.5,8.5,8.5s8.5-3.8,8.5-8.5
			C-515.4,14.6-519.2,10.8-523.9,10.8z M-521.4,15.8c0,0-0.9,0-1.2,0c-0.4,0-0.5,0.2-0.5,0.6c0,0.4,0,1,0,1h1.7l-0.2,1.8h-1.5v5.5
			h-2.2v-5.5h-1.1v-1.9h1.1c0,0,0-0.3,0-1.5c0-1.4,0.7-2.1,2.4-2.1c0.3,0,1.5,0,1.5,0V15.8L-521.4,15.8z"/>
		<path id="twitter-4-icon_8_" fill="#284C6F" d="M-502.9,10.8c-4.7,0-8.5,3.8-8.5,8.5c0,4.7,3.8,8.5,8.5,8.5c4.7,0,8.5-3.8,8.5-8.5
			C-494.4,14.6-498.2,10.8-502.9,10.8z M-498.6,17.8c0.1,2.8-1.9,5.9-5.6,5.9c-1.1,0-2.1-0.3-3-0.9c1,0.1,2.1-0.2,2.9-0.8
			c-0.9,0-1.6-0.6-1.8-1.4c0.3,0.1,0.6,0,0.9,0c-0.9-0.2-1.6-1-1.6-2c0.3,0.1,0.6,0.2,0.9,0.2c-0.9-0.6-1.1-1.7-0.6-2.6
			c1,1.2,2.4,2,4.1,2.1c-0.3-1.2,0.6-2.4,1.9-2.4c0.6,0,1.1,0.2,1.4,0.6c0.4-0.1,0.9-0.3,1.3-0.5c-0.1,0.5-0.5,0.8-0.9,1.1
			c0.4,0,0.8-0.2,1.1-0.3C-497.9,17.2-498.2,17.5-498.6,17.8z"/>
	</g>
</g>
</svg>
