<?xml version="1.0" encoding="utf-8"?>
<!-- Generator: Adobe Illustrator 18.0.0, SVG Export Plug-In . SVG Version: 6.00 Build 0)  -->
<!DOCTYPE svg PUBLIC "-//W3C//DTD SVG 1.1//EN" "http://www.w3.org/Graphics/SVG/1.1/DTD/svg11.dtd">
<svg version="1.1" id="all_pages-_navigation_bar" xmlns="http://www.w3.org/2000/svg" xmlns:xlink="http://www.w3.org/1999/xlink"
	 x="0px" y="0px" width="113px" height="68px" viewBox="0 0 113 68" style="enable-background:new 0 0 113 68;"
	 xml:space="preserve">
<style type="text/css">
	.st0{fill:#FFFFFF;}
</style>
<g>
	<path class="st0" d="M4.6,17.9c-1.3,0-3.6-0.1-4.6-0.4V0.6l3-0.5v5.7c1-0.5,1.8-0.8,3.1-0.8C8.9,5.1,10,7,10,9.7v3.1
		C10,15.7,9.6,17.9,4.6,17.9 M3,14.7c1,0.1,1.2,0.1,1.7,0.1c1.8,0,2.3-0.8,2.3-2V9.7c0-0.8-0.6-1.4-1.6-1.4C4.5,8.3,4,8.4,3,9V14.7z
		"/>
	<path class="st0" d="M17,12.3v0.9c0,1.4,0,1.8,1.7,1.8c1.1,0,2.6-0.1,3.6-0.3l-0.1,2.8c-1.3,0.3-2.3,0.4-4,0.4
		c-3.9,0-5.2-1.9-5.2-4.9v-2.8c0-2.6,1.1-4.8,5.2-4.8c4,0,4.8,2.4,4.8,5v2H17z M20,9.7c0-0.9-0.1-1.6-1.4-1.6
		c-1.3,0-1.6,0.7-1.6,1.6v0.6h3V9.7z"/>
	<path class="st0" d="M33,17.3V9.5c0-0.5-0.1-1.3-1.1-1.3C30.8,8.2,30,8.5,30,9v8.2h-4V0.6l4-0.5v5.8c1-0.7,2-0.9,3.7-0.7
		c2,0.2,2.3,2,2.3,4.3v7.8H33z"/>
	<polygon class="st0" points="59.7,17.3 55.1,17.3 51.3,5.3 54.9,5.3 57.4,13.8 59.8,5.3 63.5,5.3 	"/>
	<path class="st0" d="M67,5.3h3v12h-3V5.3z M67.5,0c-1.3,0-2,0.7-2,2c0,1.3,0.7,2,2,2c1.3,0,2-0.7,2-2C69.5,0.7,68.8,0,67.5,0"/>
	<path class="st0" d="M73,12.3v-2.1c0-2.5,1.2-4.9,5.5-4.9c4.3,0,5.5,2.4,5.5,4.9V13c0,2.5-1.6,4.9-5.9,4.9c-4.3,0-5.4-2.7-5.4-5.1
		 M80,12.3v-2.2c0-1.1-0.2-1.8-1.5-1.8S77,9,77,10.1v3c0,1.1,0,1.8,1.2,1.8c1.3,0,1.7-0.9,1.7-2"/>
	<path class="st0" d="M91,9.3v8h-4v-12h2.4l0.3,1.4c0.8-0.5,2.8-1,4.1-1.2l-0.2,3.3c-1.1,0.2-2.2,0.6-3.2,1.2"/>
	<path class="st0" d="M100.2,5.1c-1.2,0-2.7,0.1-3.8,0.3l-0.2,3.1c1.1-0.2,2.5-0.3,3.5-0.3c1.9,0,2.3,0.5,2.3,1.7v0.4h-3
		c-2.5,0-4.1,1.2-4.1,3.7c0,2.1,1.4,3.8,3.6,3.8c0.8,0,2.1-0.3,3.5-1.1l0,0.6h3.9V9.9C106,6.6,104.4,5.1,100.2,5.1 M102,14.7
		c-1,0.2-1.4,0.4-2.1,0.4c-0.7,0-1.1-0.8-1.1-1.4c0-0.6,0.1-1.4,0.9-1.4h2.3V14.7z"/>
	<path class="st0" d="M44.3,5.1c-1.2,0-2.7,0.1-3.8,0.3l-0.2,3.1c1.1-0.2,3.1-0.3,4.1-0.3c1.9,0,2.7,0.4,2.7,1.7v0.4h-3.9
		c-2.5,0-4.1,1.2-4.1,3.7c0,2.1,1.4,3.8,3.6,3.8c0.8,0,2.1-0.3,3.5-1.1l0,0.6H50V9.9C50,6.6,48.5,5.1,44.3,5.1 M46,14.7
		c0,0.2-1.3,0.4-2.1,0.4c-0.7,0-1.1-0.8-1.1-1.5c0-0.6,0.2-1.4,1-1.4H46V14.7z"/>
	<polygon class="st0" points="108,17.3 108,0.6 112,0.2 112,17.3 	"/>
	<path class="st0" d="M39.4,42.9c-1.3,0-3.2-0.3-4.4-0.7l0.6-2.6c1,0.3,2.3,0.5,3.7,0.5c1.1,0,1.2-0.3,1.2-1c0-0.8,0-0.9-2-1.3
		c-2.9-0.7-3.2-1.5-3.2-3.8c0-2.5,1-3.6,4.6-3.6c0.9,0,2.6,0.1,3.7,0.4l-0.3,2.8c-1.1-0.2-2.4-0.3-3.3-0.3c-1,0-1.3,0.3-1.3,0.8
		c0,0.7,0.1,0.8,1.5,1.2c3.5,0.8,3.7,1.5,3.7,3.9C43.9,41.6,42.9,42.9,39.4,42.9"/>
	<path class="st0" d="M50,37.7c0,0.9,0,2.3,1.8,2.3c0.9,0,1.8,0,3.7-0.2l0,2.8c-1.2,0.3-2.6,0.4-3.4,0.4c-3.9,0-5.1-1.5-5.1-4.9
		v-2.7c0-3.4,1.1-4.9,5.1-4.9c0.8,0,2.4,0.2,3.6,0.4c0,0-0.2,2.8-0.2,2.8c-0.8-0.1-2.9-0.3-3.6-0.3c-1.8,0-1.9,1.4-1.9,2.3V37.7z"/>
	<path class="st0" d="M58,30.3h4v12h-4V30.3z M59.6,25.1c-1.3,0-2,0.7-2,2c0,1.3,0.7,2,2,2c1.3,0,2-0.7,2-2
		C61.6,25.8,60.9,25.1,59.6,25.1"/>
	<path class="st0" d="M69,37.3v1c0,1.4,0.1,1.8,1.7,1.8c1.1,0,2.6-0.1,3.6-0.3l-0.1,2.8c-1.3,0.3-2.3,0.4-4,0.4
		C66.3,42.9,65,41,65,38v-2.8c0-2.6,1.1-4.8,5.1-4.8s4.9,2.4,4.9,5v1.9H69z M72,34.7c0-0.8-0.2-1.5-1.4-1.5c-1.2,0-1.6,0.7-1.6,1.5
		v0.6h3V34.7z"/>
	<path class="st0" d="M85,42.3v-7.6c0-0.5,0-0.9-0.6-0.9c-0.6,0-2.4,0.4-2.4,0.9v7.6h-4v-12h2.2l0.4,1.1c1.5-0.7,3.3-1.1,4.7-1.1
		c2.1,0,2.7,1.6,2.7,4v8H85z"/>
	<path class="st0" d="M95,37.7c0,0.9-0.1,2.3,1.8,2.3c0.9,0,1.8,0,3.6-0.2l0,2.8c-1.2,0.3-2.5,0.4-3.4,0.4c-3.9,0-5-1.5-5-4.9v-2.7
		c0-3.4,1.1-4.9,5-4.9c0.8,0,2.4,0.2,3.6,0.4c0,0-0.2,2.8-0.2,2.8c-0.8-0.1-2.8-0.3-3.5-0.3c-1.8,0-1.8,1.4-1.8,2.3V37.7z"/>
	<path class="st0" d="M106,37.3v1c0,1.4,0.5,1.8,2.1,1.8c1.1,0,2.8-0.1,3.9-0.3l0,2.8c-1.3,0.3-2.2,0.4-3.9,0.4
		c-3.9,0-5.1-1.9-5.1-4.9v-2.8c0-2.6,1.1-4.8,5.1-4.8s4.9,2.4,4.9,5v1.9H106z M109,34.7c0-0.8-0.2-1.5-1.4-1.5
		c-1.2,0-1.6,0.7-1.6,1.5v0.6h3V34.7z"/>
	<polygon class="st0" points="82,67.3 82,50.8 85,50.3 85,67.3 	"/>
	<path class="st0" d="M93.2,55.2c-1.2,0-2.7,0.1-3.8,0.3l-0.2,3.1c1.1-0.2,3.1-0.3,4.1-0.3c1.9,0,2.8,0.4,2.8,1.7v0.2h-3.9
		c-2.5,0-4.1,1.3-4.1,3.7c0,2.1,1.4,3.9,3.6,3.9c0.8,0,2.1-0.4,3.5-1.2l0,0.6H99v-7.2C99,56.7,97.4,55.2,93.2,55.2 M95,64.9
		c0,0.2-1.4,0.4-2.1,0.4c-0.7,0-1.1-0.4-1.1-1c0-0.6,0.2-1,1-1H95V64.9z"/>
	<path class="st0" d="M107.1,68c-1.3,0-3.1-0.1-5.1-0.4V50.8l4-0.5V56c0-0.5,1.8-0.8,3.1-0.8c2.8,0,3.9,1.9,3.9,4.6v3.1
		C113,65.8,112.1,68,107.1,68 M106,64.9c0,0.1,0.7,0.1,1.2,0.1c1.8,0,1.8-0.8,1.8-2v-3.1c0-0.8-0.1-1.4-1.1-1.4
		c-0.8,0-1.9,0.2-1.9,0.7V64.9z"/>
</g>
<g>
</g>
</svg>
