<?xml version="1.0" encoding="utf-8"?>
<!-- Generator: Adobe Illustrator 18.0.0, SVG Export Plug-In . SVG Version: 6.00 Build 0)  -->
<!DOCTYPE svg PUBLIC "-//W3C//DTD SVG 1.1//EN" "http://www.w3.org/Graphics/SVG/1.1/DTD/svg11.dtd">
<svg version="1.1" id="Layer_1" xmlns="http://www.w3.org/2000/svg" xmlns:xlink="http://www.w3.org/1999/xlink" x="0px" y="0px"
	 width="337px" height="221px" viewBox="0 0 337 221" enable-background="new 0 0 337 221" xml:space="preserve">
<g>
	<g>
		<path fill="#274C6F" d="M203.4,96.6c-0.3-0.3-0.6-0.5-0.9-0.7c6.3-9,10.1-19.7,10.4-31.2c0.1-2.5-0.3-2.5-0.5,0
			c-0.8,10.8-4.8,21.1-11.7,29.8c-9.1,11.4-22.1,18.6-36.7,20.3c-2.1,0.2-4.2,0.4-6.3,0.4c-27.7,0-51.2-20.8-54.3-48.5
			c-3.3-28.8,16.5-55.1,44.7-60.1c1.6-0.3,1.6-0.8-0.1-0.6c-14.9,1.9-28.2,9.4-37.6,21.2c-9.5,12-13.8,27-12.1,42.3
			c3.3,29,27.8,50.9,57,50.9c2.2,0,4.4-0.1,6.6-0.4c10.9-1.3,20.8-5.6,28.8-11.9c0.2,0.3,0.5,0.6,0.7,0.8l33.9,32.3
			c1.6,1.6,3.8,2.3,5.9,2.3c2.2,0,4.5-0.9,6.2-2.6c3.2-3.4,3.1-8.8-0.3-12L203.4,96.6z M234.5,133.9c-0.4,0.4-0.9,0.6-1.5,0.6
			c-0.5,0-1-0.2-1.4-0.6L198.1,102c-0.1-0.1-0.2-0.3-0.3-0.4c0.9-0.9,1.7-1.9,2.5-2.9c0.2,0.1,0.4,0.2,0.6,0.4l33.5,31.9
			C235.3,131.7,235.3,133,234.5,133.9z"/>
		<path fill="#274C6F" d="M108.7,56.9c-0.1,1.7,0.1,2,0.3,1.5c0.1-0.3,0.2-0.7,0.3-1.4c1-8.3,4.3-16.2,9.7-23
			c7.7-9.7,18.8-15.9,31.1-17.3c1.8-0.2,3.6-0.3,5.4-0.3c23.6,0,43.5,17.7,46.2,41.3c0.9,7.7-0.2,15.2-2.8,22h-9.1l-15.2-42.2
			c-0.4-1.1-1.4-1.8-2.5-1.8h-1.5c-1.1,0-2.1,0.7-2.6,1.7l-14.6,37.4l-9.3-21.6c-0.4-1-1.4-1.6-2.5-1.6l0,0h-1.4
			c-1.1,0-2.1,0.7-2.5,1.7l-11.2,26.4h-14.5c0.7,1.9,1.5,3.7,2.5,5.4h13.8c1.1,0,2.1-0.7,2.5-1.7l10.1-23.8l9.4,21.8
			c0.4,1,1.4,1.6,2.5,1.6h1.3c1.1,0,2.1-0.7,2.5-1.7l14.5-37.2l14.1,39.2c0.4,1.1,1.4,1.8,2.6,1.8h8.4
			c-6.6,12.2-18.5,21.2-33.1,23.7c-0.4,0-0.6,0.1-0.9,0.2c-1.1,0.3-0.8,0.6,1.1,0.4c13.1-1.5,24.8-8,32.9-18.3
			c8.2-10.3,11.8-23.2,10.3-36.3c-2.9-24.9-23.8-43.7-48.9-43.7c-1.9,0-3.8,0.1-5.7,0.3C128.2,14.2,110.3,33.7,108.7,56.9z"/>
	</g>
	<g>
		<g>
			<path fill="#274C6F" d="M51.6,205.3v-16.6c0-1.1-0.5-1.8-1.8-1.8s-3.8,0.9-5.4,1.8v16.6H37v-25.1h5.5l0.8,1.9
				c3.1-1.5,7.1-2.4,10-2.4c2.2,0,3.7,0.9,4.6,2.4c2.8-1.4,6.6-2.4,10.1-2.4c4.3,0,5.8,3.2,5.8,8.1v17.6h-7.6v-16.6
				c0-1.1-0.5-1.8-1.8-1.8s-3.8,0.9-5.4,1.8v16.6h-7.4V205.3z"/>
			<path fill="#274C6F" d="M82.8,176.9V169h7.4v7.9H82.8z M82.8,205.3v-25.1h7.4v25.1H82.8z"/>
			<path fill="#274C6F" d="M114.2,205.3v-16.6c0-1.1-0.5-1.8-1.8-1.8c-1.3,0-3.8,0.9-5.4,1.8v16.6h-7.4v-25.1h5.5l0.8,1.9
				c3.1-1.5,7.1-2.4,10-2.4c4.3,0,5.8,3.2,5.8,8.1v17.6h-7.5V205.3z"/>
			<path fill="#274C6F" d="M129.4,188.9c0-5.9,2.6-9.3,8.5-9.3c2.1,0,4.7,0.3,6.4,0.7v-10.5l7.4-1v36.5H146l-0.8-2
				c-1.8,1.1-5,2.5-7.7,2.5c-5.1,0-7.9-3.1-7.9-9.3v-7.5H129.4z M144.3,186.7c-1.3-0.3-3.2-0.6-4.7-0.6c-2,0-2.7,1.2-2.7,2.8v7.6
				c0,1.8,0.7,2.8,2.7,2.8c1.7,0,3.7-1,4.7-2V186.7z"/>
			<path fill="#274C6F" d="M170.7,197.6c-1.3,0-2.3-0.1-3.4-0.3c-1.4,1.1-2,2.1-2,3.3c0,1,0.6,1.7,2.3,1.8c3.1,0.3,3.9,0.3,7.2,0.6
				c4.6,0.4,6.2,2.5,6.2,6c0,5.2-2.6,7-10.7,7c-2.3,0-6.1-0.5-8.8-1.2l0.5-2.4c2.5,0.6,5.8,1,8.5,1c6.8,0,7.7-1.4,7.7-4.3
				c0-2.5-1-3.5-4-3.7c-3.2-0.2-3.5-0.2-6.8-0.5c-3.7-0.3-5-2.2-5-4.4c0-1.3,0.6-2.9,2.4-4.2c-2.5-1.4-3.7-4-3.7-7.5v-0.3
				c0-5.7,2.5-8.8,9.7-8.8c1.7,0,3,0.2,4.2,0.5h6.9v2.2l-3.1,0.3c1.1,1.4,1.7,3.5,1.7,5.9v0.3C180.3,194.4,177.3,197.6,170.7,197.6z
				 M170.7,182.1c-5,0-6.8,1.5-6.8,6.1v0.5c0,4.7,2.2,6.1,6.8,6.1c4.6,0,6.8-1.6,6.8-6.1v-0.5C177.5,183.7,175.7,182.1,170.7,182.1z
				"/>
			<path fill="#274C6F" d="M193.9,180.1v20.3c0,1.9,1,2.5,2.7,2.5c2.1,0,6.5-1.2,9.6-2.9v-20h3v25.1h-2.6l-0.2-2.3
				c-2.7,1.3-7.2,2.8-10.2,2.8c-3.9,0-5.3-2.2-5.3-5.7v-20h3V180.1z"/>
			<path fill="#274C6F" d="M220.7,175.3v-5.5h3v5.5H220.7z M220.7,205.3v-25.1h3v25.1H220.7z"/>
			<path fill="#274C6F" d="M234.3,187.4c0-4.6,2.1-7.7,7.7-7.7c2.6,0,4.9,0.3,7.7,0.8v-10.6l3-0.4v35.9H250l-0.2-2.4
				c-2.5,1.9-5.7,2.9-8.5,2.9c-4.9,0-7.1-2.4-7.1-7v-11.4H234.3z M249.8,183.1c-2.7-0.6-5.4-0.9-7.8-0.9c-3.3,0-4.6,1.7-4.6,5.1
				v11.5c0,2.9,0.9,4.3,4.3,4.3c3.1,0,5.8-1.3,8.2-3.2v-16.8H249.8z"/>
			<path fill="#274C6F" d="M272.5,203.2c2.6,0,5.5-0.5,7.9-1.2l0.5,2.4c-2.3,0.8-5.6,1.4-8.7,1.4c-7.1,0-9.3-3.7-9.3-9.1v-7.9
				c0-5.2,2.3-9.1,9.4-9.1s9.1,4,9.1,9.1v4.9h-15.5v3.1C265.8,201.3,267.4,203.2,272.5,203.2z M265.8,190.9h12.6v-2.3
				c0-4.2-1.5-6.5-6.2-6.5s-6.4,2.2-6.4,6.5V190.9z"/>
		</g>
	</g>
</g>
<g>
	<g>
		<path fill="#274C6F" d="M289.6,174.1c-0.3-0.2-0.9-0.4-1.6-0.4c-0.8,0-1.2,0.4-1.2,0.9c0,0.5,0.4,0.8,1.5,1.3
			c1.5,0.7,2.1,1.6,2.1,2.7c0,1.7-1.3,2.9-3.5,2.9c-0.9,0-1.9-0.2-2.3-0.5l0.4-1.8c0.5,0.3,1.3,0.5,2,0.5c0.9,0,1.3-0.4,1.3-0.9
			c0-0.6-0.4-0.9-1.4-1.3c-1.5-0.7-2.2-1.6-2.2-2.7c0-1.6,1.2-2.8,3.3-2.8c0.9,0,1.6,0.2,2,0.4L289.6,174.1z"/>
	</g>
	<path fill="#274C6F" d="M293.7,176.2l-0.1,5.1h-2l0.4-9.2h2.1l2.2,5.9l2.2-5.9h2.1l0.4,9.2h-2l-0.1-5.1l-1.6,3.9h-1.9L293.7,176.2z
		"/>
</g>
</svg>
