<?xml version="1.0" encoding="utf-8"?>
<!-- Generator: Adobe Illustrator 18.0.0, SVG Export Plug-In . SVG Version: 6.00 Build 0)  -->
<!DOCTYPE svg PUBLIC "-//W3C//DTD SVG 1.1//EN" "http://www.w3.org/Graphics/SVG/1.1/DTD/svg11.dtd">
<svg version="1.1" id="Layer_1" xmlns="http://www.w3.org/2000/svg" xmlns:xlink="http://www.w3.org/1999/xlink" x="0px" y="0px"
	 width="337px" height="221px" viewBox="0 0 337 221" style="enable-background:new 0 0 337 221;" xml:space="preserve">
<style type="text/css">
	.st0{fill:#274C6F;}
</style>
<g>
	<g>
		<path class="st0" d="M202.9,96.2c-0.3-0.3-0.6-0.5-0.9-0.7c6.3-9,10.1-19.7,10.4-31.1c0.1-2.5-0.3-2.5-0.5,0
			c-0.8,10.8-4.8,21.1-11.7,29.7c-9.1,11.4-22.1,18.6-36.6,20.3c-2.1,0.2-4.2,0.4-6.3,0.4c-27.7,0-51.1-20.8-54.2-48.4
			c-3.3-28.8,16.5-55,44.6-60c1.6-0.3,1.6-0.8-0.1-0.6c-14.9,1.9-28.2,9.4-37.5,21.2c-9.5,12-13.8,27-12.1,42.2
			c3.3,29,27.8,50.8,56.9,50.8c2.2,0,4.4-0.1,6.6-0.4c10.9-1.3,20.8-5.6,28.8-11.9c0.2,0.3,0.5,0.6,0.7,0.8l33.8,32.2
			c1.6,1.6,3.8,2.3,5.9,2.3c2.2,0,4.5-0.9,6.2-2.6c3.2-3.4,3.1-8.8-0.3-12L202.9,96.2z M234,133.4c-0.4,0.4-0.9,0.6-1.5,0.6
			c-0.5,0-1-0.2-1.4-0.6l-33.4-31.8c-0.1-0.1-0.2-0.3-0.3-0.4c0.9-0.9,1.7-1.9,2.5-2.9c0.2,0.1,0.4,0.2,0.6,0.4l33.4,31.8
			C234.8,131.2,234.8,132.5,234,133.4z"/>
		<path class="st0" d="M108.4,56.6c-0.1,1.7,0.1,2,0.3,1.5c0.1-0.3,0.2-0.7,0.3-1.4c1-8.3,4.3-16.2,9.7-23
			c7.7-9.7,18.8-15.9,31.1-17.3c1.8-0.2,3.6-0.3,5.4-0.3c23.6,0,43.4,17.7,46.1,41.2c0.9,7.7-0.2,15.2-2.8,22h-9.1l-15.2-42.1
			c-0.4-1.1-1.4-1.8-2.5-1.8l-1.5,0c-1.1,0-2.1,0.7-2.6,1.7l-14.6,37.3l-9.3-21.6c-0.4-1-1.4-1.6-2.5-1.6c0,0,0,0,0,0l-1.4,0
			c-1.1,0-2.1,0.7-2.5,1.7l-11.2,26.4h-14.5c0.7,1.9,1.5,3.7,2.5,5.4h13.8c1.1,0,2.1-0.7,2.5-1.7l10.1-23.8l9.4,21.8
			c0.4,1,1.4,1.6,2.5,1.6h1.3c1.1,0,2.1-0.7,2.5-1.7l14.5-37.1l14.1,39.1c0.4,1.1,1.4,1.8,2.6,1.8h8.4c-6.6,12.2-18.5,21.2-33,23.7
			c-0.4,0-0.6,0.1-0.9,0.2c-1.1,0.3-0.8,0.6,1.1,0.4c13.1-1.5,24.8-8,32.9-18.3c8.2-10.3,11.8-23.2,10.3-36.2
			c-2.9-24.9-23.8-43.6-48.8-43.6c-1.9,0-3.8,0.1-5.7,0.3C127.9,13.9,110,33.4,108.4,56.6z"/>
	</g>
	<g>
		<g>
			<path class="st0" d="M51.4,204.7v-16.6c0-1.1-0.5-1.8-1.8-1.8c-1.3,0-3.8,0.9-5.4,1.8v16.6h-7.4v-25.1h5.5l0.8,1.9
				c3.1-1.5,7.1-2.4,10-2.4c2.2,0,3.7,0.9,4.6,2.4c2.8-1.4,6.6-2.4,10.1-2.4c4.3,0,5.8,3.2,5.8,8.1v17.6H66v-16.6
				c0-1.1-0.5-1.8-1.8-1.8c-1.3,0-3.8,0.9-5.4,1.8v16.6H51.4z"/>
			<path class="st0" d="M82.5,176.4v-7.9h7.4v7.9H82.5z M82.5,204.7v-25.1h7.4v25.1H82.5z"/>
			<path class="st0" d="M113.9,204.7v-16.6c0-1.1-0.5-1.8-1.8-1.8c-1.3,0-3.8,0.9-5.4,1.8v16.6h-7.4v-25.1h5.5l0.8,1.9
				c3.1-1.5,7.1-2.4,10-2.4c4.3,0,5.8,3.2,5.8,8.1v17.6H113.9z"/>
			<path class="st0" d="M129.1,188.3c0-5.9,2.6-9.3,8.5-9.3c2.1,0,4.7,0.3,6.4,0.7v-10.5l7.4-1v36.4h-5.8l-0.8-2
				c-1.8,1.1-5,2.5-7.7,2.5c-5.1,0-7.9-3.1-7.9-9.3V188.3z M143.9,186.1c-1.3-0.3-3.2-0.6-4.7-0.6c-2,0-2.7,1.2-2.7,2.8v7.6
				c0,1.8,0.7,2.8,2.7,2.8c1.7,0,3.7-1,4.7-2V186.1z"/>
			<path class="st0" d="M170.3,197c-1.3,0-2.3-0.1-3.4-0.3c-1.4,1.1-2,2.1-2,3.3c0,1,0.6,1.7,2.3,1.8c3.1,0.3,3.9,0.3,7.2,0.6
				c4.6,0.4,6.2,2.5,6.2,6c0,5.2-2.6,7-10.7,7c-2.3,0-6.1-0.5-8.8-1.2l0.5-2.4c2.5,0.6,5.8,1,8.5,1c6.8,0,7.7-1.4,7.7-4.3
				c0-2.5-1-3.5-4-3.7c-3.2-0.2-3.5-0.2-6.8-0.5c-3.7-0.3-5-2.2-5-4.4c0-1.3,0.6-2.9,2.4-4.2c-2.5-1.4-3.7-4-3.7-7.5v-0.3
				c0-5.7,2.5-8.8,9.7-8.8c1.7,0,3,0.2,4.2,0.5h6.9v2.2l-3.1,0.3c1.1,1.4,1.7,3.5,1.7,5.9v0.3C179.9,193.8,176.9,197,170.3,197z
				 M170.3,181.6c-5,0-6.8,1.5-6.8,6.1v0.5c0,4.7,2.2,6.1,6.8,6.1c4.6,0,6.8-1.6,6.8-6.1v-0.5C177.1,183.2,175.3,181.6,170.3,181.6z
				"/>
			<path class="st0" d="M193.5,179.6v20.3c0,1.9,1,2.5,2.7,2.5c2.1,0,6.5-1.2,9.6-2.9v-20h3v25.1h-2.6l-0.2-2.3
				c-2.7,1.3-7.2,2.8-10.2,2.8c-3.9,0-5.3-2.2-5.3-5.7v-20H193.5z"/>
			<path class="st0" d="M220.2,174.8v-5.5h3v5.5H220.2z M220.2,204.7v-25.1h3v25.1H220.2z"/>
			<path class="st0" d="M233.8,186.8c0-4.6,2.1-7.7,7.7-7.7c2.6,0,4.9,0.3,7.7,0.8v-10.6l3-0.4v35.8h-2.7l-0.2-2.4
				c-2.5,1.9-5.7,2.9-8.5,2.9c-4.9,0-7.1-2.4-7.1-7V186.8z M249.3,182.6c-2.7-0.6-5.4-0.9-7.8-0.9c-3.3,0-4.6,1.7-4.6,5.1v11.5
				c0,2.9,0.9,4.3,4.3,4.3c3.1,0,5.8-1.3,8.2-3.2V182.6z"/>
			<path class="st0" d="M271.9,202.6c2.6,0,5.5-0.5,7.9-1.2l0.5,2.4c-2.3,0.8-5.6,1.4-8.7,1.4c-7.1,0-9.3-3.7-9.3-9.1v-7.9
				c0-5.2,2.3-9.1,9.4-9.1c7.1,0,9.1,4,9.1,9.1v4.9h-15.5v3.1C265.3,200.7,266.9,202.6,271.9,202.6z M265.3,190.3h12.6v-2.3
				c0-4.2-1.5-6.5-6.2-6.5c-4.7,0-6.4,2.2-6.4,6.5V190.3z"/>
		</g>
		<g>
			<path class="st0" d="M286.8,173.5v7.4h-2.1v-7.4h-2.5v-1.8h7v1.8H286.8z"/>
			<path class="st0" d="M293.1,175.7l-0.1,5.1h-2l0.4-9.2h2.1l2.2,5.9l2.2-5.9h2.1l0.4,9.2h-2l-0.1-5.1l-1.6,3.9h-1.9L293.1,175.7z"
				/>
		</g>
	</g>
</g>
</svg>
