<?xml version="1.0" encoding="utf-8"?>
<!-- Generator: Adobe Illustrator 18.0.0, SVG Export Plug-In . SVG Version: 6.00 Build 0)  -->
<!DOCTYPE svg PUBLIC "-//W3C//DTD SVG 1.1//EN" "http://www.w3.org/Graphics/SVG/1.1/DTD/svg11.dtd">
<svg version="1.1" id="Layer_1" xmlns="http://www.w3.org/2000/svg" xmlns:xlink="http://www.w3.org/1999/xlink" x="0px" y="0px"
	 width="150px" height="215px" viewBox="0 0 150 215" enable-background="new 0 0 150 215" xml:space="preserve">
<g id="Layer_2" display="none">
	<g id="vz5Gjy_1_" display="inline">
	</g>
</g>
<g>
	<g>
		<g>
			<path fill="#234A71" d="M64,64.3c2,0,3.6,0,5.3,0c0.5,0,1.1,0,1.1,0.7c0,0.7-0.6,0.7-1.1,0.7c-2,0.1-2,0.1-2,2.1
				c0,0.6,0,1.1,0,1.7c0,0.5,0,1.1-0.7,1.2c-0.8,0-0.7-0.7-0.7-1.2c0-0.8,0-1.7,0-2.5c0-0.4,0.4-1.2-0.5-1.2
				c-0.8,0.1-1.9-0.6-2.4,0.6c-0.4,0.9-0.6,1.7-0.7,2.7c-0.1,0.5-0.2,1.1-0.8,1.1c-0.8-0.1-0.6-0.7-0.6-1.3
				C61.9,59.9,71.9,55,80,59.3c3.9,2.1,6.4,5.3,6.8,9.9c0.2,2.3,1.5,4.3,2.2,6.4c0.2,0.6,0.5,1.1,0.6,1.7c0.3,1-0.3,2-1.5,2.1
				c-1,0.1-1.2,0.5-1.2,1.4c0,1.9,0,1.9-1.9,1.9c-0.8,0-1.6,0-2.4,0c-1.1-0.1-1.7-0.7-1.9-1.8c-0.1-0.4,0-0.9,0.5-1
				c0.4-0.1,0.7,0.1,0.8,0.5c0.3,0.7,2.7,1.2,3.2,0.7c0.4-0.4,0.2-0.9,0.2-1.3c-0.1-1.3,0.2-2,1.7-1.8c1.1,0.2,1.1-0.4,0.7-1.2
				c-1.2-3-2.4-6-2.9-9.2c-0.7-4.4-6.1-8.5-10.6-8.5c-0.6,0-0.8,0.2-0.8,0.8c-0.1,1.3-0.1,2.2,1.7,2.4c2.4,0.4,3.9,2.4,4,4.7
				c0,0.5,0.2,1.2-0.5,1.2c-0.8,0.1-0.8-0.5-0.9-1.1c-0.3-2.1-1.3-3.1-3.3-3.6c-0.7-0.2-1-0.1-1,0.7c0,1.6,0,3.3,0,4.9
				c0,0.8-0.2,1.2-1.1,1.2c-0.9,0-1.8,0-2.7,0c-0.5,0-1-0.1-1-0.7c0-0.6,0.5-0.7,1-0.7c0.8-0.1,1.8,0.4,2.2-0.2
				c0.4-0.6,0.2-1.6,0.2-2.4c0-2,0-4.1,0-6.1c0-0.8-0.2-1-1-0.8C68.3,60.1,65.9,61.6,64,64.3z"/>
		</g>
		<g>
			<path fill="#244B71" d="M72.6,91.6c-2,0-4,0-6,0c-1,0-1.3-0.3-1.3-1.3c0-2.8,0-5.7,0-8.5c0-0.7-0.2-1.2-0.7-1.7
				c-2.1-2-3.4-4.4-3.9-7.2c-0.1-0.5-0.1-1,0.5-1.2c0.6-0.2,0.9,0.3,0.9,0.8c0.1,0.8,0.7,0.6,1.1,0.6c2.7,0,5.5,0,8.2,0
				c0.6,0,1.4-0.2,1.4,0.7c0,0.8-0.7,0.7-1.3,0.7c-1-0.1-1.2,0.4-1.1,1.2c0,0.3,0.1,0.7,0,1c-0.2,1.3,0.3,1.8,1.6,1.6
				c0.5-0.1,1.3-0.1,1.3,0.7c0,0.9-0.8,0.7-1.4,0.7c-3.2,0-2.9,0.5-3-2.8c0-2.3,0-2.3-2.3-2.3c-1.1,0-2.1,0-3.2,0
				c-0.7,0-0.9,0.2-0.6,0.9c0.7,1.4,1.5,2.7,2.7,3.7c0.9,0.7,1.2,1.4,1.1,2.5c-0.2,1.1,0.3,1.3,1.3,1.3c2-0.1,4-0.1,6,0
				c1.2,0.1,1.4-0.4,1.3-1.4c-0.1-2.3,0-4.6,0-6.8c0-0.6-0.2-1.4,0.7-1.4c0.8,0,0.7,0.7,0.7,1.3c0,2.7,0,5.5,0,8.2
				c0,1.1-0.4,1.5-1.5,1.5c-2.5,0-4.9,0-7.4,0c-1,0-1.3,0.3-1.2,1.3c0.1,1.2,0.1,2.3,0,3.5c0,0.9,0.2,1.2,1.1,1.2
				c1.8-0.1,3.5-0.1,5.3,0c0.9,0,1-0.5,0.9-1.1c-0.1-0.6,0.2-1.4-0.9-1.3c-0.8,0.1-1.6,0-2.4,0c-0.4,0-0.8-0.1-0.8-0.6
				c0-0.5,0.3-0.8,0.8-0.8c1.3,0,2.5,0,3.8,0c0.6,0,0.9,0.4,0.9,1c0,0.4,0.1,0.8,0,1.3c-0.2,1.2,0.2,1.6,1.6,1.7
				c1.5,0,1.7-0.5,1.6-1.8c-0.1-2.1,0-2.1,2.1-2.1c1.6,0,3-0.5,4-1.8c0.3-0.4,0.7-0.7,1.2-0.4c0.5,0.4,0.3,0.8,0,1.2
				c-1.1,1.5-2.6,2.4-4.5,2.3c-1.2-0.1-1.5,0.4-1.3,1.4c0,0.3,0,0.6,0,0.8c0.2,1.2-0.3,1.7-1.6,1.6C76.6,91.5,74.6,91.6,72.6,91.6z"
				/>
		</g>
		<g>
			<path fill="#294D73" d="M83.9,72.3c0,1.3-1,2.4-2.3,2.5c-1.3,0.1-2.6-1.1-2.6-2.4c0-1.3,1.1-2.4,2.4-2.4
				C82.8,69.9,83.9,71,83.9,72.3z"/>
		</g>
		<g>
			<path fill="#F4F3F5" d="M82.5,72.3c-0.1,0.6-0.4,1-1,1c-0.6,0-1-0.4-1-1.1c0-0.6,0.4-0.9,1-0.9C82.2,71.4,82.4,71.8,82.5,72.3z"
				/>
		</g>
	</g>
	<g>
		<g>
			<g>
				<path fill="#1E4A72" d="M74.9,120c-2.6,0-4.7-2.1-4.7-4.7c0-2.6,2.1-4.7,4.7-4.7s4.7,2.1,4.7,4.7C79.7,117.8,77.5,120,74.9,120z
					 M74.9,112c-1.8,0-3.2,1.4-3.2,3.2s1.4,3.2,3.2,3.2c1.8,0,3.2-1.4,3.2-3.2S76.7,112,74.9,112z"/>
			</g>
		</g>
		<g>
			<g>
				<path fill="#1E4A72" d="M75.1,139.8c-3.7,0-6.7-3-6.7-6.7v-5.2c0-3.1,0-7.4,6.7-7.4c2.5,0,4.3,0.5,5.3,1.6
					c1.4,1.4,1.4,3.3,1.3,5.2l0,5.9C81.8,136.9,78.8,139.8,75.1,139.8z M75.1,122.1c-5.1,0-5.1,2.6-5.1,5.9v5.2
					c0,2.8,2.3,5.1,5.1,5.1c2.8,0,5.1-2.3,5.1-5.1l0-5.9c0-1.6,0-3.2-0.9-4.1C78.6,122.4,77.2,122.1,75.1,122.1z"/>
			</g>
		</g>
		<g>
			<g>
				<path fill="#1E4A72" d="M87.6,117.8c-1.8,0-3.2-1.4-3.2-3.2s1.4-3.2,3.2-3.2c1.8,0,3.2,1.4,3.2,3.2S89.3,117.8,87.6,117.8z
					 M87.6,112.8c-1,0-1.9,0.8-1.9,1.9c0,1,0.8,1.9,1.9,1.9c1,0,1.9-0.8,1.9-1.9C89.4,113.6,88.6,112.8,87.6,112.8z"/>
			</g>
		</g>
		<g>
			<g>
				<path fill="#1E4A72" d="M87.6,131.1c-2.4,0-4.4-2-4.4-4.4v-3.4c0-2.1,0-4.9,4.4-4.9c1.7,0,2.8,0.3,3.5,1.1
					c0.9,0.9,0.9,2.3,0.9,3.5l0,3.8C92,129.1,90,131.1,87.6,131.1z M87.6,119.8c-3.1,0-3.1,1.5-3.1,3.6v3.4c0,1.7,1.4,3.1,3.1,3.1
					c1.7,0,3.1-1.4,3.1-3.1l0-3.8c0-1,0-2-0.5-2.5C89.7,120,88.8,119.8,87.6,119.8z"/>
			</g>
		</g>
		<g>
			<g>
				<path fill="#1E4A72" d="M62.6,117.8c-1.8,0-3.2-1.4-3.2-3.2s1.4-3.2,3.2-3.2c1.8,0,3.2,1.4,3.2,3.2S64.4,117.8,62.6,117.8z
					 M62.6,112.8c-1,0-1.9,0.8-1.9,1.9c0,1,0.8,1.9,1.9,1.9c1,0,1.9-0.8,1.9-1.9C64.5,113.6,63.6,112.8,62.6,112.8z"/>
			</g>
		</g>
		<g>
			<g>
				<path fill="#1E4A72" d="M62.6,131.1c-2.4,0-4.4-2-4.4-4.4v-3.4c0-2.1,0-4.9,4.4-4.9c1.7,0,2.8,0.3,3.5,1.1
					c0.9,0.9,0.9,2.3,0.9,3.5l0,3.8C67,129.1,65,131.1,62.6,131.1z M62.6,119.8c-3.1,0-3.1,1.5-3.1,3.6v3.4c0,1.7,1.4,3.1,3.1,3.1
					c1.7,0,3.1-1.4,3.1-3.1l0-3.8c0-1,0-2-0.5-2.5C64.7,120,63.9,119.8,62.6,119.8z"/>
			</g>
		</g>
	</g>
	<g>
		<g>
			<g>
				<path fill="#244B71" d="M62,51.8c1.3,0,2,0.5,2.3,1.3c0.3,0.7,0.1,1.4-0.4,1.8c-0.7,0.6-1.5,1.1-2.3,1.6
					C53.5,61.6,50.6,69,51.4,78.3c0.9,9.5,6.2,15.3,14.8,18.5c4.8,1.8,9.9,2,14.8,3.3c12.5,3.2,20,11.3,21.6,23.3
					c0.1,0.9,0.2,1.9,0.2,2.8c-0.1,1.2-0.7,2.1-1.9,2.1c-1.3,0.1-1.9-0.7-2.1-1.9c-0.3-2.1-0.4-4.3-0.9-6.3
					c-3.1-10.6-11.3-15-21.3-16.8c-5.5-1-11-1.9-16.1-4.6c-9.1-4.8-13.2-12.6-13.4-22.5c-0.2-9.9,3.8-17.8,12.4-23.2
					C60.4,52.4,61.4,52.1,62,51.8z"/>
			</g>
		</g>
		<g>
			<g>
				<path fill="#244B71" d="M102.9,75.7c-0.3,9.6-3.8,17.4-12.4,22.4c-1.3,0.8-2.7,1.7-3.9,0c-1.2-1.8,0.3-2.7,1.6-3.4
					c9-5.4,11.5-13.6,10-23.4c-1.4-9.4-7.5-14.8-16.1-17.6c-3.9-1.3-8.1-1.7-12.1-2.6c-13.6-2.8-21.4-10.9-22.9-23.8
					c-0.1-0.9-0.2-1.9-0.1-2.8c0.1-1.2,0.8-2.1,2-2.1c1.3,0,1.8,0.9,2,2.1c0.3,2.1,0.3,4.3,0.8,6.4c2.5,9.8,9.8,14.1,18.9,16.2
					c4,0.9,8.2,1.4,12.1,2.6C95.7,53.5,103,63.3,102.9,75.7z"/>
			</g>
		</g>
		<g>
			<g>
				<path fill="#294D73" d="M102.9,26.3c-0.6,7.8-3.6,14.4-10,19.2c-1.1,0.8-2.4,1.5-3.5,0.1c-1.2-1.5-0.1-2.5,1-3.3
					c5.6-4.1,8-9.8,8.4-16.5c0.1-1.5,0-3.6,2.3-3.4C103.2,22.8,102.9,24.7,102.9,26.3z"/>
			</g>
		</g>
		<g>
			<g>
				<path fill="#2A4D73" d="M47.1,125.6c0.6-8,3.3-14.1,8.7-18.8c1.1-1,2.5-2,3.8-0.6c1.4,1.5,0.1,2.6-1.1,3.6
					c-4.6,4-6.8,9.1-7.2,15.1c-0.1,1.5,0.1,3.6-2.3,3.4C46.8,128.1,47.1,126.2,47.1,125.6z"/>
			</g>
		</g>
	</g>
	<g>
		<g>
			<path fill="#1E4A72" d="M75,149.9c-41.4,0-75-33.6-75-74.9C0,33.6,33.6,0,75,0c41.4,0,75,33.6,75,74.9
				C150,116.2,116.4,149.9,75,149.9z M75,5.1C36.5,5.1,5.1,36.4,5.1,74.9s31.3,69.8,69.9,69.8c38.5,0,69.9-31.3,69.9-69.8
				C144.9,36.4,113.5,5.1,75,5.1z"/>
		</g>
	</g>
	<g>
		<g>
			<g>
				<path fill="#1E4A72" d="M67,26.4c-3,0-5.4-2.4-5.4-5.4s2.4-5.4,5.4-5.4c3,0,5.4,2.4,5.4,5.4S70,26.4,67,26.4z M67,17
					c-2.2,0-4.1,1.8-4.1,4.1s1.8,4.1,4.1,4.1c2.2,0,4.1-1.8,4.1-4.1S69.3,17,67,17z"/>
			</g>
		</g>
		<g>
			<g>
				<path fill="#1E4A72" d="M77.3,26.5c-2.5,0-4.6-2.1-4.6-4.6s2.1-4.6,4.6-4.6c2.5,0,4.6,2.1,4.6,4.6S79.9,26.5,77.3,26.5z
					 M77.3,18.6c-1.8,0-3.3,1.5-3.3,3.3c0,1.8,1.5,3.3,3.3,3.3c1.8,0,3.3-1.5,3.3-3.3C80.6,20,79.1,18.6,77.3,18.6z"/>
			</g>
		</g>
		<g>
			<g>
				<path fill="#1E4A72" d="M85.3,23.1c-1.9,0-3.5-1.6-3.5-3.5c0-1.9,1.6-3.5,3.5-3.5c1.9,0,3.5,1.6,3.5,3.5
					C88.7,21.6,87.2,23.1,85.3,23.1z M85.3,17.5c-1.2,0-2.1,1-2.1,2.1c0,1.2,1,2.1,2.1,2.1c1.2,0,2.1-1,2.1-2.1
					C87.4,18.5,86.4,17.5,85.3,17.5z"/>
			</g>
		</g>
		<g>
			<g>
				<path fill="#1E4A72" d="M73.9,33.2c-1.9,0-3.5-1.6-3.5-3.5c0-1.9,1.6-3.5,3.5-3.5c1.9,0,3.5,1.6,3.5,3.5
					C77.3,31.6,75.8,33.2,73.9,33.2z M73.9,27.6c-1.2,0-2.1,1-2.1,2.1c0,1.2,1,2.1,2.1,2.1c1.2,0,2.1-0.9,2.1-2.1
					C76,28.6,75,27.6,73.9,27.6z"/>
			</g>
		</g>
		<g>
			<g>
				<path fill="#1E4A72" d="M66.6,33.6c-1.9,0-3.5-1.6-3.5-3.5c0-1.9,1.6-3.5,3.5-3.5c1.9,0,3.5,1.6,3.5,3.5
					C70.1,32,68.5,33.6,66.6,33.6z M66.6,28c-1.2,0-2.1,1-2.1,2.1c0,1.2,1,2.1,2.1,2.1c1.2,0,2.1-1,2.1-2.1S67.8,28,66.6,28z"/>
			</g>
		</g>
		<g>
			<g>
				<path fill="#1E4A72" d="M79.6,17.1c-1.1,0-2-0.9-2-2s0.9-2,2-2c1.1,0,2,0.9,2,2C81.6,16.2,80.7,17.1,79.6,17.1z M79.6,14.5
					c-0.4,0-0.6,0.3-0.6,0.6c0,0.4,0.3,0.6,0.6,0.6c0.4,0,0.6-0.3,0.6-0.6C80.3,14.8,80,14.5,79.6,14.5z"/>
			</g>
		</g>
		<g>
			<g>
				<path fill="#1E4A72" d="M77.7,36.2c-1.1,0-2-0.9-2-2c0-1.1,0.9-2,2-2c1.1,0,2,0.9,2,2C79.7,35.3,78.8,36.2,77.7,36.2z
					 M77.7,33.6c-0.4,0-0.6,0.3-0.6,0.6c0,0.4,0.3,0.6,0.6,0.6c0.4,0,0.6-0.3,0.6-0.6C78.3,33.9,78.1,33.6,77.7,33.6z"/>
			</g>
		</g>
		<g>
			<g>
				<path fill="#1E4A72" d="M62.6,37.6c-1.4,0-2.5-1.1-2.5-2.5c0-1.4,1.1-2.5,2.5-2.5c1.4,0,2.6,1.1,2.6,2.5
					C65.1,36.4,64,37.6,62.6,37.6z M62.6,33.8c-0.7,0-1.2,0.5-1.2,1.2c0,0.7,0.5,1.2,1.2,1.2c0.7,0,1.2-0.5,1.2-1.2
					C63.8,34.3,63.2,33.8,62.6,33.8z"/>
			</g>
		</g>
		<g>
			<g>
				<path fill="#1E4A72" d="M78.3,44.1c-1.6,0-2.8-1.3-2.8-2.8c0-1.5,1.3-2.8,2.8-2.8c1.6,0,2.8,1.3,2.8,2.8
					C81.1,42.8,79.9,44.1,78.3,44.1z M78.3,39.8c-0.8,0-1.5,0.7-1.5,1.5c0,0.8,0.7,1.5,1.5,1.5c0.8,0,1.5-0.7,1.5-1.5
					S79.1,39.8,78.3,39.8z"/>
			</g>
		</g>
		<g>
			<g>
				<path fill="#1E4A72" d="M83.5,41.5c-1.4,0-2.5-1.1-2.5-2.5c0-1.4,1.1-2.5,2.5-2.5c1.4,0,2.5,1.1,2.5,2.5
					C86,40.3,84.9,41.5,83.5,41.5z M83.5,37.7c-0.7,0-1.2,0.5-1.2,1.2c0,0.7,0.5,1.2,1.2,1.2c0.7,0,1.2-0.5,1.2-1.2
					C84.7,38.3,84.1,37.7,83.5,37.7z"/>
			</g>
		</g>
		<g>
			<g>
				<path fill="#1E4A72" d="M60.7,29.5c-1.2,0-2.1-1-2.1-2.1c0-1.2,1-2.1,2.1-2.1c1.2,0,2.1,1,2.1,2.1
					C62.8,28.5,61.9,29.5,60.7,29.5z M60.7,26.5c-0.4,0-0.8,0.4-0.8,0.8s0.4,0.8,0.8,0.8c0.4,0,0.8-0.4,0.8-0.8S61.1,26.5,60.7,26.5
					z"/>
			</g>
		</g>
		<g>
			<g>
				<path fill="#1E4A72" d="M71.8,16.7c-1.9,0-3.5-1.6-3.5-3.5s1.6-3.5,3.5-3.5c1.9,0,3.5,1.6,3.5,3.5S73.7,16.7,71.8,16.7z
					 M71.8,11.1c-1.2,0-2.1,1-2.1,2.1s1,2.1,2.1,2.1c1.2,0,2.1-1,2.1-2.1S72.9,11.1,71.8,11.1z"/>
			</g>
		</g>
		<g>
			<g>
				<path fill="#1E4A72" d="M70.7,42.8c-2.6,0-4.7-2.1-4.7-4.7c0-2.6,2.1-4.7,4.7-4.7c2.6,0,4.7,2.1,4.7,4.7
					C75.4,40.7,73.3,42.8,70.7,42.8z M70.7,34.7c-1.9,0-3.4,1.5-3.4,3.4c0,1.9,1.5,3.4,3.4,3.4c1.9,0,3.4-1.5,3.4-3.4
					C74.1,36.2,72.6,34.7,70.7,34.7z"/>
			</g>
		</g>
		<g>
			<g>
				<path fill="#1E4A72" d="M85.3,36.1c-3.5,0-6.4-2.9-6.4-6.4s2.9-6.4,6.4-6.4c3.5,0,6.4,2.9,6.4,6.4
					C91.7,33.2,88.9,36.1,85.3,36.1z M85.3,24.7c-2.8,0-5,2.3-5,5c0,2.8,2.3,5,5,5c2.8,0,5-2.3,5-5C90.4,27,88.1,24.7,85.3,24.7z"/>
			</g>
		</g>
	</g>
</g>
<g>
	<g>
		<path fill="#FFBE02" d="M28.6,183.6l2.5-6.9h3.1l-1.8,6.9H28.6z M33.7,183.6l2.5-6.9h3.1l-1.8,6.9H33.7z"/>
		<path fill="#FFBE02" d="M42.5,190.4V186c0.8,1,1.6,1.6,2.5,1.6c0.3,0,0.6-0.1,0.8-0.3c0.2-0.2,0.3-0.4,0.3-0.6
			c0-0.4-0.2-0.7-0.7-1.1l-0.6-0.5c-0.4-0.3-0.8-0.6-1.1-0.9c-0.3-0.3-0.5-0.6-0.7-0.9c-0.2-0.3-0.3-0.7-0.4-1
			c-0.1-0.3-0.1-0.7-0.1-1.1c0-0.6,0.2-1.3,0.5-2c0.2-0.3,0.3-0.6,0.5-0.9c0.2-0.3,0.4-0.5,0.7-0.7c0.7-0.6,1.6-0.9,2.7-0.9
			c0.9,0,1.9,0.2,2.8,0.7v4.3c-0.3-0.5-0.7-0.9-1.1-1.2c-0.4-0.3-0.8-0.4-1.2-0.4c-0.3,0-0.5,0.1-0.7,0.3c-0.2,0.2-0.3,0.4-0.3,0.6
			c0,0.4,0.3,0.7,0.8,1.1l0.6,0.4c0.8,0.6,1.4,1.2,1.8,1.8c0.4,0.6,0.5,1.3,0.5,2.1c0,1.4-0.4,2.5-1.3,3.4c-0.9,0.9-2,1.3-3.3,1.3
			C44.5,191,43.5,190.8,42.5,190.4z"/>
		<path fill="#FFBE02" d="M68.1,191h-3.9l-0.2-6.6l-0.1-2.6c0,0.5-0.1,1-0.2,1.4c-0.1,0.5-0.1,0.9-0.2,1.3l-1.3,6.4H59l-1-6.4
			c-0.1-0.4-0.1-1-0.3-1.9c0-0.1,0-0.4-0.1-0.8l-0.1,2.7l-0.3,6.5H53l1.7-14.4h4.9l0.8,4.9c0.1,0.4,0.1,0.8,0.2,1.3
			c0.1,0.5,0.1,1,0.1,1.5c0.1-0.9,0.2-1.7,0.3-2.5l1-5.2h4.7L68.1,191z"/>
		<path fill="#FFBE02" d="M82.4,191h-4l-0.3-1.8h-2.6l-0.3,1.8h-4l3.5-14.4h4.8L82.4,191z M77.6,186.2l-0.3-1.7c0,0,0-0.1,0-0.3
			c0-0.1-0.1-0.7-0.2-1.6c0-0.1,0-0.3,0-0.4c0-0.2,0-0.4-0.1-0.7l-0.1-1.4c0,0.1,0,0.3-0.1,0.4c0,0.2,0,0.3-0.1,0.5
			c0,0.4-0.1,0.7-0.1,0.8c0,0.2,0,0.2,0,0.3l-0.3,1.7l-0.4,2.3H77.6z"/>
		<path fill="#FFBE02" d="M95.7,191h-4.2l-1.9-5.1c0-0.1-0.1-0.2-0.1-0.3c0-0.1-0.1-0.3-0.2-0.5l0,1v5h-3.9v-14.4h4
			c1.8,0,3.1,0.3,3.9,1c1.1,0.9,1.7,2.1,1.7,3.8c0,1.7-0.7,2.9-2.2,3.6L95.7,191z M89.4,183.1h0.3c0.4,0,0.8-0.2,1.1-0.5
			c0.3-0.3,0.4-0.8,0.4-1.3c0-1.1-0.6-1.6-1.7-1.6h-0.1L89.4,183.1L89.4,183.1z"/>
		<path fill="#FFBE02" d="M104.1,191h-3.9v-11H98v-3.5h8.3v3.5h-2.2L104.1,191L104.1,191z"/>
		<path fill="#FFBE02" d="M114.5,176.6l-2.5,6.9h-3.1l1.8-6.9H114.5z M119.6,176.6l-2.5,6.9H114l1.8-6.9H119.6z"/>
	</g>
	<g>
		<path fill="#FFBE02" d="M51.4,214v-14.4h3.4c1.9,0,3.4,0.5,4.5,1.6c1.4,1.4,2.1,3.2,2.1,5.7c0,2.4-0.6,4.2-1.8,5.5
			c-1,1.1-2.5,1.7-4.5,1.7L51.4,214L51.4,214z M55.3,210.5c1.4-0.1,2.1-1.3,2.1-3.6c0-1.2-0.2-2.1-0.5-2.7c-0.4-0.7-0.8-1-1.4-1
			h-0.1L55.3,210.5L55.3,210.5z"/>
		<path fill="#FFBE02" d="M74.9,214h-4l-0.3-1.8H68l-0.3,1.8h-4l3.5-14.4h4.8L74.9,214z M70.1,209.1l-0.3-1.7c0,0,0-0.1,0-0.3
			c0-0.1-0.1-0.7-0.2-1.6c0-0.1,0-0.3,0-0.4c0-0.2,0-0.4-0.1-0.7l-0.1-1.4c0,0.1,0,0.3-0.1,0.4c0,0.2,0,0.3-0.1,0.5
			c0,0.4-0.1,0.7-0.1,0.8c0,0.1,0,0.2,0,0.3l-0.3,1.7l-0.4,2.3H70.1z"/>
		<path fill="#FFBE02" d="M82.6,214h-3.9v-11h-2.2v-3.5h8.3v3.5h-2.2L82.6,214L82.6,214z"/>
		<path fill="#FFBE02" d="M97.6,214h-4l-0.3-1.8h-2.6l-0.3,1.8h-4l3.5-14.4h4.8L97.6,214z M92.8,209.1l-0.3-1.7c0,0,0-0.1,0-0.3
			c0-0.1-0.1-0.7-0.2-1.6c0-0.1,0-0.3,0-0.4c0-0.2,0-0.4-0.1-0.7l-0.1-1.4c0,0.1,0,0.3-0.1,0.4c0,0.2,0,0.3-0.1,0.5
			c0,0.4-0.1,0.7-0.1,0.8c0,0.2,0,0.2,0,0.3l-0.3,1.7l-0.4,2.3H92.8z"/>
	</g>
</g>
</svg>
