<?xml version="1.0" encoding="utf-8"?>
<!-- Generator: Adobe Illustrator 18.0.0, SVG Export Plug-In . SVG Version: 6.00 Build 0)  -->
<!DOCTYPE svg PUBLIC "-//W3C//DTD SVG 1.1//EN" "http://www.w3.org/Graphics/SVG/1.1/DTD/svg11.dtd">
<svg version="1.1" id="Layer_1" xmlns="http://www.w3.org/2000/svg" xmlns:xlink="http://www.w3.org/1999/xlink" x="0px" y="0px"
	 width="64px" height="18px" viewBox="-532.4 10.8 64 18" enable-background="new -532.4 10.8 64 18" xml:space="preserve">
<g>
	<path id="linkedin-circle-icon" fill="#FFFFFF" d="M-500.4,10.8c-5,0-9,4-9,9s4,9,9,9c5,0,9-4,9-9S-495.4,10.8-500.4,10.8z
		 M-502.8,24.1h-2v-6.4h2V24.1z M-503.8,16.9c-0.6,0-1.2-0.5-1.2-1.2c0-0.7,0.5-1.2,1.2-1.2c0.6,0,1.2,0.5,1.2,1.2
		C-502.6,16.4-503.2,16.9-503.8,16.9z M-495.4,24.1h-2c0,0,0-2.4,0-3.4c0-0.9-0.3-1.4-1.1-1.4c-0.8,0-1.2,0.5-1.2,1.4
		c0,1,0,3.4,0,3.4h-1.9v-6.4h1.9v0.9c0,0,0.6-1.1,1.9-1.1s2.3,0.8,2.3,2.5C-495.4,21.8-495.4,24.1-495.4,24.1z"/>
	<path id="twitter-4-icon" fill="#FFFFFF" d="M-523.4,10.8c-5,0-9,4-9,9s4,9,9,9c5,0,9-4,9-9S-518.4,10.8-523.4,10.8z M-518.9,18.2
		c0.1,2.9-2,6.2-5.9,6.2c-1.2,0-2.3-0.3-3.2-0.9c1.1,0.1,2.2-0.2,3.1-0.9c-0.9,0-1.7-0.6-1.9-1.4c0.3,0.1,0.6,0,0.9,0
		c-1-0.2-1.7-1.1-1.7-2.1c0.3,0.2,0.6,0.3,0.9,0.3c-0.9-0.6-1.2-1.8-0.6-2.8c1,1.3,2.6,2.1,4.3,2.2c-0.3-1.3,0.7-2.6,2-2.6
		c0.6,0,1.1,0.3,1.5,0.7c0.5-0.1,0.9-0.3,1.3-0.5c-0.2,0.5-0.5,0.9-0.9,1.2c0.4-0.1,0.8-0.2,1.2-0.3
		C-518.2,17.5-518.5,17.9-518.9,18.2z"/>
	<path fill="#FFFFFF" d="M-477.4,10.8c-5,0-9,4-9,9s4,9,9,9c5,0,9-4,9-9S-472.4,10.8-477.4,10.8z M-471.7,22.7l-4-2.6l4-3.3V22.7z
		 M-472.5,16.1l-4.8,3.9l-4.9-3.9H-472.5z M-482.9,16.9l3.9,3.2l-3.9,2.6V16.9z M-482.5,23.6l4.3-2.9l0.8,0.7l0.7-0.6l4.3,2.8
		H-482.5z"/>
</g>
</svg>
