<?xml version="1.0" encoding="utf-8"?>
<!-- Generator: Adobe Illustrator 18.0.0, SVG Export Plug-In . SVG Version: 6.00 Build 0)  -->
<!DOCTYPE svg PUBLIC "-//W3C//DTD SVG 1.1//EN" "http://www.w3.org/Graphics/SVG/1.1/DTD/svg11.dtd">
<svg version="1.1" id="Layer_1" xmlns="http://www.w3.org/2000/svg" xmlns:xlink="http://www.w3.org/1999/xlink" x="0px" y="0px"
	 width="89px" height="25px" viewBox="-532.4 10.8 89 25" enable-background="new -532.4 10.8 89 25" xml:space="preserve">
<g>
	<path id="linkedin-circle-icon" fill="#FFFFFF" d="M-487.9,10.8c-6.9,0-12.5,5.6-12.5,12.5s5.6,12.5,12.5,12.5
		c6.9,0,12.5-5.6,12.5-12.5S-481,10.8-487.9,10.8z M-491.2,29.3h-2.7v-8.9h2.7V29.3z M-492.6,19.3c-0.9,0-1.6-0.7-1.6-1.6
		c0-0.9,0.7-1.6,1.6-1.6c0.9,0,1.6,0.7,1.6,1.6C-491,18.5-491.7,19.3-492.6,19.3z M-481,29.3h-2.7c0,0,0-3.4,0-4.7s-0.5-2-1.5-2
		c-1.1,0-1.7,0.7-1.7,2c0,1.4,0,4.7,0,4.7h-2.6v-8.9h2.6v1.2c0,0,0.8-1.5,2.7-1.5s3.2,1.1,3.2,3.5C-481,26.1-481,29.3-481,29.3z"/>
	<path id="twitter-4-icon" fill="#FFFFFF" d="M-519.9,10.8c-6.9,0-12.5,5.6-12.5,12.5s5.6,12.5,12.5,12.5c6.9,0,12.5-5.6,12.5-12.5
		S-513,10.8-519.9,10.8z M-513.7,21.1c0.2,4.1-2.9,8.6-8.2,8.6c-1.6,0-3.2-0.5-4.4-1.3c1.5,0.2,3.1-0.2,4.3-1.2
		c-1.3,0-2.3-0.9-2.7-2c0.5,0.1,0.9,0.1,1.3,0c-1.4-0.3-2.4-1.5-2.3-2.9c0.4,0.2,0.8,0.3,1.3,0.4c-1.3-0.9-1.7-2.6-0.9-3.9
		c1.4,1.8,3.6,2.9,6,3c-0.4-1.8,1-3.6,2.8-3.6c0.8,0,1.6,0.4,2.1,0.9c0.7-0.1,1.3-0.4,1.8-0.7c-0.2,0.7-0.7,1.2-1.3,1.6
		c0.6-0.1,1.1-0.2,1.7-0.5C-512.6,20.2-513.1,20.7-513.7,21.1z"/>
	<path fill="#FFFFFF" d="M-455.9,10.8c-6.9,0-12.5,5.6-12.5,12.5s5.6,12.5,12.5,12.5c6.9,0,12.5-5.6,12.5-12.5S-449,10.8-455.9,10.8
		z M-448,27.4l-5.6-3.7l5.6-4.6V27.4z M-449.1,18.2l-6.6,5.5l-6.8-5.5H-449.1z M-463.5,19.2l5.4,4.4l-5.4,3.6V19.2z M-463,28.6l6-4
		l1.2,1l1-0.8l6,3.9H-463z"/>
</g>
</svg>
