<?xml version="1.0" encoding="utf-8"?>
<!-- Generator: Adobe Illustrator 18.0.0, SVG Export Plug-In . SVG Version: 6.00 Build 0)  -->
<!DOCTYPE svg PUBLIC "-//W3C//DTD SVG 1.1//EN" "http://www.w3.org/Graphics/SVG/1.1/DTD/svg11.dtd">
<svg version="1.1" id="Layer_1" xmlns="http://www.w3.org/2000/svg" xmlns:xlink="http://www.w3.org/1999/xlink" x="0px" y="0px"
	 width="98px" height="28px" viewBox="-518.4 23.8 98 28" style="enable-background:new -518.4 23.8 98 28;" xml:space="preserve">
<style type="text/css">
	.st0{fill:#284C6F;}
</style>
<g>
	<path id="linkedin-circle-icon_1_" class="st0" d="M-469.4,23.8c-7.7,0-14,6.3-14,14s6.3,14,14,14c7.7,0,14-6.3,14-14
		S-461.7,23.8-469.4,23.8z M-473.3,44.5h-3.1v-9.9h3.1V44.5z M-474.8,33.2c-1,0-1.8-0.8-1.8-1.8c0-1,0.8-1.8,1.8-1.8
		c1,0,1.8,0.8,1.8,1.8C-473,32.4-473.8,33.2-474.8,33.2z M-461.8,44.5h-3.1c0,0,0-3.8,0-5.2s-0.5-2.2-1.7-2.2
		c-1.2,0-1.9,0.8-1.9,2.2c0,1.5,0,5.2,0,5.2h-2.9v-9.9h2.9v1.3c0,0,0.9-1.6,3-1.6c2.1,0,3.6,1.3,3.6,3.9
		C-461.8,40.8-461.8,44.5-461.8,44.5z"/>
	<path id="twitter-4-icon_1_" class="st0" d="M-504.4,23.8c-7.7,0-14,6.3-14,14s6.3,14,14,14c7.7,0,14-6.3,14-14
		S-496.7,23.8-504.4,23.8z M-497.4,35.3c0.2,4.6-3.2,9.7-9.2,9.7c-1.8,0-3.5-0.5-5-1.5c1.7,0.2,3.4-0.3,4.8-1.3c-1.4,0-2.6-1-3-2.3
		c0.5,0.1,1,0.1,1.5-0.1c-1.6-0.3-2.6-1.7-2.6-3.2c0.4,0.2,0.9,0.4,1.5,0.4c-1.4-1-1.9-2.9-1-4.3c1.6,2,4,3.3,6.7,3.4
		c-0.5-2,1.1-4,3.2-4c0.9,0,1.8,0.4,2.4,1c0.7-0.1,1.4-0.4,2.1-0.8c-0.2,0.8-0.8,1.4-1.4,1.8c0.7-0.1,1.3-0.3,1.9-0.5
		C-496.2,34.3-496.7,34.9-497.4,35.3z"/>
	<path class="st0" d="M-434.4,23.8c-7.7,0-14,6.3-14,14s6.3,14,14,14c7.7,0,14-6.3,14-14S-426.7,23.8-434.4,23.8z M-425.6,42.4
		l-6.3-4.1l6.3-5.2V42.4z M-426.8,32.1l-7.4,6.1l-7.6-6.1H-426.8z M-442.9,33.2l6.1,4.9l-6.1,4.1V33.2z M-442.3,43.7l6.8-4.5
		l1.3,1.1l1.1-0.9l6.7,4.4H-442.3z"/>
</g>
</svg>
