<?xml version="1.0" encoding="utf-8"?>
<!-- Generator: Adobe Illustrator 18.0.0, SVG Export Plug-In . SVG Version: 6.00 Build 0)  -->
<!DOCTYPE svg PUBLIC "-//W3C//DTD SVG 1.1//EN" "http://www.w3.org/Graphics/SVG/1.1/DTD/svg11.dtd">
<svg version="1.1" id="TOOLS-_Body" xmlns="http://www.w3.org/2000/svg" xmlns:xlink="http://www.w3.org/1999/xlink" x="0px"
	 y="0px" width="156px" height="155px" viewBox="0 0 156 155" style="enable-background:new 0 0 156 155;" xml:space="preserve">
<style type="text/css">
	.st0{fill:none;}
	.st1{fill:#294B6E;}
	.st2{fill:none;stroke:url(#New_Pattern_Swatch_4);stroke-width:2.3;stroke-miterlimit:10;}
</style>
<pattern  x="-2784.5" y="-2707.5" width="50" height="50" patternUnits="userSpaceOnUse" id="New_Pattern_Swatch_4" viewBox="0 -50 50 50" style="overflow:visible;">
	<g>
		<polygon class="st0" points="0,0 50,0 50,-50 0,-50 		"/>
		<g>
			<polygon class="st1" points="50,0 0,0 0,-50 50,-50 			"/>
		</g>
	</g>
</pattern>
<g>
	<path class="st2" d="M78,149c-39.4,0-71.5-32.1-71.5-71.5C6.5,38.1,38.6,6,78,6c39.4,0,71.5,32.1,71.5,71.5
		C149.5,116.9,117.4,149,78,149z"/>
	<g>
		<path class="st2" d="M97.7,57.4c0,8.1-6.5,14.6-14.6,14.6c-8.1,0-14.6-6.5-14.6-14.6c0-8.1,6.5-14.6,14.6-14.6
			C91.1,42.8,97.7,49.4,97.7,57.4z"/>
		<circle class="st2" cx="59" cy="114.1" r="15.3"/>
		<circle class="st2" cx="112" cy="86.2" r="20.6"/>
		<circle class="st2" cx="48.4" cy="84.7" r="9.2"/>
		<circle class="st2" cx="87.7" cy="125.5" r="8"/>
		<circle class="st2" cx="69.9" cy="31" r="9.5"/>
		<circle class="st2" cx="111.9" cy="48.7" r="10.6"/>
		<circle class="st2" cx="33.3" cy="100.6" r="6.9"/>
		<path class="st2" d="M63.7,53.8c0,9.6-7.8,17.4-17.4,17.4c-9.6,0-17.4-7.8-17.4-17.4c0-9.6,7.8-17.4,17.4-17.4
			C56,36.4,63.7,44.2,63.7,53.8z"/>
		<circle class="st2" cx="27.8" cy="75.3" r="4.5"/>
		<circle class="st2" cx="74.8" cy="87.2" r="10.5"/>
		<circle class="st2" cx="94.4" cy="33.3" r="4.1"/>
		<circle class="st2" cx="105.8" cy="117.8" r="5.8"/>
		<circle class="st2" cx="86.7" cy="104.6" r="5.1"/>
	</g>
</g>
</svg>
