<?xml version="1.0" encoding="utf-8"?>
<!-- Generator: Adobe Illustrator 18.0.0, SVG Export Plug-In . SVG Version: 6.00 Build 0)  -->
<!DOCTYPE svg PUBLIC "-//W3C//DTD SVG 1.1//EN" "http://www.w3.org/Graphics/SVG/1.1/DTD/svg11.dtd">
<svg version="1.1" id="Layer_1" xmlns="http://www.w3.org/2000/svg" xmlns:xlink="http://www.w3.org/1999/xlink" x="0px" y="0px"
	 width="223px" height="230px" viewBox="0 0 223 230" enable-background="new 0 0 223 230" xml:space="preserve">
<pattern  x="-82.5" y="-153" width="50" height="50" patternUnits="userSpaceOnUse" id="New_Pattern_Swatch_1" viewBox="0 -50 50 50" overflow="visible">
	<g>
		<polygon fill="none" points="0,0 50,0 50,-50 0,-50 		"/>
		<polygon fill="#FCB017" points="50,0 0,0 0,-50 50,-50 		"/>
	</g>
</pattern>
<g>
	<g>
		
		<path fill="#07B3C5" d="M215.4,152l-7.7-3.1c-13.9,37.7-50.2,64.6-92.6,64.6c-54.4,0-98.6-44.2-98.6-98.5
			c0-54.3,44.2-98.5,98.6-98.5c8.1,0,16,1,23.6,2.9l2.3-7.9l2.3-7.9c-9-2.3-18.5-3.5-28.2-3.5C51.6,0,0,51.6,0,115
			c0,63.4,51.6,115,115.1,115c49.4,0,91.6-31.2,107.9-74.9L215.4,152z"/>
		<pattern  id="SVGID_1_" xlink:href="#New_Pattern_Swatch_1" patternTransform="matrix(2.1267 0 0 2.1246 8634.835 8467.2422)">
		</pattern>
		<path fill="url(#SVGID_1_)" d="M213.8,115c0,11.9-2.1,23.3-6,33.9l7.7,3.1c4.3-11.5,6.6-24,6.6-37c0-50-34.5-92-80.9-103.6
			l-2.3,7.9C181.8,29.9,213.8,68.8,213.8,115z"/>
	</g>
	<rect x="72.4" y="90.2" fill="none" width="95.2" height="49.7"/>
	<rect x="91.6" y="180.7" fill="none" width="83.3" height="26.1"/>
	<text transform="matrix(1.001 0 0 1 91.6294 192.2344)"><tspan x="0" y="0" fill="#07B3C5" font-family="'PTSans-Bold'" font-size="16.4569">78</tspan><tspan x="18.7" y="0" font-family="'PTSans-Bold'" font-size="16.4569">/</tspan><tspan x="25.4" y="0" fill="#E94425" font-family="'PTSans-Bold'" font-size="16.4569">19</tspan></text>
</g>
</svg>
