<?xml version="1.0" encoding="utf-8"?>
<!-- Generator: Adobe Illustrator 18.0.0, SVG Export Plug-In . SVG Version: 6.00 Build 0)  -->
<!DOCTYPE svg PUBLIC "-//W3C//DTD SVG 1.1//EN" "http://www.w3.org/Graphics/SVG/1.1/DTD/svg11.dtd">
<svg version="1.1" id="Layer_1" xmlns="http://www.w3.org/2000/svg" xmlns:xlink="http://www.w3.org/1999/xlink" x="0px" y="0px"
	 width="603.8px" height="110.7px" viewBox="0 0 603.8 110.7" enable-background="new 0 0 603.8 110.7" xml:space="preserve">
<pattern  y="302" width="32.7" height="32.7" patternUnits="userSpaceOnUse" id="SVGID_5_" viewBox="0 -32.7 32.7 32.7" overflow="visible">
	<g>
		<polygon fill="none" points="0,0 32.7,0 32.7,-32.7 0,-32.7 		"/>
		<g>
			<polygon fill="none" points="0,-32.7 32.7,-32.7 32.7,0 0,0 			"/>
			<g>
				<polygon fill="none" points="0,0 32.7,0 32.7,-32.7 0,-32.7 				"/>
				<g>
					<polygon fill="none" points="0,-32.7 32.7,-32.7 32.7,0 0,0 					"/>
					<g>
						<polygon fill="none" points="0,0 32.7,0 32.7,-32.7 0,-32.7 						"/>
						<g>
							<polygon fill="none" points="0,-32.7 32.7,-32.7 32.7,0 0,0 							"/>
							<g>
								<polygon fill="none" points="0,0 32.7,0 32.7,-32.7 0,-32.7 								"/>
								<g>
									<polygon fill="#294B6E" points="32.7,0 0,0 0,-32.7 32.7,-32.7 									"/>
								</g>
							</g>
						</g>
					</g>
				</g>
			</g>
		</g>
	</g>
</pattern>
<pattern  y="302" width="32.7" height="32.7" patternUnits="userSpaceOnUse" id="SVGID_6_" viewBox="0 -32.7 32.7 32.7" overflow="visible">
	<g>
		<polygon fill="none" points="0,0 32.7,0 32.7,-32.7 0,-32.7 		"/>
		<g>
			<polygon fill="none" points="0,-32.7 32.7,-32.7 32.7,0 0,0 			"/>
			<g>
				<polygon fill="none" points="0,0 32.7,0 32.7,-32.7 0,-32.7 				"/>
				<g>
					<polygon fill="none" points="0,-32.7 32.7,-32.7 32.7,0 0,0 					"/>
					<g>
						<polygon fill="none" points="0,0 32.7,0 32.7,-32.7 0,-32.7 						"/>
						<g>
							<polygon fill="none" points="0,-32.7 32.7,-32.7 32.7,0 0,0 							"/>
							<g>
								<polygon fill="none" points="0,0 32.7,0 32.7,-32.7 0,-32.7 								"/>
								<g>
									<polygon fill="#294B6E" points="32.7,0 0,0 0,-32.7 32.7,-32.7 									"/>
								</g>
							</g>
						</g>
					</g>
				</g>
			</g>
		</g>
	</g>
</pattern>
<pattern  y="302" width="32.7" height="32.7" patternUnits="userSpaceOnUse" id="SVGID_7_" viewBox="0 -32.7 32.7 32.7" overflow="visible">
	<g>
		<polygon fill="none" points="0,0 32.7,0 32.7,-32.7 0,-32.7 		"/>
		<g>
			<polygon fill="none" points="0,-32.7 32.7,-32.7 32.7,0 0,0 			"/>
			<g>
				<polygon fill="none" points="0,0 32.7,0 32.7,-32.7 0,-32.7 				"/>
				<g>
					<polygon fill="none" points="0,-32.7 32.7,-32.7 32.7,0 0,0 					"/>
					<g>
						<polygon fill="none" points="0,0 32.7,0 32.7,-32.7 0,-32.7 						"/>
						<g>
							<polygon fill="none" points="0,-32.7 32.7,-32.7 32.7,0 0,0 							"/>
							<g>
								<polygon fill="none" points="0,0 32.7,0 32.7,-32.7 0,-32.7 								"/>
								<g>
									<polygon fill="#294B6E" points="32.7,0 0,0 0,-32.7 32.7,-32.7 									"/>
								</g>
							</g>
						</g>
					</g>
				</g>
			</g>
		</g>
	</g>
</pattern>
<pattern  y="302" width="32.7" height="32.7" patternUnits="userSpaceOnUse" id="SVGID_8_" viewBox="0 -32.7 32.7 32.7" overflow="visible">
	<g>
		<polygon fill="none" points="0,0 32.7,0 32.7,-32.7 0,-32.7 		"/>
		<g>
			<polygon fill="none" points="0,-32.7 32.7,-32.7 32.7,0 0,0 			"/>
			<g>
				<polygon fill="none" points="0,0 32.7,0 32.7,-32.7 0,-32.7 				"/>
				<g>
					<polygon fill="none" points="0,-32.7 32.7,-32.7 32.7,0 0,0 					"/>
					<g>
						<polygon fill="none" points="0,0 32.7,0 32.7,-32.7 0,-32.7 						"/>
						<g>
							<polygon fill="none" points="0,-32.7 32.7,-32.7 32.7,0 0,0 							"/>
							<g>
								<polygon fill="none" points="0,0 32.7,0 32.7,-32.7 0,-32.7 								"/>
								<g>
									<polygon fill="#294B6E" points="32.7,0 0,0 0,-32.7 32.7,-32.7 									"/>
								</g>
							</g>
						</g>
					</g>
				</g>
			</g>
		</g>
	</g>
</pattern>
<g id="Layer_1_1_">
</g>
<g id="Layer_2">
	<g>
		<g>
			<g>
				<g>
					<path fill="#FFFFFF" d="M55.1,66.5c-1.9-0.1-4.3,0.5-6.6,1.3c-6.5,2.7-11.3,7.1-15.4,12.7c-0.3,0.5-0.2,1,0.1,1.5
						c3.2,4.3,7.2,8,11.9,10.8c5.8,3.2,11.8,4.1,18,1.5c6.3-2.7,11-7.1,15-12.4c0.3-0.5,0.2-0.8-0.1-1.3c-2.5-3.5-5.5-6.5-9-9
						C65.1,68.7,60.7,66.5,55.1,66.5z M80.4,29.5c-4,0-7.1,3-7.1,7s3.2,7.2,7.1,7.1c4.1-0.1,7.1-2.9,7.2-7.1
						C87.7,32.3,84.2,29.4,80.4,29.5z M30.8,29.5c-3.5-0.1-7.1,2.5-7.2,7c0,4.1,3,7.1,7.1,7.1c4.7,0,7.1-3.8,7.1-7
						C37.8,32.7,34.8,29.5,30.8,29.5z M48.6,35.5c0,3.2,2.4,7,7.1,7c4.5,0,7.1-3.7,7.1-7c0-3.3-2.4-7-7.1-7
						C51,28.5,48.6,32.2,48.6,35.5z M56.9,53.8c0-2.8,0-5.4,0-8.2c0-1.1-0.6-1-1.3-1c-0.7,0-1.3,0-1.3,1c0,5.3,0,10.7,0,16
						c0,1.1,0.6,1,1.3,1c0.7,0,1.2-0.1,1.2-1.1C56.8,59.2,56.9,56.5,56.9,53.8z"/>
					<path fill="#254C70" d="M78.1,80.4c-2.5-3.5-5.5-6.5-9-9c-4-2.9-8.3-4.8-14-4.8c-1.9-0.1-4.3,0.5-6.6,1.3
						C42,70.6,37.2,75,33.1,80.6c-0.3,0.5-0.2,1,0.1,1.5c3.2,4.3,7.2,8,11.9,10.8c5.8,3.2,11.8,4.1,18,1.5c6.3-2.7,11-7.1,15-12.4
						C78.6,81.2,78.4,80.9,78.1,80.4z M74.4,81.6c-3.8,4.5-8.2,8.4-14,10.2c-1.5,0.5-3.2,0.7-4.1,0.8c-4.7-0.1-8.2-1.5-11.4-3.7
						c-3-2-5.7-4.5-8-7.2c-0.2-0.2-0.2-0.8-0.1-1.1c3.6-4.2,7.6-7.8,12.8-9.8c5.2-2,10.1-1.2,14.9,1.5c3.7,2.2,6.7,5,9.5,8.2
						C74.4,80.7,74.4,81.4,74.4,81.6z"/>
					<path fill="#254C70" d="M80.4,29.5c-4,0-7.1,3-7.1,7s3.2,7.2,7.1,7.1c4.1-0.1,7.1-2.9,7.2-7.1C87.7,32.3,84.2,29.4,80.4,29.5z
						 M80.4,40.6c-2.2,0-4-1.8-4-4c0-2.2,1.8-4,4-4c2.2,0,4,1.9,4,4C84.6,38.8,82.6,40.6,80.4,40.6z"/>
					<path fill="#254C70" d="M30.8,29.5c-3.5-0.1-7.1,2.5-7.2,7c0,4.1,3,7.1,7.1,7.1c4.7,0,7.1-3.8,7.1-7
						C37.8,32.7,34.8,29.5,30.8,29.5z M30.7,40.6c-2.2,0-4-1.9-4.1-4c0-2.2,1.9-4,4-4c2.2,0,4,1.8,4,4
						C34.7,38.8,32.9,40.6,30.7,40.6z"/>
					<path fill="#254C70" d="M55.6,28.5c-4.7,0-7.1,3.6-7.1,7c0,3.2,2.4,7,7.1,7c4.5,0,7.1-3.7,7.1-7C62.7,32.2,60.3,28.5,55.6,28.5
						z M55.7,39.4c-2.2,0-4-1.8-4-3.8c0-2.2,1.8-4,4-3.8c2,0,3.8,1.8,3.8,3.8C59.6,37.6,57.7,39.4,55.7,39.4z"/>
					<path fill="#254C70" d="M56.9,53.8c0,2.7,0,5.3,0,8c0,1-0.5,1.1-1.2,1.1c-0.7,0-1.3,0.1-1.3-1c0-5.3,0-10.7,0-16
						c0-1,0.6-1,1.3-1c0.7,0,1.3,0,1.3,1C56.8,48.4,56.9,51,56.9,53.8z"/>
					<path fill="#254C70" d="M71.6,56c-1.5,2.7-3,5.4-4.5,8c-0.5,1-1,0.8-1.7,0.5c-0.6-0.3-1.2-0.6-0.6-1.7c3-5.4,6-11,9-16.3
						c0.6-1.1,1.1-0.7,1.7-0.3c0.6,0.3,1.2,0.6,0.6,1.5C74.6,50.5,73.1,53.2,71.6,56z"/>
					<path fill="#254C70" d="M39.4,56c1.5,2.7,3,5.4,4.5,8c0.5,1,1,0.8,1.7,0.5c0.6-0.3,1.2-0.6,0.6-1.7c-3-5.4-6-11-9-16.3
						c-0.6-1.1-1.1-0.7-1.7-0.3c-0.6,0.3-1.2,0.6-0.6,1.5C36.4,50.5,38,53.2,39.4,56z"/>
					<path fill="#FFFFFF" d="M56.3,92.7c-4.7-0.1-8.2-1.5-11.4-3.7c-3-2-5.7-4.5-8-7.2c-0.2-0.2-0.2-0.8-0.1-1.1
						c3.6-4.2,7.6-7.8,12.8-9.8c5.2-2,10.1-1.2,14.9,1.5c3.7,2.2,6.7,5,9.5,8.2c0.2,0.2,0.2,0.8,0.1,1.1c-3.8,4.5-8.2,8.4-14,10.2
						C58.8,92.3,57.2,92.5,56.3,92.7z M47.4,81.2c-0.2,3.8,3,8.2,8.2,8.3c4.5,0.1,8.3-3.6,8.3-8c0-4.7-3.7-8.4-8.3-8.4
						C51,73,47.4,76.5,47.4,81.2z"/>
					<path fill="#254C70" d="M47.4,81.2c0-4.5,3.7-8.2,8.2-8.2c4.5,0,8.3,3.7,8.3,8.4c0,4.5-3.8,8.2-8.3,8
						C50.4,89.3,47.2,85,47.4,81.2z M51.1,81.2c0,2.4,2.2,4.5,4.5,4.5c2.4,0,4.5-2.2,4.5-4.5c0-2.4-2-4.5-4.5-4.5
						C53.2,76.7,51.1,78.7,51.1,81.2z"/>
					<path fill="#FFFFFF" d="M51.1,81.2c0-2.4,2-4.5,4.5-4.5c2.4,0,4.5,2,4.5,4.5s-2,4.5-4.5,4.5C53.3,85.7,51.1,83.5,51.1,81.2z"/>
				</g>
			</g>
			<g>
				<g>
					<g>
						<pattern  id="SVGID_1_" xlink:href="#SVGID_5_" patternTransform="matrix(0.7374 0 0 0.7372 -18810.5547 33956.793)">
						</pattern>
						<path fill="none" stroke="url(#SVGID_1_)" stroke-width="3" stroke-miterlimit="10" d="M55.6,109c-0.3,0-0.7,0-1.1,0
							c-13.8-0.2-27-5.8-36.8-15.7S2.3,70.3,2,56.5C1.8,41.9,7.2,28.3,17.4,18S41.1,2,55.7,2c0.3,0,0.7,0,1.1,0
							c13.8,0.2,27,5.8,36.8,15.7c9.8,9.8,15.5,23,15.8,36.8c0.2,14.5-5.2,28.2-15.4,38.5C83.5,103.4,70,109,55.6,109z"/>
					</g>
				</g>
			</g>
		</g>
		<g>
			<g>
				<g>
					<path fill="#254C70" d="M366,27.2c4-2.4,8.2-4,12.7-4.7c11.5-1.5,21.4,1.7,29.6,10.1c6.8,7.1,10,15.7,9.3,25.4
						c-0.8,11.2-6.3,19.7-15.7,25.8c-0.3,0.2-0.7,0.1-1.1-0.1c-1.7-0.7-3.5-1.2-5.2-1.8c-1.2-0.5-1.5-0.7-1-1.9
						c0.8-2,1.3-4.3,2.3-6.4c1.3-1.3,2.8-2.4,4-3.8c2.8-3.2,4.5-7,5-11.2c1-7-1.1-13.2-5.9-18.4c-4-4.2-8.9-6.5-14.8-6.8
						c-4.8-0.3-9.3,0.8-13.3,3.2c-0.3,0.2-0.7,0.5-1.2,0.2c-0.2-0.3-0.1-0.7,0-1.1c0.6-1.7,1.1-3.3,1.7-5c0.2-0.7,0.1-1.1-0.6-1.3
						c-1.5-0.5-3.2-1.1-4.8-1.5C366.6,28,366,28,366,27.2z"/>
					<path fill="none" stroke="#254C70" stroke-width="2" stroke-miterlimit="10" d="M397.1,73.9c-0.7,2.3-1.5,4.5-2.4,6.7
						c-0.2,0.6-0.1,1,0.5,1.1c2.2,0.7,4.5,1.5,6.6,2.3c-3.8,2.5-8,4.1-12.7,4.8c-1.9,0.3-4,0.5-5.9,0.5c-6.2-0.1-11.9-1.7-17.2-5
						c-5.5-3.3-9.7-8-12.7-13.7c-1.8-3.6-2.9-7.5-3.3-11.5c-0.6-5.3,0.2-10.3,2-15.3c1.5-3.8,3.6-7.3,6.5-10.3
						c2.2-2.3,4.5-4.5,7.2-6c0.1,0.5,0.6,0.5,0.8,0.6c1.8,0.6,3.6,1.3,5.4,1.8c0.7,0.2,0.8,0.5,0.6,1.2c-0.7,2-1.5,4.1-2,6.3
						c0.2,0.6-0.3,0.7-0.6,1c-3.6,2.8-6.3,6.4-7.6,10.6c-2.4,7.6-1.1,14.5,3.7,20.7c3.7,4.8,8.8,7.5,14.8,8.3
						c5.4,0.7,10.5-0.5,15.2-3.5C396.4,74,396.8,73.7,397.1,73.9z"/>
					<path fill="#254C70" d="M383.6,47.2c0.2-0.1,0.3-0.3,0.3-0.5c1.5-2.7,4.1-4,7.1-3.6c3.2,0.5,5.7,2.5,6.4,5.4
						c0.5,1.9,0.1,3.8-0.6,5.7c-1.2,3-3.2,5.7-5.4,8c-2.3,2.5-4.7,4.8-7.2,7c-0.3,0.3-0.6,0.5-1.1,0.1c-3.6-3.2-7.2-6.6-10.1-10.6
						c-1.5-2.2-2.9-4.5-3.3-7.3c-0.6-3.5,1.5-6.7,5-8c3.5-1.2,7,0.1,8.7,3.2C383.6,47,383.6,47.1,383.6,47.2z"/>
				</g>
			</g>
			<g>
				<g>
					<g>
						<pattern  id="SVGID_2_" xlink:href="#SVGID_6_" patternTransform="matrix(0.7374 0 0 0.7372 -18810.5547 33956.793)">
						</pattern>
						<path fill="none" stroke="url(#SVGID_2_)" stroke-width="3" stroke-miterlimit="10" d="M384.1,109c-0.3,0-0.7,0-1.1,0
							c-13.8-0.2-27-5.8-36.8-15.7c-9.8-10-15.5-23-15.8-36.8c-0.2-14.5,5.2-28.2,15.4-38.5c10.2-10.3,23.7-16,38.2-16
							c0.3,0,0.7,0,1.1,0c13.8,0.2,27,5.8,36.8,15.7c9.8,9.8,15.5,23,15.8,36.8c0.2,14.5-5.2,28.2-15.4,38.5
							C412,103.4,398.5,109,384.1,109z"/>
					</g>
				</g>
			</g>
		</g>
		<g>
			<g>
				<g>
					<path fill="#254C70" d="M242.1,23.5c-0.2,0.2-0.3,0.3-0.5,0.5c-1.8,2.4-3.6,4.7-5.4,7.1c-0.5,0.7-0.8,0.8-1.7,0.3
						c-0.8-0.6-1.8-1-2.8-1.3c-5.7-2.2-11.4-2.3-17.2-1.1c-8.9,1.8-15.4,6.6-19.3,14.8c-1.5,3.2-2.4,6.7-2.8,10.3
						c-0.5,4-0.3,8,0.7,11.8c2.5,8.5,8,14.5,15.8,18.5c4.8,2.4,9.8,3.6,15.3,2.9c8.5-1.2,14.9-5.7,19.5-13c2.3-3.7,3.3-7.7,3.7-12.3
						c-0.2,0.6-0.3,1.1-0.6,1.5c-0.1,0.5-0.3,0.8-0.6,1.3c-3.7,7.1-9.5,11.5-17.1,13.8c-5.5,1.7-11.2,1.5-16.2-1.7
						c-7.3-4.5-10.8-11.2-10.1-19.8c0.6-6.7,3.7-12.2,9.6-15.5c4.7-2.7,9.6-3.6,14.8-1.5c0.5,0.2,0.8,0.5,1.5,0.7
						c-2.3,3-4.5,5.9-6.6,8.8c0.3,0,0.6,0.1,0.8,0c3.3-0.3,6.8-0.6,10.2-1c4.3-0.5,8.8-0.8,13.1-1.3c1.1-0.1,1.2-0.1,1-1.3
						c-1-4.1-1.8-8.2-2.8-12.2C243.7,30.7,242.8,27.2,242.1,23.5z"/>
					<path fill="#254C70" d="M242.1,23.5c0.8,3.6,1.7,7.2,2.4,10.7c1,4.1,1.8,8.2,2.8,12.2c0.2,1.1,0.1,1.2-1,1.3
						c-4.3,0.3-8.8,0.8-13.1,1.3c-3.3,0.3-6.8,0.7-10.2,1c-0.2,0-0.5,0-0.8,0c2.3-3,4.5-5.9,6.6-8.8c-0.6-0.2-1-0.6-1.5-0.7
						c-5.2-2.2-10.1-1.3-14.8,1.5c-5.9,3.5-9,8.8-9.6,15.5c-0.7,8.7,2.8,15.4,10.1,19.8c5,3.2,10.6,3.3,16.2,1.7
						c7.6-2.3,13.5-6.7,17.1-13.8c0.2-0.3,0.3-0.8,0.6-1.3c0.1-0.5,0.3-0.8,0.6-1.5c-0.3,4.5-1.5,8.5-3.7,12.3
						c-4.5,7.3-11,11.8-19.5,13c-5.3,0.7-10.5-0.5-15.3-2.9c-7.8-4-13.2-10-15.8-18.5c-1.2-3.8-1.2-7.8-0.7-11.8
						c0.3-3.6,1.2-7.1,2.8-10.3c4-8.2,10.5-13.1,19.3-14.8c5.8-1.2,11.5-1.1,17.2,1.1c1,0.3,1.9,0.8,2.8,1.3
						c0.8,0.5,1.2,0.2,1.7-0.3c1.8-2.4,3.6-4.7,5.4-7.1C241.8,23.9,241.9,23.8,242.1,23.5z"/>
				</g>
			</g>
			<g>
				<g>
					<g>
						<pattern  id="SVGID_3_" xlink:href="#SVGID_7_" patternTransform="matrix(0.7374 0 0 0.7372 -18810.5547 33956.793)">
						</pattern>
						<path fill="none" stroke="url(#SVGID_3_)" stroke-width="3" stroke-miterlimit="10" d="M219.9,109c-0.3,0-0.7,0-1.1,0
							c-13.8-0.2-27-5.8-36.8-15.7c-9.8-10-15.5-23-15.8-36.8c-0.2-14.5,5.2-28.2,15.4-38.5c10.2-10.3,23.7-16,38.2-16
							c0.3,0,0.7,0,1.1,0c13.8,0.2,27,5.8,36.8,15.7c9.8,9.8,15.5,23,15.8,36.8c0.2,14.5-5.2,28.2-15.4,38.5
							C247.8,103.4,234.3,109,219.9,109z"/>
					</g>
				</g>
			</g>
		</g>
		<g>
			<g>
				<g>
					<g>
						<pattern  id="SVGID_4_" xlink:href="#SVGID_8_" patternTransform="matrix(0.7374 0 0 0.7372 -18810.5547 33956.793)">
						</pattern>
						<path fill="none" stroke="url(#SVGID_4_)" stroke-width="3" stroke-miterlimit="10" d="M548.3,109c-0.3,0-0.7,0-1.1,0
							c-13.8-0.2-27-5.8-36.8-15.7c-9.8-10-15.5-23-15.8-36.8c-0.2-14.5,5.2-28.2,15.4-38.5c10.2-10.3,23.7-16,38.2-16
							c0.3,0,0.7,0,1.1,0c13.8,0.2,27,5.8,36.8,15.7c9.8,9.8,15.5,23,15.8,36.8c0.2,14.5-5.2,28.2-15.4,38.5
							C576.3,103.4,562.8,109,548.3,109z"/>
					</g>
				</g>
			</g>
			<g>
				<g>
					<path fill="#254C70" d="M579.8,69.2c-3.2-0.1-5.9-0.2-8.8-0.2c-0.7,0-1.1-0.2-1.3-1c-0.8-2.4-1.8-4.8-2.7-7.2
						c-0.1-0.2-0.2-0.5-0.3-0.7c-0.1,0.3-0.2,0.5-0.2,0.7c-1,2.5-1.8,5-2.8,7.5c-0.1,0.5-0.3,0.8-1,0.8c-2.2,0-4.3,0.1-6.5,0.1
						c-0.8,0-1.5,0.1-2.5,0.1c0.2,0.2,0.3,0.3,0.6,0.5c2.2,1.7,4.2,3.2,6.4,4.8c0.5,0.3,0.6,0.7,0.5,1.3c-0.3,1.1-0.6,2.2-1,3.2
						c-0.5,1.7-1,3.2-1.5,5c0.3-0.2,0.6-0.3,0.8-0.6c2.2-1.5,4.2-2.8,6.4-4.2c0.6-0.3,1.1-0.3,1.5,0c2,1.5,4.2,2.9,6.4,4.2
						c0.2,0.1,0.5,0.2,0.8,0.5c-0.1-0.5-0.2-0.7-0.2-1.1c-0.7-2.4-1.5-4.8-2.2-7.2c-0.2-0.6-0.1-1,0.5-1.3
						C575.2,72.9,577.3,71.2,579.8,69.2z M521.8,84L521.8,84c2.4-1.5,4.6-2.9,6.8-4.5c0.8-0.6,1.3-0.5,2.2,0c2,1.5,4.1,2.8,6.3,4.2
						c0.2,0.1,0.3,0.2,0.7,0.3c-0.8-2.9-1.7-5.7-2.4-8.4c-0.1-0.5-0.1-0.8,0.3-1.2c1.5-1.1,3-2.3,4.5-3.5c0.8-0.6,1.5-1.2,2.5-2
						c-3-0.1-5.8-0.2-8.5-0.2c-0.8,0-1.2-0.2-1.5-1.1c-0.8-2.4-1.7-4.8-2.7-7.2c-0.1-0.2-0.1-0.3-0.3-0.6c-0.1,0.3-0.2,0.5-0.2,0.7
						c-1,2.5-1.8,5-2.8,7.5c-0.1,0.5-0.3,0.8-1,0.8c-2.3,0-4.5,0.1-6.7,0.1c-0.7,0-1.3,0.1-2.2,0.2c2,1.5,3.8,2.9,5.7,4.3
						c1.9,1.5,1.9,1.5,1.2,3.8C523.2,79.5,522.5,81.9,521.8,84z M542.8,36.2c0-0.1,0-0.2,0-0.3c-2.8,0-5.5,0-8.3,0
						c-0.8,0-1.5-0.2-1.7-1.2c-0.8-2.4-1.7-4.7-2.5-7.1c-0.1-0.2-0.2-0.3-0.3-0.7c-0.1,0.3-0.2,0.5-0.2,0.7c-0.8,2.3-1.7,4.5-2.5,7
						c-0.5,1.3-0.5,1.3-1.9,1.3c-2.8,0.1-5.4,0.1-8.3,0.2c0.3,0.2,0.6,0.5,0.8,0.6c2,1.5,4.1,3.2,6.2,4.7c0.5,0.3,0.7,0.7,0.5,1.3
						c-0.2,0.6-0.3,1.3-0.6,2c-0.6,2-1.2,4.1-1.8,6.3c0.3-0.2,0.5-0.2,0.6-0.3c2.3-1.5,4.5-3,6.7-4.5c0.5-0.3,0.8-0.3,1.3,0
						c1.5,1.1,3.2,2.2,4.8,3.2c0.8,0.5,1.5,1.1,2.5,1.7c-0.7-2.5-1.5-4.8-2-7.2c-0.6-2-0.6-2,1.1-3.3
						C538.8,39.2,540.8,37.7,542.8,36.2z M554,35.9c0,0.1,0,0.2,0,0.3c0.1,0.1,0.3,0.2,0.5,0.5c2,1.5,4,3.2,6.2,4.7
						c0.7,0.5,1,1,0.6,1.8c-0.6,1.7-1.1,3.5-1.5,5.3c-0.2,0.8-0.5,1.8-0.8,2.9c2.5-1.7,5-3.2,7.3-5c0.5-0.3,1-0.3,1.5,0
						c2.2,1.5,4.3,2.9,6.4,4.3c0.2,0.1,0.5,0.3,1,0.6c-0.8-2.9-1.5-5.5-2.4-8.2c-0.2-0.7-0.1-1.2,0.5-1.7c1.3-1,2.7-1.9,3.8-3
						c1-0.7,1.9-1.5,2.9-2.2c0-0.1,0-0.2-0.1-0.3c-2.8,0-5.5,0-8.3,0c-0.8,0-1.3-0.2-1.7-1.1c-0.3-1.5-1-2.8-1.5-4.1
						c-0.5-1.2-0.8-2.4-1.5-3.7c-0.1,0.3-0.2,0.6-0.3,0.8c-0.8,2.3-1.8,4.5-2.5,7c-0.3,1-0.8,1.3-1.8,1.3
						C559.4,35.8,556.6,35.9,554,35.9z"/>
					<path fill="#254C70" d="M579.8,69.2c-2.5,1.9-4.7,3.6-7,5.3c-0.5,0.3-0.6,0.7-0.5,1.3c0.7,2.4,1.5,4.8,2.2,7.2
						c0.1,0.2,0.1,0.6,0.2,1.1c-0.3-0.2-0.6-0.3-0.8-0.5c-2.2-1.5-4.2-2.8-6.4-4.2c-0.6-0.3-1-0.5-1.5,0c-2,1.5-4.2,2.9-6.4,4.2
						c-0.2,0.1-0.5,0.2-0.8,0.6c0.5-1.8,1-3.5,1.5-5c0.3-1.1,0.6-2.2,1-3.2c0.2-0.6,0.1-1-0.5-1.3c-2.2-1.5-4.2-3.2-6.4-4.8
						c-0.1-0.1-0.2-0.2-0.6-0.5c1-0.1,1.7-0.1,2.5-0.1c2.2-0.1,4.3-0.1,6.5-0.1c0.6,0,0.7-0.3,1-0.8c1-2.5,1.8-5,2.8-7.5
						c0.1-0.2,0.1-0.3,0.2-0.7c0.1,0.3,0.2,0.5,0.3,0.7c0.8,2.4,1.8,4.8,2.7,7.2c0.2,0.7,0.6,1,1.3,1C574,69,576.7,69.1,579.8,69.2z
						"/>
					<path fill="#254C70" d="M521.8,84c0.6-2.2,1.3-4.5,1.9-6.6c0.7-2.3,0.7-2.3-1.2-3.8c-1.8-1.5-3.7-2.8-5.7-4.3
						c0.8-0.1,1.5-0.1,2.2-0.2c2.3-0.1,4.5-0.1,6.7-0.1c0.6,0,0.8-0.3,1-0.8c0.8-2.5,1.8-5,2.8-7.5c0.1-0.2,0.1-0.3,0.2-0.7
						c0.1,0.2,0.2,0.5,0.3,0.6c0.8,2.4,1.8,4.8,2.7,7.2c0.2,0.8,0.7,1.1,1.5,1.1c2.8,0,5.5,0.1,8.5,0.2c-1,0.7-1.8,1.3-2.5,2
						c-1.5,1.2-3,2.3-4.5,3.5c-0.5,0.3-0.5,0.6-0.3,1.2c0.8,2.8,1.5,5.5,2.4,8.4c-0.3-0.2-0.6-0.2-0.7-0.3c-2-1.3-4.2-2.8-6.3-4.2
						c-0.7-0.6-1.3-0.6-2.2,0c-2.2,1.5-4.5,3-6.7,4.5C522,84.2,521.8,84.2,521.8,84z"/>
					<path fill="#254C70" d="M542.8,36.2c-1.9,1.5-3.8,3-5.8,4.5c-1.7,1.3-1.7,1.3-1.1,3.3c0.7,2.3,1.3,4.7,2,7.2
						c-1-0.6-1.8-1.2-2.5-1.7c-1.5-1.1-3.2-2.2-4.8-3.2c-0.5-0.3-0.8-0.3-1.3,0c-2.2,1.5-4.5,3-6.7,4.5c-0.1,0.1-0.3,0.2-0.6,0.3
						c0.6-2.2,1.2-4.2,1.8-6.3c0.2-0.7,0.3-1.5,0.6-2c0.2-0.6,0-1-0.5-1.3c-2-1.5-4.1-3.2-6.2-4.7c-0.2-0.2-0.5-0.3-0.8-0.6
						c2.9-0.1,5.5-0.1,8.3-0.2c1.5,0,1.5,0,1.9-1.3c0.8-2.3,1.7-4.5,2.5-7c0.1-0.2,0.1-0.3,0.2-0.7c0.1,0.2,0.2,0.5,0.3,0.7
						c0.8,2.4,1.8,4.7,2.5,7.1c0.2,1,0.8,1.2,1.7,1.2c2.8,0,5.5,0,8.3,0C542.7,35.9,542.7,36,542.8,36.2z"/>
					<path fill="#254C70" d="M554,35.9c2.8,0,5.4,0,8.2,0c1,0,1.5-0.2,1.8-1.3c0.7-2.3,1.7-4.5,2.5-7c0.1-0.2,0.1-0.3,0.3-0.8
						c0.5,1.3,1,2.5,1.5,3.7c0.5,1.3,1.1,2.8,1.5,4.1c0.2,0.8,0.7,1.2,1.7,1.1c2.8,0,5.5,0,8.3,0c0,0.1,0,0.2,0.1,0.3
						c-1,0.7-1.9,1.5-2.9,2.2c-1.3,1-2.5,2-3.8,3c-0.6,0.5-0.7,1-0.5,1.7c0.8,2.7,1.5,5.3,2.4,8.2c-0.3-0.2-0.6-0.3-1-0.6
						c-2.2-1.5-4.3-2.9-6.4-4.3c-0.5-0.3-1-0.3-1.5,0c-2.4,1.5-4.7,3.2-7.3,5c0.3-1.1,0.6-1.9,0.8-2.9c0.5-1.8,1-3.5,1.5-5.3
						c0.2-0.8,0.1-1.3-0.6-1.8c-2-1.5-4.1-3.2-6.2-4.7C554.4,36.4,554.2,36.3,554,35.9C554,36,554,36,554,35.9z"/>
				</g>
			</g>
		</g>
		<g>
			<path fill="#00B2C4" d="M131.7,62.2h-10.5V50.5h10.5V39.7h11.9v10.8h10.5v11.7h-10.5V73h-11.9V62.2z"/>
		</g>
		<g>
			<g>
				<path fill="#00B2C4" d="M296,62.2h-10.5V50.5H296V39.7H308v10.8h10.5v11.7H308V73H296V62.2z"/>
			</g>
		</g>
		<g>
			<path fill="#00B2C4" d="M449.7,42.5h33V54h-33V42.5z M449.7,58.7h33v11.4h-33V58.7z"/>
		</g>
	</g>
</g>
</svg>
