<?xml version="1.0" encoding="utf-8"?>
<!-- Generator: Adobe Illustrator 18.0.0, SVG Export Plug-In . SVG Version: 6.00 Build 0)  -->
<!DOCTYPE svg PUBLIC "-//W3C//DTD SVG 1.1//EN" "http://www.w3.org/Graphics/SVG/1.1/DTD/svg11.dtd">
<svg version="1.1" id="TOOLS-_Body" xmlns="http://www.w3.org/2000/svg" xmlns:xlink="http://www.w3.org/1999/xlink" x="0px"
	 y="0px" width="156px" height="155px" viewBox="0 0 156 155" style="enable-background:new 0 0 156 155;" xml:space="preserve">
<style type="text/css">
	.st0{fill:none;}
	.st1{fill:#294B6E;}
	.st2{fill:none;stroke:url(#New_Pattern_Swatch_4);stroke-width:2.3;stroke-miterlimit:10;}
</style>
<pattern  x="-2784.5" y="-2707.5" width="50" height="50" patternUnits="userSpaceOnUse" id="New_Pattern_Swatch_4" viewBox="0 -50 50 50" style="overflow:visible;">
	<g>
		<polygon class="st0" points="0,0 50,0 50,-50 0,-50 		"/>
		<g>
			<polygon class="st1" points="50,0 0,0 0,-50 50,-50 			"/>
		</g>
	</g>
</pattern>
<g>
	<path class="st2" d="M78,149c-39.4,0-71.5-32.1-71.5-71.5C6.5,38.1,38.6,6,78,6c39.4,0,71.5,32.1,71.5,71.5
		C149.5,116.9,117.4,149,78,149z"/>
	<g>
		<circle class="st2" cx="77" cy="56.3" r="12.5"/>
		<path class="st2" d="M76.2,131.1h-0.4c-10.2,0-16.6-8.3-16.6-18.5l0.1-27c0-5.7,4.6-10.3,10.3-10.3h14.8c5.7,0,10.3,4.6,10.3,10.3
			l-0.1,27C94.7,122.9,86.4,131.1,76.2,131.1z"/>
	</g>
	<circle class="st2" cx="41.8" cy="55.8" r="7.1"/>
	<path class="st2" d="M41.3,100.2h-0.2c-5.8,0-9.4-4.7-9.4-10.6l0-15.4c0-3.2,2.6-5.9,5.9-5.9H46c3.2,0,5.9,2.6,5.9,5.9l0,15.4
		C51.9,95.4,47.1,100.2,41.3,100.2z"/>
	<circle class="st2" cx="112.2" cy="55.5" r="7.1"/>
	<path class="st2" d="M111.8,100.2h-0.2c-5.8,0-9.4-4.7-9.4-10.6l0-15.4c0-3.2,2.6-5.9,5.9-5.9h8.4c3.2,0,5.9,2.6,5.9,5.9l-0.1,15.4
		C122.3,95.4,117.6,100.2,111.8,100.2z"/>
</g>
</svg>
