<?xml version="1.0" encoding="utf-8"?>
<!-- Generator: Adobe Illustrator 18.0.0, SVG Export Plug-In . SVG Version: 6.00 Build 0)  -->
<!DOCTYPE svg PUBLIC "-//W3C//DTD SVG 1.1//EN" "http://www.w3.org/Graphics/SVG/1.1/DTD/svg11.dtd">
<svg version="1.1" id="TOOLS-_Body" xmlns="http://www.w3.org/2000/svg" xmlns:xlink="http://www.w3.org/1999/xlink" x="0px"
	 y="0px" width="156px" height="155px" viewBox="0 0 156 155" style="enable-background:new 0 0 156 155;" xml:space="preserve">
<style type="text/css">
	.st0{fill:none;}
	.st1{fill:#294B6E;}
	.st2{fill:none;stroke:url(#New_Pattern_Swatch_4);stroke-width:2.3;stroke-miterlimit:10;}
	
		.st3{fill:none;stroke:url(#New_Pattern_Swatch_4);stroke-width:2.3;stroke-linecap:round;stroke-linejoin:round;stroke-miterlimit:10;}
</style>
<pattern  x="-2784.5" y="-2707.5" width="50" height="50" patternUnits="userSpaceOnUse" id="New_Pattern_Swatch_4" viewBox="0 -50 50 50" style="overflow:visible;">
	<g>
		<polygon class="st0" points="0,0 50,0 50,-50 0,-50 		"/>
		<g>
			<polygon class="st1" points="50,0 0,0 0,-50 50,-50 			"/>
		</g>
	</g>
</pattern>
<g>
	<path class="st2" d="M78,149c-39.4,0-71.5-32.1-71.5-71.5C6.5,38.1,38.6,6,78,6c39.4,0,71.5,32.1,71.5,71.5
		C149.5,116.9,117.4,149,78,149z"/>
	<g>
		<path class="st3" d="M41.9,70.9c1.2,9.5,6.2,17.8,13.4,23.5v30.4h38.2v-10.9h5.6c5.2,0,9.7-2.8,12.2-7"/>
		<path class="st3" d="M113.2,98.9v-9.2h4.8c1.6,0,2.9-1.3,2.9-2.9c0-0.4-0.1-0.8-0.2-1.1l-7.5-18.8c0,0-0.8-7.8-1.5-10.8
			c-3.1-13.4-18.1-25.6-34.3-25.6c-18.4,0-33.6,14-35.6,31.9"/>
		<path class="st3" d="M113.2,99.7"/>
		<circle class="st3" cx="99.7" cy="71" r="5"/>
		<polyline class="st3" points="75,31.2 75,63.3 65.2,63.3 		"/>
		<line class="st3" x1="43.1" y1="75.2" x2="73.1" y2="75.2"/>
		<line class="st3" x1="56.7" y1="63.9" x2="56.7" y2="49.8"/>
		<path class="st3" d="M77.1,43.1c0,0,14.4,0.2,14.4,14.4"/>
		<polyline class="st3" points="66,75.3 66,90.2 74.4,90.2 		"/>
		<line class="st3" x1="55.4" y1="103.5" x2="83.9" y2="103.5"/>
		<line class="st3" x1="65.9" y1="49.5" x2="46.1" y2="49.5"/>
		<line class="st3" x1="84.1" y1="75.6" x2="84.1" y2="103.3"/>
		<polyline class="st3" points="80.4,124.6 80.4,113.8 68.6,113.8 		"/>
		<path class="st3" d="M112.6,99.1h-9.1c0,0-4.2,0-4.2-4.2"/>
	</g>
</g>
</svg>
